G04 #@! TF.GenerationSoftware,KiCad,Pcbnew,(5.1.5-0)*
G04 #@! TF.CreationDate,2021-06-24T11:38:46-03:00*
G04 #@! TF.ProjectId,pwjsignal,70776a73-6967-46e6-916c-2e6b69636164,rev?*
G04 #@! TF.SameCoordinates,Original*
G04 #@! TF.FileFunction,Soldermask,Bot*
G04 #@! TF.FilePolarity,Negative*
%FSLAX46Y46*%
G04 Gerber Fmt 4.6, Leading zero omitted, Abs format (unit mm)*
G04 Created by KiCad (PCBNEW (5.1.5-0)) date 2021-06-24 11:38:46*
%MOMM*%
%LPD*%
G04 APERTURE LIST*
%ADD10C,0.152400*%
G04 APERTURE END LIST*
D10*
G36*
X178062754Y-123593817D02*
G01*
X178226689Y-123661721D01*
X178374227Y-123760303D01*
X178499697Y-123885773D01*
X178598279Y-124033311D01*
X178666183Y-124197246D01*
X178700800Y-124371279D01*
X178700800Y-124548721D01*
X178666183Y-124722754D01*
X178598279Y-124886689D01*
X178499697Y-125034227D01*
X178374227Y-125159697D01*
X178226689Y-125258279D01*
X178062754Y-125326183D01*
X177888721Y-125360800D01*
X177711279Y-125360800D01*
X177537246Y-125326183D01*
X177373311Y-125258279D01*
X177225773Y-125159697D01*
X177100303Y-125034227D01*
X177001721Y-124886689D01*
X176933817Y-124722754D01*
X176899200Y-124548721D01*
X176899200Y-124371279D01*
X176933817Y-124197246D01*
X177001721Y-124033311D01*
X177100303Y-123885773D01*
X177225773Y-123760303D01*
X177373311Y-123661721D01*
X177537246Y-123593817D01*
X177711279Y-123559200D01*
X177888721Y-123559200D01*
X178062754Y-123593817D01*
G37*
G36*
X175522754Y-123593817D02*
G01*
X175686689Y-123661721D01*
X175834227Y-123760303D01*
X175959697Y-123885773D01*
X176058279Y-124033311D01*
X176126183Y-124197246D01*
X176160800Y-124371279D01*
X176160800Y-124548721D01*
X176126183Y-124722754D01*
X176058279Y-124886689D01*
X175959697Y-125034227D01*
X175834227Y-125159697D01*
X175686689Y-125258279D01*
X175522754Y-125326183D01*
X175348721Y-125360800D01*
X175171279Y-125360800D01*
X174997246Y-125326183D01*
X174833311Y-125258279D01*
X174685773Y-125159697D01*
X174560303Y-125034227D01*
X174461721Y-124886689D01*
X174393817Y-124722754D01*
X174359200Y-124548721D01*
X174359200Y-124371279D01*
X174393817Y-124197246D01*
X174461721Y-124033311D01*
X174560303Y-123885773D01*
X174685773Y-123760303D01*
X174833311Y-123661721D01*
X174997246Y-123593817D01*
X175171279Y-123559200D01*
X175348721Y-123559200D01*
X175522754Y-123593817D01*
G37*
G36*
X132342754Y-123593817D02*
G01*
X132506689Y-123661721D01*
X132654227Y-123760303D01*
X132779697Y-123885773D01*
X132878279Y-124033311D01*
X132946183Y-124197246D01*
X132980800Y-124371279D01*
X132980800Y-124548721D01*
X132946183Y-124722754D01*
X132878279Y-124886689D01*
X132779697Y-125034227D01*
X132654227Y-125159697D01*
X132506689Y-125258279D01*
X132342754Y-125326183D01*
X132168721Y-125360800D01*
X131991279Y-125360800D01*
X131817246Y-125326183D01*
X131653311Y-125258279D01*
X131505773Y-125159697D01*
X131380303Y-125034227D01*
X131281721Y-124886689D01*
X131213817Y-124722754D01*
X131179200Y-124548721D01*
X131179200Y-124371279D01*
X131213817Y-124197246D01*
X131281721Y-124033311D01*
X131380303Y-123885773D01*
X131505773Y-123760303D01*
X131653311Y-123661721D01*
X131817246Y-123593817D01*
X131991279Y-123559200D01*
X132168721Y-123559200D01*
X132342754Y-123593817D01*
G37*
G36*
X129802754Y-123593817D02*
G01*
X129966689Y-123661721D01*
X130114227Y-123760303D01*
X130239697Y-123885773D01*
X130338279Y-124033311D01*
X130406183Y-124197246D01*
X130440800Y-124371279D01*
X130440800Y-124548721D01*
X130406183Y-124722754D01*
X130338279Y-124886689D01*
X130239697Y-125034227D01*
X130114227Y-125159697D01*
X129966689Y-125258279D01*
X129802754Y-125326183D01*
X129628721Y-125360800D01*
X129451279Y-125360800D01*
X129277246Y-125326183D01*
X129113311Y-125258279D01*
X128965773Y-125159697D01*
X128840303Y-125034227D01*
X128741721Y-124886689D01*
X128673817Y-124722754D01*
X128639200Y-124548721D01*
X128639200Y-124371279D01*
X128673817Y-124197246D01*
X128741721Y-124033311D01*
X128840303Y-123885773D01*
X128965773Y-123760303D01*
X129113311Y-123661721D01*
X129277246Y-123593817D01*
X129451279Y-123559200D01*
X129628721Y-123559200D01*
X129802754Y-123593817D01*
G37*
G36*
X139132092Y-122131503D02*
G01*
X139332424Y-122214483D01*
X139512721Y-122334954D01*
X139666046Y-122488279D01*
X139786517Y-122668576D01*
X139869497Y-122868908D01*
X139911800Y-123081580D01*
X139911800Y-123298420D01*
X139869497Y-123511092D01*
X139786517Y-123711424D01*
X139666046Y-123891721D01*
X139512721Y-124045046D01*
X139332424Y-124165517D01*
X139132092Y-124248497D01*
X138919420Y-124290800D01*
X138702580Y-124290800D01*
X138489908Y-124248497D01*
X138289576Y-124165517D01*
X138109279Y-124045046D01*
X137955954Y-123891721D01*
X137835483Y-123711424D01*
X137752503Y-123511092D01*
X137710200Y-123298420D01*
X137710200Y-123081580D01*
X137752503Y-122868908D01*
X137835483Y-122668576D01*
X137955954Y-122488279D01*
X138109279Y-122334954D01*
X138289576Y-122214483D01*
X138489908Y-122131503D01*
X138702580Y-122089200D01*
X138919420Y-122089200D01*
X139132092Y-122131503D01*
G37*
G36*
X137371800Y-124290800D02*
G01*
X135170200Y-124290800D01*
X135170200Y-122089200D01*
X137371800Y-122089200D01*
X137371800Y-124290800D01*
G37*
G36*
X171136092Y-122131503D02*
G01*
X171336424Y-122214483D01*
X171516721Y-122334954D01*
X171670046Y-122488279D01*
X171790517Y-122668576D01*
X171873497Y-122868908D01*
X171915800Y-123081580D01*
X171915800Y-123298420D01*
X171873497Y-123511092D01*
X171790517Y-123711424D01*
X171670046Y-123891721D01*
X171516721Y-124045046D01*
X171336424Y-124165517D01*
X171136092Y-124248497D01*
X170923420Y-124290800D01*
X170706580Y-124290800D01*
X170493908Y-124248497D01*
X170293576Y-124165517D01*
X170113279Y-124045046D01*
X169959954Y-123891721D01*
X169839483Y-123711424D01*
X169756503Y-123511092D01*
X169714200Y-123298420D01*
X169714200Y-123081580D01*
X169756503Y-122868908D01*
X169839483Y-122668576D01*
X169959954Y-122488279D01*
X170113279Y-122334954D01*
X170293576Y-122214483D01*
X170493908Y-122131503D01*
X170706580Y-122089200D01*
X170923420Y-122089200D01*
X171136092Y-122131503D01*
G37*
G36*
X169375800Y-124290800D02*
G01*
X167174200Y-124290800D01*
X167174200Y-122089200D01*
X169375800Y-122089200D01*
X169375800Y-124290800D01*
G37*
G36*
X163643092Y-122131503D02*
G01*
X163843424Y-122214483D01*
X164023721Y-122334954D01*
X164177046Y-122488279D01*
X164297517Y-122668576D01*
X164380497Y-122868908D01*
X164422800Y-123081580D01*
X164422800Y-123298420D01*
X164380497Y-123511092D01*
X164297517Y-123711424D01*
X164177046Y-123891721D01*
X164023721Y-124045046D01*
X163843424Y-124165517D01*
X163643092Y-124248497D01*
X163430420Y-124290800D01*
X163213580Y-124290800D01*
X163000908Y-124248497D01*
X162800576Y-124165517D01*
X162620279Y-124045046D01*
X162466954Y-123891721D01*
X162346483Y-123711424D01*
X162263503Y-123511092D01*
X162221200Y-123298420D01*
X162221200Y-123081580D01*
X162263503Y-122868908D01*
X162346483Y-122668576D01*
X162466954Y-122488279D01*
X162620279Y-122334954D01*
X162800576Y-122214483D01*
X163000908Y-122131503D01*
X163213580Y-122089200D01*
X163430420Y-122089200D01*
X163643092Y-122131503D01*
G37*
G36*
X161882800Y-124290800D02*
G01*
X159681200Y-124290800D01*
X159681200Y-122089200D01*
X161882800Y-122089200D01*
X161882800Y-124290800D01*
G37*
G36*
X151578092Y-122106103D02*
G01*
X151778424Y-122189083D01*
X151958721Y-122309554D01*
X152112046Y-122462879D01*
X152232517Y-122643176D01*
X152315497Y-122843508D01*
X152357800Y-123056180D01*
X152357800Y-123273020D01*
X152315497Y-123485692D01*
X152232517Y-123686024D01*
X152112046Y-123866321D01*
X151958721Y-124019646D01*
X151778424Y-124140117D01*
X151578092Y-124223097D01*
X151365420Y-124265400D01*
X151148580Y-124265400D01*
X150935908Y-124223097D01*
X150735576Y-124140117D01*
X150555279Y-124019646D01*
X150401954Y-123866321D01*
X150281483Y-123686024D01*
X150198503Y-123485692D01*
X150156200Y-123273020D01*
X150156200Y-123056180D01*
X150198503Y-122843508D01*
X150281483Y-122643176D01*
X150401954Y-122462879D01*
X150555279Y-122309554D01*
X150735576Y-122189083D01*
X150935908Y-122106103D01*
X151148580Y-122063800D01*
X151365420Y-122063800D01*
X151578092Y-122106103D01*
G37*
G36*
X149817800Y-124265400D02*
G01*
X147616200Y-124265400D01*
X147616200Y-122063800D01*
X149817800Y-122063800D01*
X149817800Y-124265400D01*
G37*
G36*
X178062754Y-121053817D02*
G01*
X178226689Y-121121721D01*
X178374227Y-121220303D01*
X178499697Y-121345773D01*
X178598279Y-121493311D01*
X178666183Y-121657246D01*
X178700800Y-121831279D01*
X178700800Y-122008721D01*
X178666183Y-122182754D01*
X178598279Y-122346689D01*
X178499697Y-122494227D01*
X178374227Y-122619697D01*
X178226689Y-122718279D01*
X178062754Y-122786183D01*
X177888721Y-122820800D01*
X177711279Y-122820800D01*
X177537246Y-122786183D01*
X177373311Y-122718279D01*
X177225773Y-122619697D01*
X177100303Y-122494227D01*
X177001721Y-122346689D01*
X176933817Y-122182754D01*
X176899200Y-122008721D01*
X176899200Y-121831279D01*
X176933817Y-121657246D01*
X177001721Y-121493311D01*
X177100303Y-121345773D01*
X177225773Y-121220303D01*
X177373311Y-121121721D01*
X177537246Y-121053817D01*
X177711279Y-121019200D01*
X177888721Y-121019200D01*
X178062754Y-121053817D01*
G37*
G36*
X175522754Y-121053817D02*
G01*
X175686689Y-121121721D01*
X175834227Y-121220303D01*
X175959697Y-121345773D01*
X176058279Y-121493311D01*
X176126183Y-121657246D01*
X176160800Y-121831279D01*
X176160800Y-122008721D01*
X176126183Y-122182754D01*
X176058279Y-122346689D01*
X175959697Y-122494227D01*
X175834227Y-122619697D01*
X175686689Y-122718279D01*
X175522754Y-122786183D01*
X175348721Y-122820800D01*
X175171279Y-122820800D01*
X174997246Y-122786183D01*
X174833311Y-122718279D01*
X174685773Y-122619697D01*
X174560303Y-122494227D01*
X174461721Y-122346689D01*
X174393817Y-122182754D01*
X174359200Y-122008721D01*
X174359200Y-121831279D01*
X174393817Y-121657246D01*
X174461721Y-121493311D01*
X174560303Y-121345773D01*
X174685773Y-121220303D01*
X174833311Y-121121721D01*
X174997246Y-121053817D01*
X175171279Y-121019200D01*
X175348721Y-121019200D01*
X175522754Y-121053817D01*
G37*
G36*
X132342754Y-121053817D02*
G01*
X132506689Y-121121721D01*
X132654227Y-121220303D01*
X132779697Y-121345773D01*
X132878279Y-121493311D01*
X132946183Y-121657246D01*
X132980800Y-121831279D01*
X132980800Y-122008721D01*
X132946183Y-122182754D01*
X132878279Y-122346689D01*
X132779697Y-122494227D01*
X132654227Y-122619697D01*
X132506689Y-122718279D01*
X132342754Y-122786183D01*
X132168721Y-122820800D01*
X131991279Y-122820800D01*
X131817246Y-122786183D01*
X131653311Y-122718279D01*
X131505773Y-122619697D01*
X131380303Y-122494227D01*
X131281721Y-122346689D01*
X131213817Y-122182754D01*
X131179200Y-122008721D01*
X131179200Y-121831279D01*
X131213817Y-121657246D01*
X131281721Y-121493311D01*
X131380303Y-121345773D01*
X131505773Y-121220303D01*
X131653311Y-121121721D01*
X131817246Y-121053817D01*
X131991279Y-121019200D01*
X132168721Y-121019200D01*
X132342754Y-121053817D01*
G37*
G36*
X129802754Y-121053817D02*
G01*
X129966689Y-121121721D01*
X130114227Y-121220303D01*
X130239697Y-121345773D01*
X130338279Y-121493311D01*
X130406183Y-121657246D01*
X130440800Y-121831279D01*
X130440800Y-122008721D01*
X130406183Y-122182754D01*
X130338279Y-122346689D01*
X130239697Y-122494227D01*
X130114227Y-122619697D01*
X129966689Y-122718279D01*
X129802754Y-122786183D01*
X129628721Y-122820800D01*
X129451279Y-122820800D01*
X129277246Y-122786183D01*
X129113311Y-122718279D01*
X128965773Y-122619697D01*
X128840303Y-122494227D01*
X128741721Y-122346689D01*
X128673817Y-122182754D01*
X128639200Y-122008721D01*
X128639200Y-121831279D01*
X128673817Y-121657246D01*
X128741721Y-121493311D01*
X128840303Y-121345773D01*
X128965773Y-121220303D01*
X129113311Y-121121721D01*
X129277246Y-121053817D01*
X129451279Y-121019200D01*
X129628721Y-121019200D01*
X129802754Y-121053817D01*
G37*
G36*
X132342754Y-118513817D02*
G01*
X132506689Y-118581721D01*
X132654227Y-118680303D01*
X132779697Y-118805773D01*
X132878279Y-118953311D01*
X132946183Y-119117246D01*
X132980800Y-119291279D01*
X132980800Y-119468721D01*
X132946183Y-119642754D01*
X132878279Y-119806689D01*
X132779697Y-119954227D01*
X132654227Y-120079697D01*
X132506689Y-120178279D01*
X132342754Y-120246183D01*
X132168721Y-120280800D01*
X131991279Y-120280800D01*
X131817246Y-120246183D01*
X131653311Y-120178279D01*
X131505773Y-120079697D01*
X131380303Y-119954227D01*
X131281721Y-119806689D01*
X131213817Y-119642754D01*
X131179200Y-119468721D01*
X131179200Y-119291279D01*
X131213817Y-119117246D01*
X131281721Y-118953311D01*
X131380303Y-118805773D01*
X131505773Y-118680303D01*
X131653311Y-118581721D01*
X131817246Y-118513817D01*
X131991279Y-118479200D01*
X132168721Y-118479200D01*
X132342754Y-118513817D01*
G37*
G36*
X129802754Y-118513817D02*
G01*
X129966689Y-118581721D01*
X130114227Y-118680303D01*
X130239697Y-118805773D01*
X130338279Y-118953311D01*
X130406183Y-119117246D01*
X130440800Y-119291279D01*
X130440800Y-119468721D01*
X130406183Y-119642754D01*
X130338279Y-119806689D01*
X130239697Y-119954227D01*
X130114227Y-120079697D01*
X129966689Y-120178279D01*
X129802754Y-120246183D01*
X129628721Y-120280800D01*
X129451279Y-120280800D01*
X129277246Y-120246183D01*
X129113311Y-120178279D01*
X128965773Y-120079697D01*
X128840303Y-119954227D01*
X128741721Y-119806689D01*
X128673817Y-119642754D01*
X128639200Y-119468721D01*
X128639200Y-119291279D01*
X128673817Y-119117246D01*
X128741721Y-118953311D01*
X128840303Y-118805773D01*
X128965773Y-118680303D01*
X129113311Y-118581721D01*
X129277246Y-118513817D01*
X129451279Y-118479200D01*
X129628721Y-118479200D01*
X129802754Y-118513817D01*
G37*
G36*
X175522754Y-118513817D02*
G01*
X175686689Y-118581721D01*
X175834227Y-118680303D01*
X175959697Y-118805773D01*
X176058279Y-118953311D01*
X176126183Y-119117246D01*
X176160800Y-119291279D01*
X176160800Y-119468721D01*
X176126183Y-119642754D01*
X176058279Y-119806689D01*
X175959697Y-119954227D01*
X175834227Y-120079697D01*
X175686689Y-120178279D01*
X175522754Y-120246183D01*
X175348721Y-120280800D01*
X175171279Y-120280800D01*
X174997246Y-120246183D01*
X174833311Y-120178279D01*
X174685773Y-120079697D01*
X174560303Y-119954227D01*
X174461721Y-119806689D01*
X174393817Y-119642754D01*
X174359200Y-119468721D01*
X174359200Y-119291279D01*
X174393817Y-119117246D01*
X174461721Y-118953311D01*
X174560303Y-118805773D01*
X174685773Y-118680303D01*
X174833311Y-118581721D01*
X174997246Y-118513817D01*
X175171279Y-118479200D01*
X175348721Y-118479200D01*
X175522754Y-118513817D01*
G37*
G36*
X178062754Y-118513817D02*
G01*
X178226689Y-118581721D01*
X178374227Y-118680303D01*
X178499697Y-118805773D01*
X178598279Y-118953311D01*
X178666183Y-119117246D01*
X178700800Y-119291279D01*
X178700800Y-119468721D01*
X178666183Y-119642754D01*
X178598279Y-119806689D01*
X178499697Y-119954227D01*
X178374227Y-120079697D01*
X178226689Y-120178279D01*
X178062754Y-120246183D01*
X177888721Y-120280800D01*
X177711279Y-120280800D01*
X177537246Y-120246183D01*
X177373311Y-120178279D01*
X177225773Y-120079697D01*
X177100303Y-119954227D01*
X177001721Y-119806689D01*
X176933817Y-119642754D01*
X176899200Y-119468721D01*
X176899200Y-119291279D01*
X176933817Y-119117246D01*
X177001721Y-118953311D01*
X177100303Y-118805773D01*
X177225773Y-118680303D01*
X177373311Y-118581721D01*
X177537246Y-118513817D01*
X177711279Y-118479200D01*
X177888721Y-118479200D01*
X178062754Y-118513817D01*
G37*
G36*
X178062754Y-115973817D02*
G01*
X178226689Y-116041721D01*
X178374227Y-116140303D01*
X178499697Y-116265773D01*
X178598279Y-116413311D01*
X178666183Y-116577246D01*
X178700800Y-116751279D01*
X178700800Y-116928721D01*
X178666183Y-117102754D01*
X178598279Y-117266689D01*
X178499697Y-117414227D01*
X178374227Y-117539697D01*
X178226689Y-117638279D01*
X178062754Y-117706183D01*
X177888721Y-117740800D01*
X177711279Y-117740800D01*
X177537246Y-117706183D01*
X177373311Y-117638279D01*
X177225773Y-117539697D01*
X177100303Y-117414227D01*
X177001721Y-117266689D01*
X176933817Y-117102754D01*
X176899200Y-116928721D01*
X176899200Y-116751279D01*
X176933817Y-116577246D01*
X177001721Y-116413311D01*
X177100303Y-116265773D01*
X177225773Y-116140303D01*
X177373311Y-116041721D01*
X177537246Y-115973817D01*
X177711279Y-115939200D01*
X177888721Y-115939200D01*
X178062754Y-115973817D01*
G37*
G36*
X129802754Y-115973817D02*
G01*
X129966689Y-116041721D01*
X130114227Y-116140303D01*
X130239697Y-116265773D01*
X130338279Y-116413311D01*
X130406183Y-116577246D01*
X130440800Y-116751279D01*
X130440800Y-116928721D01*
X130406183Y-117102754D01*
X130338279Y-117266689D01*
X130239697Y-117414227D01*
X130114227Y-117539697D01*
X129966689Y-117638279D01*
X129802754Y-117706183D01*
X129628721Y-117740800D01*
X129451279Y-117740800D01*
X129277246Y-117706183D01*
X129113311Y-117638279D01*
X128965773Y-117539697D01*
X128840303Y-117414227D01*
X128741721Y-117266689D01*
X128673817Y-117102754D01*
X128639200Y-116928721D01*
X128639200Y-116751279D01*
X128673817Y-116577246D01*
X128741721Y-116413311D01*
X128840303Y-116265773D01*
X128965773Y-116140303D01*
X129113311Y-116041721D01*
X129277246Y-115973817D01*
X129451279Y-115939200D01*
X129628721Y-115939200D01*
X129802754Y-115973817D01*
G37*
G36*
X132342754Y-115973817D02*
G01*
X132506689Y-116041721D01*
X132654227Y-116140303D01*
X132779697Y-116265773D01*
X132878279Y-116413311D01*
X132946183Y-116577246D01*
X132980800Y-116751279D01*
X132980800Y-116928721D01*
X132946183Y-117102754D01*
X132878279Y-117266689D01*
X132779697Y-117414227D01*
X132654227Y-117539697D01*
X132506689Y-117638279D01*
X132342754Y-117706183D01*
X132168721Y-117740800D01*
X131991279Y-117740800D01*
X131817246Y-117706183D01*
X131653311Y-117638279D01*
X131505773Y-117539697D01*
X131380303Y-117414227D01*
X131281721Y-117266689D01*
X131213817Y-117102754D01*
X131179200Y-116928721D01*
X131179200Y-116751279D01*
X131213817Y-116577246D01*
X131281721Y-116413311D01*
X131380303Y-116265773D01*
X131505773Y-116140303D01*
X131653311Y-116041721D01*
X131817246Y-115973817D01*
X131991279Y-115939200D01*
X132168721Y-115939200D01*
X132342754Y-115973817D01*
G37*
G36*
X175522754Y-115973817D02*
G01*
X175686689Y-116041721D01*
X175834227Y-116140303D01*
X175959697Y-116265773D01*
X176058279Y-116413311D01*
X176126183Y-116577246D01*
X176160800Y-116751279D01*
X176160800Y-116928721D01*
X176126183Y-117102754D01*
X176058279Y-117266689D01*
X175959697Y-117414227D01*
X175834227Y-117539697D01*
X175686689Y-117638279D01*
X175522754Y-117706183D01*
X175348721Y-117740800D01*
X175171279Y-117740800D01*
X174997246Y-117706183D01*
X174833311Y-117638279D01*
X174685773Y-117539697D01*
X174560303Y-117414227D01*
X174461721Y-117266689D01*
X174393817Y-117102754D01*
X174359200Y-116928721D01*
X174359200Y-116751279D01*
X174393817Y-116577246D01*
X174461721Y-116413311D01*
X174560303Y-116265773D01*
X174685773Y-116140303D01*
X174833311Y-116041721D01*
X174997246Y-115973817D01*
X175171279Y-115939200D01*
X175348721Y-115939200D01*
X175522754Y-115973817D01*
G37*
G36*
X129802754Y-113433817D02*
G01*
X129966689Y-113501721D01*
X130114227Y-113600303D01*
X130239697Y-113725773D01*
X130338279Y-113873311D01*
X130406183Y-114037246D01*
X130440800Y-114211279D01*
X130440800Y-114388721D01*
X130406183Y-114562754D01*
X130338279Y-114726689D01*
X130239697Y-114874227D01*
X130114227Y-114999697D01*
X129966689Y-115098279D01*
X129802754Y-115166183D01*
X129628721Y-115200800D01*
X129451279Y-115200800D01*
X129277246Y-115166183D01*
X129113311Y-115098279D01*
X128965773Y-114999697D01*
X128840303Y-114874227D01*
X128741721Y-114726689D01*
X128673817Y-114562754D01*
X128639200Y-114388721D01*
X128639200Y-114211279D01*
X128673817Y-114037246D01*
X128741721Y-113873311D01*
X128840303Y-113725773D01*
X128965773Y-113600303D01*
X129113311Y-113501721D01*
X129277246Y-113433817D01*
X129451279Y-113399200D01*
X129628721Y-113399200D01*
X129802754Y-113433817D01*
G37*
G36*
X132342754Y-113433817D02*
G01*
X132506689Y-113501721D01*
X132654227Y-113600303D01*
X132779697Y-113725773D01*
X132878279Y-113873311D01*
X132946183Y-114037246D01*
X132980800Y-114211279D01*
X132980800Y-114388721D01*
X132946183Y-114562754D01*
X132878279Y-114726689D01*
X132779697Y-114874227D01*
X132654227Y-114999697D01*
X132506689Y-115098279D01*
X132342754Y-115166183D01*
X132168721Y-115200800D01*
X131991279Y-115200800D01*
X131817246Y-115166183D01*
X131653311Y-115098279D01*
X131505773Y-114999697D01*
X131380303Y-114874227D01*
X131281721Y-114726689D01*
X131213817Y-114562754D01*
X131179200Y-114388721D01*
X131179200Y-114211279D01*
X131213817Y-114037246D01*
X131281721Y-113873311D01*
X131380303Y-113725773D01*
X131505773Y-113600303D01*
X131653311Y-113501721D01*
X131817246Y-113433817D01*
X131991279Y-113399200D01*
X132168721Y-113399200D01*
X132342754Y-113433817D01*
G37*
G36*
X175522754Y-113433817D02*
G01*
X175686689Y-113501721D01*
X175834227Y-113600303D01*
X175959697Y-113725773D01*
X176058279Y-113873311D01*
X176126183Y-114037246D01*
X176160800Y-114211279D01*
X176160800Y-114388721D01*
X176126183Y-114562754D01*
X176058279Y-114726689D01*
X175959697Y-114874227D01*
X175834227Y-114999697D01*
X175686689Y-115098279D01*
X175522754Y-115166183D01*
X175348721Y-115200800D01*
X175171279Y-115200800D01*
X174997246Y-115166183D01*
X174833311Y-115098279D01*
X174685773Y-114999697D01*
X174560303Y-114874227D01*
X174461721Y-114726689D01*
X174393817Y-114562754D01*
X174359200Y-114388721D01*
X174359200Y-114211279D01*
X174393817Y-114037246D01*
X174461721Y-113873311D01*
X174560303Y-113725773D01*
X174685773Y-113600303D01*
X174833311Y-113501721D01*
X174997246Y-113433817D01*
X175171279Y-113399200D01*
X175348721Y-113399200D01*
X175522754Y-113433817D01*
G37*
G36*
X178062754Y-113433817D02*
G01*
X178226689Y-113501721D01*
X178374227Y-113600303D01*
X178499697Y-113725773D01*
X178598279Y-113873311D01*
X178666183Y-114037246D01*
X178700800Y-114211279D01*
X178700800Y-114388721D01*
X178666183Y-114562754D01*
X178598279Y-114726689D01*
X178499697Y-114874227D01*
X178374227Y-114999697D01*
X178226689Y-115098279D01*
X178062754Y-115166183D01*
X177888721Y-115200800D01*
X177711279Y-115200800D01*
X177537246Y-115166183D01*
X177373311Y-115098279D01*
X177225773Y-114999697D01*
X177100303Y-114874227D01*
X177001721Y-114726689D01*
X176933817Y-114562754D01*
X176899200Y-114388721D01*
X176899200Y-114211279D01*
X176933817Y-114037246D01*
X177001721Y-113873311D01*
X177100303Y-113725773D01*
X177225773Y-113600303D01*
X177373311Y-113501721D01*
X177537246Y-113433817D01*
X177711279Y-113399200D01*
X177888721Y-113399200D01*
X178062754Y-113433817D01*
G37*
G36*
X129802754Y-110893817D02*
G01*
X129966689Y-110961721D01*
X130114227Y-111060303D01*
X130239697Y-111185773D01*
X130338279Y-111333311D01*
X130406183Y-111497246D01*
X130440800Y-111671279D01*
X130440800Y-111848721D01*
X130406183Y-112022754D01*
X130338279Y-112186689D01*
X130239697Y-112334227D01*
X130114227Y-112459697D01*
X129966689Y-112558279D01*
X129802754Y-112626183D01*
X129628721Y-112660800D01*
X129451279Y-112660800D01*
X129277246Y-112626183D01*
X129113311Y-112558279D01*
X128965773Y-112459697D01*
X128840303Y-112334227D01*
X128741721Y-112186689D01*
X128673817Y-112022754D01*
X128639200Y-111848721D01*
X128639200Y-111671279D01*
X128673817Y-111497246D01*
X128741721Y-111333311D01*
X128840303Y-111185773D01*
X128965773Y-111060303D01*
X129113311Y-110961721D01*
X129277246Y-110893817D01*
X129451279Y-110859200D01*
X129628721Y-110859200D01*
X129802754Y-110893817D01*
G37*
G36*
X178062754Y-110893817D02*
G01*
X178226689Y-110961721D01*
X178374227Y-111060303D01*
X178499697Y-111185773D01*
X178598279Y-111333311D01*
X178666183Y-111497246D01*
X178700800Y-111671279D01*
X178700800Y-111848721D01*
X178666183Y-112022754D01*
X178598279Y-112186689D01*
X178499697Y-112334227D01*
X178374227Y-112459697D01*
X178226689Y-112558279D01*
X178062754Y-112626183D01*
X177888721Y-112660800D01*
X177711279Y-112660800D01*
X177537246Y-112626183D01*
X177373311Y-112558279D01*
X177225773Y-112459697D01*
X177100303Y-112334227D01*
X177001721Y-112186689D01*
X176933817Y-112022754D01*
X176899200Y-111848721D01*
X176899200Y-111671279D01*
X176933817Y-111497246D01*
X177001721Y-111333311D01*
X177100303Y-111185773D01*
X177225773Y-111060303D01*
X177373311Y-110961721D01*
X177537246Y-110893817D01*
X177711279Y-110859200D01*
X177888721Y-110859200D01*
X178062754Y-110893817D01*
G37*
G36*
X175522754Y-110893817D02*
G01*
X175686689Y-110961721D01*
X175834227Y-111060303D01*
X175959697Y-111185773D01*
X176058279Y-111333311D01*
X176126183Y-111497246D01*
X176160800Y-111671279D01*
X176160800Y-111848721D01*
X176126183Y-112022754D01*
X176058279Y-112186689D01*
X175959697Y-112334227D01*
X175834227Y-112459697D01*
X175686689Y-112558279D01*
X175522754Y-112626183D01*
X175348721Y-112660800D01*
X175171279Y-112660800D01*
X174997246Y-112626183D01*
X174833311Y-112558279D01*
X174685773Y-112459697D01*
X174560303Y-112334227D01*
X174461721Y-112186689D01*
X174393817Y-112022754D01*
X174359200Y-111848721D01*
X174359200Y-111671279D01*
X174393817Y-111497246D01*
X174461721Y-111333311D01*
X174560303Y-111185773D01*
X174685773Y-111060303D01*
X174833311Y-110961721D01*
X174997246Y-110893817D01*
X175171279Y-110859200D01*
X175348721Y-110859200D01*
X175522754Y-110893817D01*
G37*
G36*
X132342754Y-110893817D02*
G01*
X132506689Y-110961721D01*
X132654227Y-111060303D01*
X132779697Y-111185773D01*
X132878279Y-111333311D01*
X132946183Y-111497246D01*
X132980800Y-111671279D01*
X132980800Y-111848721D01*
X132946183Y-112022754D01*
X132878279Y-112186689D01*
X132779697Y-112334227D01*
X132654227Y-112459697D01*
X132506689Y-112558279D01*
X132342754Y-112626183D01*
X132168721Y-112660800D01*
X131991279Y-112660800D01*
X131817246Y-112626183D01*
X131653311Y-112558279D01*
X131505773Y-112459697D01*
X131380303Y-112334227D01*
X131281721Y-112186689D01*
X131213817Y-112022754D01*
X131179200Y-111848721D01*
X131179200Y-111671279D01*
X131213817Y-111497246D01*
X131281721Y-111333311D01*
X131380303Y-111185773D01*
X131505773Y-111060303D01*
X131653311Y-110961721D01*
X131817246Y-110893817D01*
X131991279Y-110859200D01*
X132168721Y-110859200D01*
X132342754Y-110893817D01*
G37*
G36*
X178062754Y-108353817D02*
G01*
X178226689Y-108421721D01*
X178374227Y-108520303D01*
X178499697Y-108645773D01*
X178598279Y-108793311D01*
X178666183Y-108957246D01*
X178700800Y-109131279D01*
X178700800Y-109308721D01*
X178666183Y-109482754D01*
X178598279Y-109646689D01*
X178499697Y-109794227D01*
X178374227Y-109919697D01*
X178226689Y-110018279D01*
X178062754Y-110086183D01*
X177888721Y-110120800D01*
X177711279Y-110120800D01*
X177537246Y-110086183D01*
X177373311Y-110018279D01*
X177225773Y-109919697D01*
X177100303Y-109794227D01*
X177001721Y-109646689D01*
X176933817Y-109482754D01*
X176899200Y-109308721D01*
X176899200Y-109131279D01*
X176933817Y-108957246D01*
X177001721Y-108793311D01*
X177100303Y-108645773D01*
X177225773Y-108520303D01*
X177373311Y-108421721D01*
X177537246Y-108353817D01*
X177711279Y-108319200D01*
X177888721Y-108319200D01*
X178062754Y-108353817D01*
G37*
G36*
X175522754Y-108353817D02*
G01*
X175686689Y-108421721D01*
X175834227Y-108520303D01*
X175959697Y-108645773D01*
X176058279Y-108793311D01*
X176126183Y-108957246D01*
X176160800Y-109131279D01*
X176160800Y-109308721D01*
X176126183Y-109482754D01*
X176058279Y-109646689D01*
X175959697Y-109794227D01*
X175834227Y-109919697D01*
X175686689Y-110018279D01*
X175522754Y-110086183D01*
X175348721Y-110120800D01*
X175171279Y-110120800D01*
X174997246Y-110086183D01*
X174833311Y-110018279D01*
X174685773Y-109919697D01*
X174560303Y-109794227D01*
X174461721Y-109646689D01*
X174393817Y-109482754D01*
X174359200Y-109308721D01*
X174359200Y-109131279D01*
X174393817Y-108957246D01*
X174461721Y-108793311D01*
X174560303Y-108645773D01*
X174685773Y-108520303D01*
X174833311Y-108421721D01*
X174997246Y-108353817D01*
X175171279Y-108319200D01*
X175348721Y-108319200D01*
X175522754Y-108353817D01*
G37*
G36*
X129802754Y-108353817D02*
G01*
X129966689Y-108421721D01*
X130114227Y-108520303D01*
X130239697Y-108645773D01*
X130338279Y-108793311D01*
X130406183Y-108957246D01*
X130440800Y-109131279D01*
X130440800Y-109308721D01*
X130406183Y-109482754D01*
X130338279Y-109646689D01*
X130239697Y-109794227D01*
X130114227Y-109919697D01*
X129966689Y-110018279D01*
X129802754Y-110086183D01*
X129628721Y-110120800D01*
X129451279Y-110120800D01*
X129277246Y-110086183D01*
X129113311Y-110018279D01*
X128965773Y-109919697D01*
X128840303Y-109794227D01*
X128741721Y-109646689D01*
X128673817Y-109482754D01*
X128639200Y-109308721D01*
X128639200Y-109131279D01*
X128673817Y-108957246D01*
X128741721Y-108793311D01*
X128840303Y-108645773D01*
X128965773Y-108520303D01*
X129113311Y-108421721D01*
X129277246Y-108353817D01*
X129451279Y-108319200D01*
X129628721Y-108319200D01*
X129802754Y-108353817D01*
G37*
G36*
X132342754Y-108353817D02*
G01*
X132506689Y-108421721D01*
X132654227Y-108520303D01*
X132779697Y-108645773D01*
X132878279Y-108793311D01*
X132946183Y-108957246D01*
X132980800Y-109131279D01*
X132980800Y-109308721D01*
X132946183Y-109482754D01*
X132878279Y-109646689D01*
X132779697Y-109794227D01*
X132654227Y-109919697D01*
X132506689Y-110018279D01*
X132342754Y-110086183D01*
X132168721Y-110120800D01*
X131991279Y-110120800D01*
X131817246Y-110086183D01*
X131653311Y-110018279D01*
X131505773Y-109919697D01*
X131380303Y-109794227D01*
X131281721Y-109646689D01*
X131213817Y-109482754D01*
X131179200Y-109308721D01*
X131179200Y-109131279D01*
X131213817Y-108957246D01*
X131281721Y-108793311D01*
X131380303Y-108645773D01*
X131505773Y-108520303D01*
X131653311Y-108421721D01*
X131817246Y-108353817D01*
X131991279Y-108319200D01*
X132168721Y-108319200D01*
X132342754Y-108353817D01*
G37*
G36*
X178062754Y-105813817D02*
G01*
X178226689Y-105881721D01*
X178374227Y-105980303D01*
X178499697Y-106105773D01*
X178598279Y-106253311D01*
X178666183Y-106417246D01*
X178700800Y-106591279D01*
X178700800Y-106768721D01*
X178666183Y-106942754D01*
X178598279Y-107106689D01*
X178499697Y-107254227D01*
X178374227Y-107379697D01*
X178226689Y-107478279D01*
X178062754Y-107546183D01*
X177888721Y-107580800D01*
X177711279Y-107580800D01*
X177537246Y-107546183D01*
X177373311Y-107478279D01*
X177225773Y-107379697D01*
X177100303Y-107254227D01*
X177001721Y-107106689D01*
X176933817Y-106942754D01*
X176899200Y-106768721D01*
X176899200Y-106591279D01*
X176933817Y-106417246D01*
X177001721Y-106253311D01*
X177100303Y-106105773D01*
X177225773Y-105980303D01*
X177373311Y-105881721D01*
X177537246Y-105813817D01*
X177711279Y-105779200D01*
X177888721Y-105779200D01*
X178062754Y-105813817D01*
G37*
G36*
X175522754Y-105813817D02*
G01*
X175686689Y-105881721D01*
X175834227Y-105980303D01*
X175959697Y-106105773D01*
X176058279Y-106253311D01*
X176126183Y-106417246D01*
X176160800Y-106591279D01*
X176160800Y-106768721D01*
X176126183Y-106942754D01*
X176058279Y-107106689D01*
X175959697Y-107254227D01*
X175834227Y-107379697D01*
X175686689Y-107478279D01*
X175522754Y-107546183D01*
X175348721Y-107580800D01*
X175171279Y-107580800D01*
X174997246Y-107546183D01*
X174833311Y-107478279D01*
X174685773Y-107379697D01*
X174560303Y-107254227D01*
X174461721Y-107106689D01*
X174393817Y-106942754D01*
X174359200Y-106768721D01*
X174359200Y-106591279D01*
X174393817Y-106417246D01*
X174461721Y-106253311D01*
X174560303Y-106105773D01*
X174685773Y-105980303D01*
X174833311Y-105881721D01*
X174997246Y-105813817D01*
X175171279Y-105779200D01*
X175348721Y-105779200D01*
X175522754Y-105813817D01*
G37*
G36*
X129802754Y-105813817D02*
G01*
X129966689Y-105881721D01*
X130114227Y-105980303D01*
X130239697Y-106105773D01*
X130338279Y-106253311D01*
X130406183Y-106417246D01*
X130440800Y-106591279D01*
X130440800Y-106768721D01*
X130406183Y-106942754D01*
X130338279Y-107106689D01*
X130239697Y-107254227D01*
X130114227Y-107379697D01*
X129966689Y-107478279D01*
X129802754Y-107546183D01*
X129628721Y-107580800D01*
X129451279Y-107580800D01*
X129277246Y-107546183D01*
X129113311Y-107478279D01*
X128965773Y-107379697D01*
X128840303Y-107254227D01*
X128741721Y-107106689D01*
X128673817Y-106942754D01*
X128639200Y-106768721D01*
X128639200Y-106591279D01*
X128673817Y-106417246D01*
X128741721Y-106253311D01*
X128840303Y-106105773D01*
X128965773Y-105980303D01*
X129113311Y-105881721D01*
X129277246Y-105813817D01*
X129451279Y-105779200D01*
X129628721Y-105779200D01*
X129802754Y-105813817D01*
G37*
G36*
X132342754Y-105813817D02*
G01*
X132506689Y-105881721D01*
X132654227Y-105980303D01*
X132779697Y-106105773D01*
X132878279Y-106253311D01*
X132946183Y-106417246D01*
X132980800Y-106591279D01*
X132980800Y-106768721D01*
X132946183Y-106942754D01*
X132878279Y-107106689D01*
X132779697Y-107254227D01*
X132654227Y-107379697D01*
X132506689Y-107478279D01*
X132342754Y-107546183D01*
X132168721Y-107580800D01*
X131991279Y-107580800D01*
X131817246Y-107546183D01*
X131653311Y-107478279D01*
X131505773Y-107379697D01*
X131380303Y-107254227D01*
X131281721Y-107106689D01*
X131213817Y-106942754D01*
X131179200Y-106768721D01*
X131179200Y-106591279D01*
X131213817Y-106417246D01*
X131281721Y-106253311D01*
X131380303Y-106105773D01*
X131505773Y-105980303D01*
X131653311Y-105881721D01*
X131817246Y-105813817D01*
X131991279Y-105779200D01*
X132168721Y-105779200D01*
X132342754Y-105813817D01*
G37*
G36*
X132342754Y-103273817D02*
G01*
X132506689Y-103341721D01*
X132654227Y-103440303D01*
X132779697Y-103565773D01*
X132878279Y-103713311D01*
X132946183Y-103877246D01*
X132980800Y-104051279D01*
X132980800Y-104228721D01*
X132946183Y-104402754D01*
X132878279Y-104566689D01*
X132779697Y-104714227D01*
X132654227Y-104839697D01*
X132506689Y-104938279D01*
X132342754Y-105006183D01*
X132168721Y-105040800D01*
X131991279Y-105040800D01*
X131817246Y-105006183D01*
X131653311Y-104938279D01*
X131505773Y-104839697D01*
X131380303Y-104714227D01*
X131281721Y-104566689D01*
X131213817Y-104402754D01*
X131179200Y-104228721D01*
X131179200Y-104051279D01*
X131213817Y-103877246D01*
X131281721Y-103713311D01*
X131380303Y-103565773D01*
X131505773Y-103440303D01*
X131653311Y-103341721D01*
X131817246Y-103273817D01*
X131991279Y-103239200D01*
X132168721Y-103239200D01*
X132342754Y-103273817D01*
G37*
G36*
X178062754Y-103273817D02*
G01*
X178226689Y-103341721D01*
X178374227Y-103440303D01*
X178499697Y-103565773D01*
X178598279Y-103713311D01*
X178666183Y-103877246D01*
X178700800Y-104051279D01*
X178700800Y-104228721D01*
X178666183Y-104402754D01*
X178598279Y-104566689D01*
X178499697Y-104714227D01*
X178374227Y-104839697D01*
X178226689Y-104938279D01*
X178062754Y-105006183D01*
X177888721Y-105040800D01*
X177711279Y-105040800D01*
X177537246Y-105006183D01*
X177373311Y-104938279D01*
X177225773Y-104839697D01*
X177100303Y-104714227D01*
X177001721Y-104566689D01*
X176933817Y-104402754D01*
X176899200Y-104228721D01*
X176899200Y-104051279D01*
X176933817Y-103877246D01*
X177001721Y-103713311D01*
X177100303Y-103565773D01*
X177225773Y-103440303D01*
X177373311Y-103341721D01*
X177537246Y-103273817D01*
X177711279Y-103239200D01*
X177888721Y-103239200D01*
X178062754Y-103273817D01*
G37*
G36*
X129802754Y-103273817D02*
G01*
X129966689Y-103341721D01*
X130114227Y-103440303D01*
X130239697Y-103565773D01*
X130338279Y-103713311D01*
X130406183Y-103877246D01*
X130440800Y-104051279D01*
X130440800Y-104228721D01*
X130406183Y-104402754D01*
X130338279Y-104566689D01*
X130239697Y-104714227D01*
X130114227Y-104839697D01*
X129966689Y-104938279D01*
X129802754Y-105006183D01*
X129628721Y-105040800D01*
X129451279Y-105040800D01*
X129277246Y-105006183D01*
X129113311Y-104938279D01*
X128965773Y-104839697D01*
X128840303Y-104714227D01*
X128741721Y-104566689D01*
X128673817Y-104402754D01*
X128639200Y-104228721D01*
X128639200Y-104051279D01*
X128673817Y-103877246D01*
X128741721Y-103713311D01*
X128840303Y-103565773D01*
X128965773Y-103440303D01*
X129113311Y-103341721D01*
X129277246Y-103273817D01*
X129451279Y-103239200D01*
X129628721Y-103239200D01*
X129802754Y-103273817D01*
G37*
G36*
X175522754Y-103273817D02*
G01*
X175686689Y-103341721D01*
X175834227Y-103440303D01*
X175959697Y-103565773D01*
X176058279Y-103713311D01*
X176126183Y-103877246D01*
X176160800Y-104051279D01*
X176160800Y-104228721D01*
X176126183Y-104402754D01*
X176058279Y-104566689D01*
X175959697Y-104714227D01*
X175834227Y-104839697D01*
X175686689Y-104938279D01*
X175522754Y-105006183D01*
X175348721Y-105040800D01*
X175171279Y-105040800D01*
X174997246Y-105006183D01*
X174833311Y-104938279D01*
X174685773Y-104839697D01*
X174560303Y-104714227D01*
X174461721Y-104566689D01*
X174393817Y-104402754D01*
X174359200Y-104228721D01*
X174359200Y-104051279D01*
X174393817Y-103877246D01*
X174461721Y-103713311D01*
X174560303Y-103565773D01*
X174685773Y-103440303D01*
X174833311Y-103341721D01*
X174997246Y-103273817D01*
X175171279Y-103239200D01*
X175348721Y-103239200D01*
X175522754Y-103273817D01*
G37*
G36*
X132342754Y-100733817D02*
G01*
X132506689Y-100801721D01*
X132654227Y-100900303D01*
X132779697Y-101025773D01*
X132878279Y-101173311D01*
X132946183Y-101337246D01*
X132980800Y-101511279D01*
X132980800Y-101688721D01*
X132946183Y-101862754D01*
X132878279Y-102026689D01*
X132779697Y-102174227D01*
X132654227Y-102299697D01*
X132506689Y-102398279D01*
X132342754Y-102466183D01*
X132168721Y-102500800D01*
X131991279Y-102500800D01*
X131817246Y-102466183D01*
X131653311Y-102398279D01*
X131505773Y-102299697D01*
X131380303Y-102174227D01*
X131281721Y-102026689D01*
X131213817Y-101862754D01*
X131179200Y-101688721D01*
X131179200Y-101511279D01*
X131213817Y-101337246D01*
X131281721Y-101173311D01*
X131380303Y-101025773D01*
X131505773Y-100900303D01*
X131653311Y-100801721D01*
X131817246Y-100733817D01*
X131991279Y-100699200D01*
X132168721Y-100699200D01*
X132342754Y-100733817D01*
G37*
G36*
X129802754Y-100733817D02*
G01*
X129966689Y-100801721D01*
X130114227Y-100900303D01*
X130239697Y-101025773D01*
X130338279Y-101173311D01*
X130406183Y-101337246D01*
X130440800Y-101511279D01*
X130440800Y-101688721D01*
X130406183Y-101862754D01*
X130338279Y-102026689D01*
X130239697Y-102174227D01*
X130114227Y-102299697D01*
X129966689Y-102398279D01*
X129802754Y-102466183D01*
X129628721Y-102500800D01*
X129451279Y-102500800D01*
X129277246Y-102466183D01*
X129113311Y-102398279D01*
X128965773Y-102299697D01*
X128840303Y-102174227D01*
X128741721Y-102026689D01*
X128673817Y-101862754D01*
X128639200Y-101688721D01*
X128639200Y-101511279D01*
X128673817Y-101337246D01*
X128741721Y-101173311D01*
X128840303Y-101025773D01*
X128965773Y-100900303D01*
X129113311Y-100801721D01*
X129277246Y-100733817D01*
X129451279Y-100699200D01*
X129628721Y-100699200D01*
X129802754Y-100733817D01*
G37*
G36*
X175522754Y-100733817D02*
G01*
X175686689Y-100801721D01*
X175834227Y-100900303D01*
X175959697Y-101025773D01*
X176058279Y-101173311D01*
X176126183Y-101337246D01*
X176160800Y-101511279D01*
X176160800Y-101688721D01*
X176126183Y-101862754D01*
X176058279Y-102026689D01*
X175959697Y-102174227D01*
X175834227Y-102299697D01*
X175686689Y-102398279D01*
X175522754Y-102466183D01*
X175348721Y-102500800D01*
X175171279Y-102500800D01*
X174997246Y-102466183D01*
X174833311Y-102398279D01*
X174685773Y-102299697D01*
X174560303Y-102174227D01*
X174461721Y-102026689D01*
X174393817Y-101862754D01*
X174359200Y-101688721D01*
X174359200Y-101511279D01*
X174393817Y-101337246D01*
X174461721Y-101173311D01*
X174560303Y-101025773D01*
X174685773Y-100900303D01*
X174833311Y-100801721D01*
X174997246Y-100733817D01*
X175171279Y-100699200D01*
X175348721Y-100699200D01*
X175522754Y-100733817D01*
G37*
G36*
X178062754Y-100733817D02*
G01*
X178226689Y-100801721D01*
X178374227Y-100900303D01*
X178499697Y-101025773D01*
X178598279Y-101173311D01*
X178666183Y-101337246D01*
X178700800Y-101511279D01*
X178700800Y-101688721D01*
X178666183Y-101862754D01*
X178598279Y-102026689D01*
X178499697Y-102174227D01*
X178374227Y-102299697D01*
X178226689Y-102398279D01*
X178062754Y-102466183D01*
X177888721Y-102500800D01*
X177711279Y-102500800D01*
X177537246Y-102466183D01*
X177373311Y-102398279D01*
X177225773Y-102299697D01*
X177100303Y-102174227D01*
X177001721Y-102026689D01*
X176933817Y-101862754D01*
X176899200Y-101688721D01*
X176899200Y-101511279D01*
X176933817Y-101337246D01*
X177001721Y-101173311D01*
X177100303Y-101025773D01*
X177225773Y-100900303D01*
X177373311Y-100801721D01*
X177537246Y-100733817D01*
X177711279Y-100699200D01*
X177888721Y-100699200D01*
X178062754Y-100733817D01*
G37*
G36*
X129802754Y-98193817D02*
G01*
X129966689Y-98261721D01*
X130114227Y-98360303D01*
X130239697Y-98485773D01*
X130338279Y-98633311D01*
X130406183Y-98797246D01*
X130440800Y-98971279D01*
X130440800Y-99148721D01*
X130406183Y-99322754D01*
X130338279Y-99486689D01*
X130239697Y-99634227D01*
X130114227Y-99759697D01*
X129966689Y-99858279D01*
X129802754Y-99926183D01*
X129628721Y-99960800D01*
X129451279Y-99960800D01*
X129277246Y-99926183D01*
X129113311Y-99858279D01*
X128965773Y-99759697D01*
X128840303Y-99634227D01*
X128741721Y-99486689D01*
X128673817Y-99322754D01*
X128639200Y-99148721D01*
X128639200Y-98971279D01*
X128673817Y-98797246D01*
X128741721Y-98633311D01*
X128840303Y-98485773D01*
X128965773Y-98360303D01*
X129113311Y-98261721D01*
X129277246Y-98193817D01*
X129451279Y-98159200D01*
X129628721Y-98159200D01*
X129802754Y-98193817D01*
G37*
G36*
X175522754Y-98193817D02*
G01*
X175686689Y-98261721D01*
X175834227Y-98360303D01*
X175959697Y-98485773D01*
X176058279Y-98633311D01*
X176126183Y-98797246D01*
X176160800Y-98971279D01*
X176160800Y-99148721D01*
X176126183Y-99322754D01*
X176058279Y-99486689D01*
X175959697Y-99634227D01*
X175834227Y-99759697D01*
X175686689Y-99858279D01*
X175522754Y-99926183D01*
X175348721Y-99960800D01*
X175171279Y-99960800D01*
X174997246Y-99926183D01*
X174833311Y-99858279D01*
X174685773Y-99759697D01*
X174560303Y-99634227D01*
X174461721Y-99486689D01*
X174393817Y-99322754D01*
X174359200Y-99148721D01*
X174359200Y-98971279D01*
X174393817Y-98797246D01*
X174461721Y-98633311D01*
X174560303Y-98485773D01*
X174685773Y-98360303D01*
X174833311Y-98261721D01*
X174997246Y-98193817D01*
X175171279Y-98159200D01*
X175348721Y-98159200D01*
X175522754Y-98193817D01*
G37*
G36*
X178062754Y-98193817D02*
G01*
X178226689Y-98261721D01*
X178374227Y-98360303D01*
X178499697Y-98485773D01*
X178598279Y-98633311D01*
X178666183Y-98797246D01*
X178700800Y-98971279D01*
X178700800Y-99148721D01*
X178666183Y-99322754D01*
X178598279Y-99486689D01*
X178499697Y-99634227D01*
X178374227Y-99759697D01*
X178226689Y-99858279D01*
X178062754Y-99926183D01*
X177888721Y-99960800D01*
X177711279Y-99960800D01*
X177537246Y-99926183D01*
X177373311Y-99858279D01*
X177225773Y-99759697D01*
X177100303Y-99634227D01*
X177001721Y-99486689D01*
X176933817Y-99322754D01*
X176899200Y-99148721D01*
X176899200Y-98971279D01*
X176933817Y-98797246D01*
X177001721Y-98633311D01*
X177100303Y-98485773D01*
X177225773Y-98360303D01*
X177373311Y-98261721D01*
X177537246Y-98193817D01*
X177711279Y-98159200D01*
X177888721Y-98159200D01*
X178062754Y-98193817D01*
G37*
G36*
X132342754Y-98193817D02*
G01*
X132506689Y-98261721D01*
X132654227Y-98360303D01*
X132779697Y-98485773D01*
X132878279Y-98633311D01*
X132946183Y-98797246D01*
X132980800Y-98971279D01*
X132980800Y-99148721D01*
X132946183Y-99322754D01*
X132878279Y-99486689D01*
X132779697Y-99634227D01*
X132654227Y-99759697D01*
X132506689Y-99858279D01*
X132342754Y-99926183D01*
X132168721Y-99960800D01*
X131991279Y-99960800D01*
X131817246Y-99926183D01*
X131653311Y-99858279D01*
X131505773Y-99759697D01*
X131380303Y-99634227D01*
X131281721Y-99486689D01*
X131213817Y-99322754D01*
X131179200Y-99148721D01*
X131179200Y-98971279D01*
X131213817Y-98797246D01*
X131281721Y-98633311D01*
X131380303Y-98485773D01*
X131505773Y-98360303D01*
X131653311Y-98261721D01*
X131817246Y-98193817D01*
X131991279Y-98159200D01*
X132168721Y-98159200D01*
X132342754Y-98193817D01*
G37*
G36*
X175522754Y-95653817D02*
G01*
X175686689Y-95721721D01*
X175834227Y-95820303D01*
X175959697Y-95945773D01*
X176058279Y-96093311D01*
X176126183Y-96257246D01*
X176160800Y-96431279D01*
X176160800Y-96608721D01*
X176126183Y-96782754D01*
X176058279Y-96946689D01*
X175959697Y-97094227D01*
X175834227Y-97219697D01*
X175686689Y-97318279D01*
X175522754Y-97386183D01*
X175348721Y-97420800D01*
X175171279Y-97420800D01*
X174997246Y-97386183D01*
X174833311Y-97318279D01*
X174685773Y-97219697D01*
X174560303Y-97094227D01*
X174461721Y-96946689D01*
X174393817Y-96782754D01*
X174359200Y-96608721D01*
X174359200Y-96431279D01*
X174393817Y-96257246D01*
X174461721Y-96093311D01*
X174560303Y-95945773D01*
X174685773Y-95820303D01*
X174833311Y-95721721D01*
X174997246Y-95653817D01*
X175171279Y-95619200D01*
X175348721Y-95619200D01*
X175522754Y-95653817D01*
G37*
G36*
X129802754Y-95653817D02*
G01*
X129966689Y-95721721D01*
X130114227Y-95820303D01*
X130239697Y-95945773D01*
X130338279Y-96093311D01*
X130406183Y-96257246D01*
X130440800Y-96431279D01*
X130440800Y-96608721D01*
X130406183Y-96782754D01*
X130338279Y-96946689D01*
X130239697Y-97094227D01*
X130114227Y-97219697D01*
X129966689Y-97318279D01*
X129802754Y-97386183D01*
X129628721Y-97420800D01*
X129451279Y-97420800D01*
X129277246Y-97386183D01*
X129113311Y-97318279D01*
X128965773Y-97219697D01*
X128840303Y-97094227D01*
X128741721Y-96946689D01*
X128673817Y-96782754D01*
X128639200Y-96608721D01*
X128639200Y-96431279D01*
X128673817Y-96257246D01*
X128741721Y-96093311D01*
X128840303Y-95945773D01*
X128965773Y-95820303D01*
X129113311Y-95721721D01*
X129277246Y-95653817D01*
X129451279Y-95619200D01*
X129628721Y-95619200D01*
X129802754Y-95653817D01*
G37*
G36*
X132342754Y-95653817D02*
G01*
X132506689Y-95721721D01*
X132654227Y-95820303D01*
X132779697Y-95945773D01*
X132878279Y-96093311D01*
X132946183Y-96257246D01*
X132980800Y-96431279D01*
X132980800Y-96608721D01*
X132946183Y-96782754D01*
X132878279Y-96946689D01*
X132779697Y-97094227D01*
X132654227Y-97219697D01*
X132506689Y-97318279D01*
X132342754Y-97386183D01*
X132168721Y-97420800D01*
X131991279Y-97420800D01*
X131817246Y-97386183D01*
X131653311Y-97318279D01*
X131505773Y-97219697D01*
X131380303Y-97094227D01*
X131281721Y-96946689D01*
X131213817Y-96782754D01*
X131179200Y-96608721D01*
X131179200Y-96431279D01*
X131213817Y-96257246D01*
X131281721Y-96093311D01*
X131380303Y-95945773D01*
X131505773Y-95820303D01*
X131653311Y-95721721D01*
X131817246Y-95653817D01*
X131991279Y-95619200D01*
X132168721Y-95619200D01*
X132342754Y-95653817D01*
G37*
G36*
X178062754Y-95653817D02*
G01*
X178226689Y-95721721D01*
X178374227Y-95820303D01*
X178499697Y-95945773D01*
X178598279Y-96093311D01*
X178666183Y-96257246D01*
X178700800Y-96431279D01*
X178700800Y-96608721D01*
X178666183Y-96782754D01*
X178598279Y-96946689D01*
X178499697Y-97094227D01*
X178374227Y-97219697D01*
X178226689Y-97318279D01*
X178062754Y-97386183D01*
X177888721Y-97420800D01*
X177711279Y-97420800D01*
X177537246Y-97386183D01*
X177373311Y-97318279D01*
X177225773Y-97219697D01*
X177100303Y-97094227D01*
X177001721Y-96946689D01*
X176933817Y-96782754D01*
X176899200Y-96608721D01*
X176899200Y-96431279D01*
X176933817Y-96257246D01*
X177001721Y-96093311D01*
X177100303Y-95945773D01*
X177225773Y-95820303D01*
X177373311Y-95721721D01*
X177537246Y-95653817D01*
X177711279Y-95619200D01*
X177888721Y-95619200D01*
X178062754Y-95653817D01*
G37*
G36*
X178062754Y-93113817D02*
G01*
X178226689Y-93181721D01*
X178374227Y-93280303D01*
X178499697Y-93405773D01*
X178598279Y-93553311D01*
X178666183Y-93717246D01*
X178700800Y-93891279D01*
X178700800Y-94068721D01*
X178666183Y-94242754D01*
X178598279Y-94406689D01*
X178499697Y-94554227D01*
X178374227Y-94679697D01*
X178226689Y-94778279D01*
X178062754Y-94846183D01*
X177888721Y-94880800D01*
X177711279Y-94880800D01*
X177537246Y-94846183D01*
X177373311Y-94778279D01*
X177225773Y-94679697D01*
X177100303Y-94554227D01*
X177001721Y-94406689D01*
X176933817Y-94242754D01*
X176899200Y-94068721D01*
X176899200Y-93891279D01*
X176933817Y-93717246D01*
X177001721Y-93553311D01*
X177100303Y-93405773D01*
X177225773Y-93280303D01*
X177373311Y-93181721D01*
X177537246Y-93113817D01*
X177711279Y-93079200D01*
X177888721Y-93079200D01*
X178062754Y-93113817D01*
G37*
G36*
X175522754Y-93113817D02*
G01*
X175686689Y-93181721D01*
X175834227Y-93280303D01*
X175959697Y-93405773D01*
X176058279Y-93553311D01*
X176126183Y-93717246D01*
X176160800Y-93891279D01*
X176160800Y-94068721D01*
X176126183Y-94242754D01*
X176058279Y-94406689D01*
X175959697Y-94554227D01*
X175834227Y-94679697D01*
X175686689Y-94778279D01*
X175522754Y-94846183D01*
X175348721Y-94880800D01*
X175171279Y-94880800D01*
X174997246Y-94846183D01*
X174833311Y-94778279D01*
X174685773Y-94679697D01*
X174560303Y-94554227D01*
X174461721Y-94406689D01*
X174393817Y-94242754D01*
X174359200Y-94068721D01*
X174359200Y-93891279D01*
X174393817Y-93717246D01*
X174461721Y-93553311D01*
X174560303Y-93405773D01*
X174685773Y-93280303D01*
X174833311Y-93181721D01*
X174997246Y-93113817D01*
X175171279Y-93079200D01*
X175348721Y-93079200D01*
X175522754Y-93113817D01*
G37*
G36*
X132342754Y-93113817D02*
G01*
X132506689Y-93181721D01*
X132654227Y-93280303D01*
X132779697Y-93405773D01*
X132878279Y-93553311D01*
X132946183Y-93717246D01*
X132980800Y-93891279D01*
X132980800Y-94068721D01*
X132946183Y-94242754D01*
X132878279Y-94406689D01*
X132779697Y-94554227D01*
X132654227Y-94679697D01*
X132506689Y-94778279D01*
X132342754Y-94846183D01*
X132168721Y-94880800D01*
X131991279Y-94880800D01*
X131817246Y-94846183D01*
X131653311Y-94778279D01*
X131505773Y-94679697D01*
X131380303Y-94554227D01*
X131281721Y-94406689D01*
X131213817Y-94242754D01*
X131179200Y-94068721D01*
X131179200Y-93891279D01*
X131213817Y-93717246D01*
X131281721Y-93553311D01*
X131380303Y-93405773D01*
X131505773Y-93280303D01*
X131653311Y-93181721D01*
X131817246Y-93113817D01*
X131991279Y-93079200D01*
X132168721Y-93079200D01*
X132342754Y-93113817D01*
G37*
G36*
X129802754Y-93113817D02*
G01*
X129966689Y-93181721D01*
X130114227Y-93280303D01*
X130239697Y-93405773D01*
X130338279Y-93553311D01*
X130406183Y-93717246D01*
X130440800Y-93891279D01*
X130440800Y-94068721D01*
X130406183Y-94242754D01*
X130338279Y-94406689D01*
X130239697Y-94554227D01*
X130114227Y-94679697D01*
X129966689Y-94778279D01*
X129802754Y-94846183D01*
X129628721Y-94880800D01*
X129451279Y-94880800D01*
X129277246Y-94846183D01*
X129113311Y-94778279D01*
X128965773Y-94679697D01*
X128840303Y-94554227D01*
X128741721Y-94406689D01*
X128673817Y-94242754D01*
X128639200Y-94068721D01*
X128639200Y-93891279D01*
X128673817Y-93717246D01*
X128741721Y-93553311D01*
X128840303Y-93405773D01*
X128965773Y-93280303D01*
X129113311Y-93181721D01*
X129277246Y-93113817D01*
X129451279Y-93079200D01*
X129628721Y-93079200D01*
X129802754Y-93113817D01*
G37*
G36*
X178062754Y-90573817D02*
G01*
X178226689Y-90641721D01*
X178374227Y-90740303D01*
X178499697Y-90865773D01*
X178598279Y-91013311D01*
X178666183Y-91177246D01*
X178700800Y-91351279D01*
X178700800Y-91528721D01*
X178666183Y-91702754D01*
X178598279Y-91866689D01*
X178499697Y-92014227D01*
X178374227Y-92139697D01*
X178226689Y-92238279D01*
X178062754Y-92306183D01*
X177888721Y-92340800D01*
X177711279Y-92340800D01*
X177537246Y-92306183D01*
X177373311Y-92238279D01*
X177225773Y-92139697D01*
X177100303Y-92014227D01*
X177001721Y-91866689D01*
X176933817Y-91702754D01*
X176899200Y-91528721D01*
X176899200Y-91351279D01*
X176933817Y-91177246D01*
X177001721Y-91013311D01*
X177100303Y-90865773D01*
X177225773Y-90740303D01*
X177373311Y-90641721D01*
X177537246Y-90573817D01*
X177711279Y-90539200D01*
X177888721Y-90539200D01*
X178062754Y-90573817D01*
G37*
G36*
X175522754Y-90573817D02*
G01*
X175686689Y-90641721D01*
X175834227Y-90740303D01*
X175959697Y-90865773D01*
X176058279Y-91013311D01*
X176126183Y-91177246D01*
X176160800Y-91351279D01*
X176160800Y-91528721D01*
X176126183Y-91702754D01*
X176058279Y-91866689D01*
X175959697Y-92014227D01*
X175834227Y-92139697D01*
X175686689Y-92238279D01*
X175522754Y-92306183D01*
X175348721Y-92340800D01*
X175171279Y-92340800D01*
X174997246Y-92306183D01*
X174833311Y-92238279D01*
X174685773Y-92139697D01*
X174560303Y-92014227D01*
X174461721Y-91866689D01*
X174393817Y-91702754D01*
X174359200Y-91528721D01*
X174359200Y-91351279D01*
X174393817Y-91177246D01*
X174461721Y-91013311D01*
X174560303Y-90865773D01*
X174685773Y-90740303D01*
X174833311Y-90641721D01*
X174997246Y-90573817D01*
X175171279Y-90539200D01*
X175348721Y-90539200D01*
X175522754Y-90573817D01*
G37*
G36*
X132342754Y-90573817D02*
G01*
X132506689Y-90641721D01*
X132654227Y-90740303D01*
X132779697Y-90865773D01*
X132878279Y-91013311D01*
X132946183Y-91177246D01*
X132980800Y-91351279D01*
X132980800Y-91528721D01*
X132946183Y-91702754D01*
X132878279Y-91866689D01*
X132779697Y-92014227D01*
X132654227Y-92139697D01*
X132506689Y-92238279D01*
X132342754Y-92306183D01*
X132168721Y-92340800D01*
X131991279Y-92340800D01*
X131817246Y-92306183D01*
X131653311Y-92238279D01*
X131505773Y-92139697D01*
X131380303Y-92014227D01*
X131281721Y-91866689D01*
X131213817Y-91702754D01*
X131179200Y-91528721D01*
X131179200Y-91351279D01*
X131213817Y-91177246D01*
X131281721Y-91013311D01*
X131380303Y-90865773D01*
X131505773Y-90740303D01*
X131653311Y-90641721D01*
X131817246Y-90573817D01*
X131991279Y-90539200D01*
X132168721Y-90539200D01*
X132342754Y-90573817D01*
G37*
G36*
X129802754Y-90573817D02*
G01*
X129966689Y-90641721D01*
X130114227Y-90740303D01*
X130239697Y-90865773D01*
X130338279Y-91013311D01*
X130406183Y-91177246D01*
X130440800Y-91351279D01*
X130440800Y-91528721D01*
X130406183Y-91702754D01*
X130338279Y-91866689D01*
X130239697Y-92014227D01*
X130114227Y-92139697D01*
X129966689Y-92238279D01*
X129802754Y-92306183D01*
X129628721Y-92340800D01*
X129451279Y-92340800D01*
X129277246Y-92306183D01*
X129113311Y-92238279D01*
X128965773Y-92139697D01*
X128840303Y-92014227D01*
X128741721Y-91866689D01*
X128673817Y-91702754D01*
X128639200Y-91528721D01*
X128639200Y-91351279D01*
X128673817Y-91177246D01*
X128741721Y-91013311D01*
X128840303Y-90865773D01*
X128965773Y-90740303D01*
X129113311Y-90641721D01*
X129277246Y-90573817D01*
X129451279Y-90539200D01*
X129628721Y-90539200D01*
X129802754Y-90573817D01*
G37*
G36*
X178062754Y-88033817D02*
G01*
X178226689Y-88101721D01*
X178374227Y-88200303D01*
X178499697Y-88325773D01*
X178598279Y-88473311D01*
X178666183Y-88637246D01*
X178700800Y-88811279D01*
X178700800Y-88988721D01*
X178666183Y-89162754D01*
X178598279Y-89326689D01*
X178499697Y-89474227D01*
X178374227Y-89599697D01*
X178226689Y-89698279D01*
X178062754Y-89766183D01*
X177888721Y-89800800D01*
X177711279Y-89800800D01*
X177537246Y-89766183D01*
X177373311Y-89698279D01*
X177225773Y-89599697D01*
X177100303Y-89474227D01*
X177001721Y-89326689D01*
X176933817Y-89162754D01*
X176899200Y-88988721D01*
X176899200Y-88811279D01*
X176933817Y-88637246D01*
X177001721Y-88473311D01*
X177100303Y-88325773D01*
X177225773Y-88200303D01*
X177373311Y-88101721D01*
X177537246Y-88033817D01*
X177711279Y-87999200D01*
X177888721Y-87999200D01*
X178062754Y-88033817D01*
G37*
G36*
X175522754Y-88033817D02*
G01*
X175686689Y-88101721D01*
X175834227Y-88200303D01*
X175959697Y-88325773D01*
X176058279Y-88473311D01*
X176126183Y-88637246D01*
X176160800Y-88811279D01*
X176160800Y-88988721D01*
X176126183Y-89162754D01*
X176058279Y-89326689D01*
X175959697Y-89474227D01*
X175834227Y-89599697D01*
X175686689Y-89698279D01*
X175522754Y-89766183D01*
X175348721Y-89800800D01*
X175171279Y-89800800D01*
X174997246Y-89766183D01*
X174833311Y-89698279D01*
X174685773Y-89599697D01*
X174560303Y-89474227D01*
X174461721Y-89326689D01*
X174393817Y-89162754D01*
X174359200Y-88988721D01*
X174359200Y-88811279D01*
X174393817Y-88637246D01*
X174461721Y-88473311D01*
X174560303Y-88325773D01*
X174685773Y-88200303D01*
X174833311Y-88101721D01*
X174997246Y-88033817D01*
X175171279Y-87999200D01*
X175348721Y-87999200D01*
X175522754Y-88033817D01*
G37*
G36*
X130440800Y-89800800D02*
G01*
X128639200Y-89800800D01*
X128639200Y-87999200D01*
X130440800Y-87999200D01*
X130440800Y-89800800D01*
G37*
G36*
X132342754Y-88033817D02*
G01*
X132506689Y-88101721D01*
X132654227Y-88200303D01*
X132779697Y-88325773D01*
X132878279Y-88473311D01*
X132946183Y-88637246D01*
X132980800Y-88811279D01*
X132980800Y-88988721D01*
X132946183Y-89162754D01*
X132878279Y-89326689D01*
X132779697Y-89474227D01*
X132654227Y-89599697D01*
X132506689Y-89698279D01*
X132342754Y-89766183D01*
X132168721Y-89800800D01*
X131991279Y-89800800D01*
X131817246Y-89766183D01*
X131653311Y-89698279D01*
X131505773Y-89599697D01*
X131380303Y-89474227D01*
X131281721Y-89326689D01*
X131213817Y-89162754D01*
X131179200Y-88988721D01*
X131179200Y-88811279D01*
X131213817Y-88637246D01*
X131281721Y-88473311D01*
X131380303Y-88325773D01*
X131505773Y-88200303D01*
X131653311Y-88101721D01*
X131817246Y-88033817D01*
X131991279Y-87999200D01*
X132168721Y-87999200D01*
X132342754Y-88033817D01*
G37*
G36*
X175522754Y-85493817D02*
G01*
X175686689Y-85561721D01*
X175834227Y-85660303D01*
X175959697Y-85785773D01*
X176058279Y-85933311D01*
X176126183Y-86097246D01*
X176160800Y-86271279D01*
X176160800Y-86448721D01*
X176126183Y-86622754D01*
X176058279Y-86786689D01*
X175959697Y-86934227D01*
X175834227Y-87059697D01*
X175686689Y-87158279D01*
X175522754Y-87226183D01*
X175348721Y-87260800D01*
X175171279Y-87260800D01*
X174997246Y-87226183D01*
X174833311Y-87158279D01*
X174685773Y-87059697D01*
X174560303Y-86934227D01*
X174461721Y-86786689D01*
X174393817Y-86622754D01*
X174359200Y-86448721D01*
X174359200Y-86271279D01*
X174393817Y-86097246D01*
X174461721Y-85933311D01*
X174560303Y-85785773D01*
X174685773Y-85660303D01*
X174833311Y-85561721D01*
X174997246Y-85493817D01*
X175171279Y-85459200D01*
X175348721Y-85459200D01*
X175522754Y-85493817D01*
G37*
G36*
X178062754Y-85493817D02*
G01*
X178226689Y-85561721D01*
X178374227Y-85660303D01*
X178499697Y-85785773D01*
X178598279Y-85933311D01*
X178666183Y-86097246D01*
X178700800Y-86271279D01*
X178700800Y-86448721D01*
X178666183Y-86622754D01*
X178598279Y-86786689D01*
X178499697Y-86934227D01*
X178374227Y-87059697D01*
X178226689Y-87158279D01*
X178062754Y-87226183D01*
X177888721Y-87260800D01*
X177711279Y-87260800D01*
X177537246Y-87226183D01*
X177373311Y-87158279D01*
X177225773Y-87059697D01*
X177100303Y-86934227D01*
X177001721Y-86786689D01*
X176933817Y-86622754D01*
X176899200Y-86448721D01*
X176899200Y-86271279D01*
X176933817Y-86097246D01*
X177001721Y-85933311D01*
X177100303Y-85785773D01*
X177225773Y-85660303D01*
X177373311Y-85561721D01*
X177537246Y-85493817D01*
X177711279Y-85459200D01*
X177888721Y-85459200D01*
X178062754Y-85493817D01*
G37*
G36*
X132342754Y-82953817D02*
G01*
X132506689Y-83021721D01*
X132654227Y-83120303D01*
X132779697Y-83245773D01*
X132878279Y-83393311D01*
X132946183Y-83557246D01*
X132980800Y-83731279D01*
X132980800Y-83908721D01*
X132946183Y-84082754D01*
X132878279Y-84246689D01*
X132779697Y-84394227D01*
X132654227Y-84519697D01*
X132506689Y-84618279D01*
X132342754Y-84686183D01*
X132168721Y-84720800D01*
X131991279Y-84720800D01*
X131817246Y-84686183D01*
X131653311Y-84618279D01*
X131505773Y-84519697D01*
X131380303Y-84394227D01*
X131281721Y-84246689D01*
X131213817Y-84082754D01*
X131179200Y-83908721D01*
X131179200Y-83731279D01*
X131213817Y-83557246D01*
X131281721Y-83393311D01*
X131380303Y-83245773D01*
X131505773Y-83120303D01*
X131653311Y-83021721D01*
X131817246Y-82953817D01*
X131991279Y-82919200D01*
X132168721Y-82919200D01*
X132342754Y-82953817D01*
G37*
G36*
X178062754Y-82953817D02*
G01*
X178226689Y-83021721D01*
X178374227Y-83120303D01*
X178499697Y-83245773D01*
X178598279Y-83393311D01*
X178666183Y-83557246D01*
X178700800Y-83731279D01*
X178700800Y-83908721D01*
X178666183Y-84082754D01*
X178598279Y-84246689D01*
X178499697Y-84394227D01*
X178374227Y-84519697D01*
X178226689Y-84618279D01*
X178062754Y-84686183D01*
X177888721Y-84720800D01*
X177711279Y-84720800D01*
X177537246Y-84686183D01*
X177373311Y-84618279D01*
X177225773Y-84519697D01*
X177100303Y-84394227D01*
X177001721Y-84246689D01*
X176933817Y-84082754D01*
X176899200Y-83908721D01*
X176899200Y-83731279D01*
X176933817Y-83557246D01*
X177001721Y-83393311D01*
X177100303Y-83245773D01*
X177225773Y-83120303D01*
X177373311Y-83021721D01*
X177537246Y-82953817D01*
X177711279Y-82919200D01*
X177888721Y-82919200D01*
X178062754Y-82953817D01*
G37*
G36*
X176160800Y-84720800D02*
G01*
X174359200Y-84720800D01*
X174359200Y-82919200D01*
X176160800Y-82919200D01*
X176160800Y-84720800D01*
G37*
G36*
X129802754Y-82953817D02*
G01*
X129966689Y-83021721D01*
X130114227Y-83120303D01*
X130239697Y-83245773D01*
X130338279Y-83393311D01*
X130406183Y-83557246D01*
X130440800Y-83731279D01*
X130440800Y-83908721D01*
X130406183Y-84082754D01*
X130338279Y-84246689D01*
X130239697Y-84394227D01*
X130114227Y-84519697D01*
X129966689Y-84618279D01*
X129802754Y-84686183D01*
X129628721Y-84720800D01*
X129451279Y-84720800D01*
X129277246Y-84686183D01*
X129113311Y-84618279D01*
X128965773Y-84519697D01*
X128840303Y-84394227D01*
X128741721Y-84246689D01*
X128673817Y-84082754D01*
X128639200Y-83908721D01*
X128639200Y-83731279D01*
X128673817Y-83557246D01*
X128741721Y-83393311D01*
X128840303Y-83245773D01*
X128965773Y-83120303D01*
X129113311Y-83021721D01*
X129277246Y-82953817D01*
X129451279Y-82919200D01*
X129628721Y-82919200D01*
X129802754Y-82953817D01*
G37*
G36*
X129802754Y-80413817D02*
G01*
X129966689Y-80481721D01*
X130114227Y-80580303D01*
X130239697Y-80705773D01*
X130338279Y-80853311D01*
X130406183Y-81017246D01*
X130440800Y-81191279D01*
X130440800Y-81368721D01*
X130406183Y-81542754D01*
X130338279Y-81706689D01*
X130239697Y-81854227D01*
X130114227Y-81979697D01*
X129966689Y-82078279D01*
X129802754Y-82146183D01*
X129628721Y-82180800D01*
X129451279Y-82180800D01*
X129277246Y-82146183D01*
X129113311Y-82078279D01*
X128965773Y-81979697D01*
X128840303Y-81854227D01*
X128741721Y-81706689D01*
X128673817Y-81542754D01*
X128639200Y-81368721D01*
X128639200Y-81191279D01*
X128673817Y-81017246D01*
X128741721Y-80853311D01*
X128840303Y-80705773D01*
X128965773Y-80580303D01*
X129113311Y-80481721D01*
X129277246Y-80413817D01*
X129451279Y-80379200D01*
X129628721Y-80379200D01*
X129802754Y-80413817D01*
G37*
G36*
X132342754Y-80413817D02*
G01*
X132506689Y-80481721D01*
X132654227Y-80580303D01*
X132779697Y-80705773D01*
X132878279Y-80853311D01*
X132946183Y-81017246D01*
X132980800Y-81191279D01*
X132980800Y-81368721D01*
X132946183Y-81542754D01*
X132878279Y-81706689D01*
X132779697Y-81854227D01*
X132654227Y-81979697D01*
X132506689Y-82078279D01*
X132342754Y-82146183D01*
X132168721Y-82180800D01*
X131991279Y-82180800D01*
X131817246Y-82146183D01*
X131653311Y-82078279D01*
X131505773Y-81979697D01*
X131380303Y-81854227D01*
X131281721Y-81706689D01*
X131213817Y-81542754D01*
X131179200Y-81368721D01*
X131179200Y-81191279D01*
X131213817Y-81017246D01*
X131281721Y-80853311D01*
X131380303Y-80705773D01*
X131505773Y-80580303D01*
X131653311Y-80481721D01*
X131817246Y-80413817D01*
X131991279Y-80379200D01*
X132168721Y-80379200D01*
X132342754Y-80413817D01*
G37*
G36*
X178062754Y-78893817D02*
G01*
X178226689Y-78961721D01*
X178374227Y-79060303D01*
X178499697Y-79185773D01*
X178598279Y-79333311D01*
X178666183Y-79497246D01*
X178700800Y-79671279D01*
X178700800Y-79848721D01*
X178666183Y-80022754D01*
X178598279Y-80186689D01*
X178499697Y-80334227D01*
X178374227Y-80459697D01*
X178226689Y-80558279D01*
X178062754Y-80626183D01*
X177888721Y-80660800D01*
X177711279Y-80660800D01*
X177537246Y-80626183D01*
X177373311Y-80558279D01*
X177225773Y-80459697D01*
X177100303Y-80334227D01*
X177001721Y-80186689D01*
X176933817Y-80022754D01*
X176899200Y-79848721D01*
X176899200Y-79671279D01*
X176933817Y-79497246D01*
X177001721Y-79333311D01*
X177100303Y-79185773D01*
X177225773Y-79060303D01*
X177373311Y-78961721D01*
X177537246Y-78893817D01*
X177711279Y-78859200D01*
X177888721Y-78859200D01*
X178062754Y-78893817D01*
G37*
G36*
X175522754Y-78893817D02*
G01*
X175686689Y-78961721D01*
X175834227Y-79060303D01*
X175959697Y-79185773D01*
X176058279Y-79333311D01*
X176126183Y-79497246D01*
X176160800Y-79671279D01*
X176160800Y-79848721D01*
X176126183Y-80022754D01*
X176058279Y-80186689D01*
X175959697Y-80334227D01*
X175834227Y-80459697D01*
X175686689Y-80558279D01*
X175522754Y-80626183D01*
X175348721Y-80660800D01*
X175171279Y-80660800D01*
X174997246Y-80626183D01*
X174833311Y-80558279D01*
X174685773Y-80459697D01*
X174560303Y-80334227D01*
X174461721Y-80186689D01*
X174393817Y-80022754D01*
X174359200Y-79848721D01*
X174359200Y-79671279D01*
X174393817Y-79497246D01*
X174461721Y-79333311D01*
X174560303Y-79185773D01*
X174685773Y-79060303D01*
X174833311Y-78961721D01*
X174997246Y-78893817D01*
X175171279Y-78859200D01*
X175348721Y-78859200D01*
X175522754Y-78893817D01*
G37*
G36*
X129802754Y-77873817D02*
G01*
X129966689Y-77941721D01*
X130114227Y-78040303D01*
X130239697Y-78165773D01*
X130338279Y-78313311D01*
X130406183Y-78477246D01*
X130440800Y-78651279D01*
X130440800Y-78828721D01*
X130406183Y-79002754D01*
X130338279Y-79166689D01*
X130239697Y-79314227D01*
X130114227Y-79439697D01*
X129966689Y-79538279D01*
X129802754Y-79606183D01*
X129628721Y-79640800D01*
X129451279Y-79640800D01*
X129277246Y-79606183D01*
X129113311Y-79538279D01*
X128965773Y-79439697D01*
X128840303Y-79314227D01*
X128741721Y-79166689D01*
X128673817Y-79002754D01*
X128639200Y-78828721D01*
X128639200Y-78651279D01*
X128673817Y-78477246D01*
X128741721Y-78313311D01*
X128840303Y-78165773D01*
X128965773Y-78040303D01*
X129113311Y-77941721D01*
X129277246Y-77873817D01*
X129451279Y-77839200D01*
X129628721Y-77839200D01*
X129802754Y-77873817D01*
G37*
G36*
X132342754Y-77873817D02*
G01*
X132506689Y-77941721D01*
X132654227Y-78040303D01*
X132779697Y-78165773D01*
X132878279Y-78313311D01*
X132946183Y-78477246D01*
X132980800Y-78651279D01*
X132980800Y-78828721D01*
X132946183Y-79002754D01*
X132878279Y-79166689D01*
X132779697Y-79314227D01*
X132654227Y-79439697D01*
X132506689Y-79538279D01*
X132342754Y-79606183D01*
X132168721Y-79640800D01*
X131991279Y-79640800D01*
X131817246Y-79606183D01*
X131653311Y-79538279D01*
X131505773Y-79439697D01*
X131380303Y-79314227D01*
X131281721Y-79166689D01*
X131213817Y-79002754D01*
X131179200Y-78828721D01*
X131179200Y-78651279D01*
X131213817Y-78477246D01*
X131281721Y-78313311D01*
X131380303Y-78165773D01*
X131505773Y-78040303D01*
X131653311Y-77941721D01*
X131817246Y-77873817D01*
X131991279Y-77839200D01*
X132168721Y-77839200D01*
X132342754Y-77873817D01*
G37*
G36*
X175522754Y-76353817D02*
G01*
X175686689Y-76421721D01*
X175834227Y-76520303D01*
X175959697Y-76645773D01*
X176058279Y-76793311D01*
X176126183Y-76957246D01*
X176160800Y-77131279D01*
X176160800Y-77308721D01*
X176126183Y-77482754D01*
X176058279Y-77646689D01*
X175959697Y-77794227D01*
X175834227Y-77919697D01*
X175686689Y-78018279D01*
X175522754Y-78086183D01*
X175348721Y-78120800D01*
X175171279Y-78120800D01*
X174997246Y-78086183D01*
X174833311Y-78018279D01*
X174685773Y-77919697D01*
X174560303Y-77794227D01*
X174461721Y-77646689D01*
X174393817Y-77482754D01*
X174359200Y-77308721D01*
X174359200Y-77131279D01*
X174393817Y-76957246D01*
X174461721Y-76793311D01*
X174560303Y-76645773D01*
X174685773Y-76520303D01*
X174833311Y-76421721D01*
X174997246Y-76353817D01*
X175171279Y-76319200D01*
X175348721Y-76319200D01*
X175522754Y-76353817D01*
G37*
G36*
X178062754Y-76353817D02*
G01*
X178226689Y-76421721D01*
X178374227Y-76520303D01*
X178499697Y-76645773D01*
X178598279Y-76793311D01*
X178666183Y-76957246D01*
X178700800Y-77131279D01*
X178700800Y-77308721D01*
X178666183Y-77482754D01*
X178598279Y-77646689D01*
X178499697Y-77794227D01*
X178374227Y-77919697D01*
X178226689Y-78018279D01*
X178062754Y-78086183D01*
X177888721Y-78120800D01*
X177711279Y-78120800D01*
X177537246Y-78086183D01*
X177373311Y-78018279D01*
X177225773Y-77919697D01*
X177100303Y-77794227D01*
X177001721Y-77646689D01*
X176933817Y-77482754D01*
X176899200Y-77308721D01*
X176899200Y-77131279D01*
X176933817Y-76957246D01*
X177001721Y-76793311D01*
X177100303Y-76645773D01*
X177225773Y-76520303D01*
X177373311Y-76421721D01*
X177537246Y-76353817D01*
X177711279Y-76319200D01*
X177888721Y-76319200D01*
X178062754Y-76353817D01*
G37*
G36*
X132342754Y-75333817D02*
G01*
X132506689Y-75401721D01*
X132654227Y-75500303D01*
X132779697Y-75625773D01*
X132878279Y-75773311D01*
X132946183Y-75937246D01*
X132980800Y-76111279D01*
X132980800Y-76288721D01*
X132946183Y-76462754D01*
X132878279Y-76626689D01*
X132779697Y-76774227D01*
X132654227Y-76899697D01*
X132506689Y-76998279D01*
X132342754Y-77066183D01*
X132168721Y-77100800D01*
X131991279Y-77100800D01*
X131817246Y-77066183D01*
X131653311Y-76998279D01*
X131505773Y-76899697D01*
X131380303Y-76774227D01*
X131281721Y-76626689D01*
X131213817Y-76462754D01*
X131179200Y-76288721D01*
X131179200Y-76111279D01*
X131213817Y-75937246D01*
X131281721Y-75773311D01*
X131380303Y-75625773D01*
X131505773Y-75500303D01*
X131653311Y-75401721D01*
X131817246Y-75333817D01*
X131991279Y-75299200D01*
X132168721Y-75299200D01*
X132342754Y-75333817D01*
G37*
G36*
X129802754Y-75333817D02*
G01*
X129966689Y-75401721D01*
X130114227Y-75500303D01*
X130239697Y-75625773D01*
X130338279Y-75773311D01*
X130406183Y-75937246D01*
X130440800Y-76111279D01*
X130440800Y-76288721D01*
X130406183Y-76462754D01*
X130338279Y-76626689D01*
X130239697Y-76774227D01*
X130114227Y-76899697D01*
X129966689Y-76998279D01*
X129802754Y-77066183D01*
X129628721Y-77100800D01*
X129451279Y-77100800D01*
X129277246Y-77066183D01*
X129113311Y-76998279D01*
X128965773Y-76899697D01*
X128840303Y-76774227D01*
X128741721Y-76626689D01*
X128673817Y-76462754D01*
X128639200Y-76288721D01*
X128639200Y-76111279D01*
X128673817Y-75937246D01*
X128741721Y-75773311D01*
X128840303Y-75625773D01*
X128965773Y-75500303D01*
X129113311Y-75401721D01*
X129277246Y-75333817D01*
X129451279Y-75299200D01*
X129628721Y-75299200D01*
X129802754Y-75333817D01*
G37*
G36*
X175522754Y-73813817D02*
G01*
X175686689Y-73881721D01*
X175834227Y-73980303D01*
X175959697Y-74105773D01*
X176058279Y-74253311D01*
X176126183Y-74417246D01*
X176160800Y-74591279D01*
X176160800Y-74768721D01*
X176126183Y-74942754D01*
X176058279Y-75106689D01*
X175959697Y-75254227D01*
X175834227Y-75379697D01*
X175686689Y-75478279D01*
X175522754Y-75546183D01*
X175348721Y-75580800D01*
X175171279Y-75580800D01*
X174997246Y-75546183D01*
X174833311Y-75478279D01*
X174685773Y-75379697D01*
X174560303Y-75254227D01*
X174461721Y-75106689D01*
X174393817Y-74942754D01*
X174359200Y-74768721D01*
X174359200Y-74591279D01*
X174393817Y-74417246D01*
X174461721Y-74253311D01*
X174560303Y-74105773D01*
X174685773Y-73980303D01*
X174833311Y-73881721D01*
X174997246Y-73813817D01*
X175171279Y-73779200D01*
X175348721Y-73779200D01*
X175522754Y-73813817D01*
G37*
G36*
X178062754Y-73813817D02*
G01*
X178226689Y-73881721D01*
X178374227Y-73980303D01*
X178499697Y-74105773D01*
X178598279Y-74253311D01*
X178666183Y-74417246D01*
X178700800Y-74591279D01*
X178700800Y-74768721D01*
X178666183Y-74942754D01*
X178598279Y-75106689D01*
X178499697Y-75254227D01*
X178374227Y-75379697D01*
X178226689Y-75478279D01*
X178062754Y-75546183D01*
X177888721Y-75580800D01*
X177711279Y-75580800D01*
X177537246Y-75546183D01*
X177373311Y-75478279D01*
X177225773Y-75379697D01*
X177100303Y-75254227D01*
X177001721Y-75106689D01*
X176933817Y-74942754D01*
X176899200Y-74768721D01*
X176899200Y-74591279D01*
X176933817Y-74417246D01*
X177001721Y-74253311D01*
X177100303Y-74105773D01*
X177225773Y-73980303D01*
X177373311Y-73881721D01*
X177537246Y-73813817D01*
X177711279Y-73779200D01*
X177888721Y-73779200D01*
X178062754Y-73813817D01*
G37*
G36*
X132342754Y-72793817D02*
G01*
X132506689Y-72861721D01*
X132654227Y-72960303D01*
X132779697Y-73085773D01*
X132878279Y-73233311D01*
X132946183Y-73397246D01*
X132980800Y-73571279D01*
X132980800Y-73748721D01*
X132946183Y-73922754D01*
X132878279Y-74086689D01*
X132779697Y-74234227D01*
X132654227Y-74359697D01*
X132506689Y-74458279D01*
X132342754Y-74526183D01*
X132168721Y-74560800D01*
X131991279Y-74560800D01*
X131817246Y-74526183D01*
X131653311Y-74458279D01*
X131505773Y-74359697D01*
X131380303Y-74234227D01*
X131281721Y-74086689D01*
X131213817Y-73922754D01*
X131179200Y-73748721D01*
X131179200Y-73571279D01*
X131213817Y-73397246D01*
X131281721Y-73233311D01*
X131380303Y-73085773D01*
X131505773Y-72960303D01*
X131653311Y-72861721D01*
X131817246Y-72793817D01*
X131991279Y-72759200D01*
X132168721Y-72759200D01*
X132342754Y-72793817D01*
G37*
G36*
X129802754Y-72793817D02*
G01*
X129966689Y-72861721D01*
X130114227Y-72960303D01*
X130239697Y-73085773D01*
X130338279Y-73233311D01*
X130406183Y-73397246D01*
X130440800Y-73571279D01*
X130440800Y-73748721D01*
X130406183Y-73922754D01*
X130338279Y-74086689D01*
X130239697Y-74234227D01*
X130114227Y-74359697D01*
X129966689Y-74458279D01*
X129802754Y-74526183D01*
X129628721Y-74560800D01*
X129451279Y-74560800D01*
X129277246Y-74526183D01*
X129113311Y-74458279D01*
X128965773Y-74359697D01*
X128840303Y-74234227D01*
X128741721Y-74086689D01*
X128673817Y-73922754D01*
X128639200Y-73748721D01*
X128639200Y-73571279D01*
X128673817Y-73397246D01*
X128741721Y-73233311D01*
X128840303Y-73085773D01*
X128965773Y-72960303D01*
X129113311Y-72861721D01*
X129277246Y-72793817D01*
X129451279Y-72759200D01*
X129628721Y-72759200D01*
X129802754Y-72793817D01*
G37*
G36*
X178062754Y-71273817D02*
G01*
X178226689Y-71341721D01*
X178374227Y-71440303D01*
X178499697Y-71565773D01*
X178598279Y-71713311D01*
X178666183Y-71877246D01*
X178700800Y-72051279D01*
X178700800Y-72228721D01*
X178666183Y-72402754D01*
X178598279Y-72566689D01*
X178499697Y-72714227D01*
X178374227Y-72839697D01*
X178226689Y-72938279D01*
X178062754Y-73006183D01*
X177888721Y-73040800D01*
X177711279Y-73040800D01*
X177537246Y-73006183D01*
X177373311Y-72938279D01*
X177225773Y-72839697D01*
X177100303Y-72714227D01*
X177001721Y-72566689D01*
X176933817Y-72402754D01*
X176899200Y-72228721D01*
X176899200Y-72051279D01*
X176933817Y-71877246D01*
X177001721Y-71713311D01*
X177100303Y-71565773D01*
X177225773Y-71440303D01*
X177373311Y-71341721D01*
X177537246Y-71273817D01*
X177711279Y-71239200D01*
X177888721Y-71239200D01*
X178062754Y-71273817D01*
G37*
G36*
X175522754Y-71273817D02*
G01*
X175686689Y-71341721D01*
X175834227Y-71440303D01*
X175959697Y-71565773D01*
X176058279Y-71713311D01*
X176126183Y-71877246D01*
X176160800Y-72051279D01*
X176160800Y-72228721D01*
X176126183Y-72402754D01*
X176058279Y-72566689D01*
X175959697Y-72714227D01*
X175834227Y-72839697D01*
X175686689Y-72938279D01*
X175522754Y-73006183D01*
X175348721Y-73040800D01*
X175171279Y-73040800D01*
X174997246Y-73006183D01*
X174833311Y-72938279D01*
X174685773Y-72839697D01*
X174560303Y-72714227D01*
X174461721Y-72566689D01*
X174393817Y-72402754D01*
X174359200Y-72228721D01*
X174359200Y-72051279D01*
X174393817Y-71877246D01*
X174461721Y-71713311D01*
X174560303Y-71565773D01*
X174685773Y-71440303D01*
X174833311Y-71341721D01*
X174997246Y-71273817D01*
X175171279Y-71239200D01*
X175348721Y-71239200D01*
X175522754Y-71273817D01*
G37*
G36*
X166886754Y-70253817D02*
G01*
X167050689Y-70321721D01*
X167198227Y-70420303D01*
X167323697Y-70545773D01*
X167422279Y-70693311D01*
X167490183Y-70857246D01*
X167524800Y-71031279D01*
X167524800Y-71208721D01*
X167490183Y-71382754D01*
X167422279Y-71546689D01*
X167323697Y-71694227D01*
X167198227Y-71819697D01*
X167050689Y-71918279D01*
X166886754Y-71986183D01*
X166712721Y-72020800D01*
X166535279Y-72020800D01*
X166361246Y-71986183D01*
X166197311Y-71918279D01*
X166049773Y-71819697D01*
X165924303Y-71694227D01*
X165825721Y-71546689D01*
X165757817Y-71382754D01*
X165723200Y-71208721D01*
X165723200Y-71031279D01*
X165757817Y-70857246D01*
X165825721Y-70693311D01*
X165924303Y-70545773D01*
X166049773Y-70420303D01*
X166197311Y-70321721D01*
X166361246Y-70253817D01*
X166535279Y-70219200D01*
X166712721Y-70219200D01*
X166886754Y-70253817D01*
G37*
G36*
X152284800Y-72020800D02*
G01*
X150483200Y-72020800D01*
X150483200Y-70219200D01*
X152284800Y-70219200D01*
X152284800Y-72020800D01*
G37*
G36*
X156726754Y-70253817D02*
G01*
X156890689Y-70321721D01*
X157038227Y-70420303D01*
X157163697Y-70545773D01*
X157262279Y-70693311D01*
X157330183Y-70857246D01*
X157364800Y-71031279D01*
X157364800Y-71208721D01*
X157330183Y-71382754D01*
X157262279Y-71546689D01*
X157163697Y-71694227D01*
X157038227Y-71819697D01*
X156890689Y-71918279D01*
X156726754Y-71986183D01*
X156552721Y-72020800D01*
X156375279Y-72020800D01*
X156201246Y-71986183D01*
X156037311Y-71918279D01*
X155889773Y-71819697D01*
X155764303Y-71694227D01*
X155665721Y-71546689D01*
X155597817Y-71382754D01*
X155563200Y-71208721D01*
X155563200Y-71031279D01*
X155597817Y-70857246D01*
X155665721Y-70693311D01*
X155764303Y-70545773D01*
X155889773Y-70420303D01*
X156037311Y-70321721D01*
X156201246Y-70253817D01*
X156375279Y-70219200D01*
X156552721Y-70219200D01*
X156726754Y-70253817D01*
G37*
G36*
X169426754Y-70253817D02*
G01*
X169590689Y-70321721D01*
X169738227Y-70420303D01*
X169863697Y-70545773D01*
X169962279Y-70693311D01*
X170030183Y-70857246D01*
X170064800Y-71031279D01*
X170064800Y-71208721D01*
X170030183Y-71382754D01*
X169962279Y-71546689D01*
X169863697Y-71694227D01*
X169738227Y-71819697D01*
X169590689Y-71918279D01*
X169426754Y-71986183D01*
X169252721Y-72020800D01*
X169075279Y-72020800D01*
X168901246Y-71986183D01*
X168737311Y-71918279D01*
X168589773Y-71819697D01*
X168464303Y-71694227D01*
X168365721Y-71546689D01*
X168297817Y-71382754D01*
X168263200Y-71208721D01*
X168263200Y-71031279D01*
X168297817Y-70857246D01*
X168365721Y-70693311D01*
X168464303Y-70545773D01*
X168589773Y-70420303D01*
X168737311Y-70321721D01*
X168901246Y-70253817D01*
X169075279Y-70219200D01*
X169252721Y-70219200D01*
X169426754Y-70253817D01*
G37*
G36*
X154186754Y-70253817D02*
G01*
X154350689Y-70321721D01*
X154498227Y-70420303D01*
X154623697Y-70545773D01*
X154722279Y-70693311D01*
X154790183Y-70857246D01*
X154824800Y-71031279D01*
X154824800Y-71208721D01*
X154790183Y-71382754D01*
X154722279Y-71546689D01*
X154623697Y-71694227D01*
X154498227Y-71819697D01*
X154350689Y-71918279D01*
X154186754Y-71986183D01*
X154012721Y-72020800D01*
X153835279Y-72020800D01*
X153661246Y-71986183D01*
X153497311Y-71918279D01*
X153349773Y-71819697D01*
X153224303Y-71694227D01*
X153125721Y-71546689D01*
X153057817Y-71382754D01*
X153023200Y-71208721D01*
X153023200Y-71031279D01*
X153057817Y-70857246D01*
X153125721Y-70693311D01*
X153224303Y-70545773D01*
X153349773Y-70420303D01*
X153497311Y-70321721D01*
X153661246Y-70253817D01*
X153835279Y-70219200D01*
X154012721Y-70219200D01*
X154186754Y-70253817D01*
G37*
G36*
X164346754Y-70253817D02*
G01*
X164510689Y-70321721D01*
X164658227Y-70420303D01*
X164783697Y-70545773D01*
X164882279Y-70693311D01*
X164950183Y-70857246D01*
X164984800Y-71031279D01*
X164984800Y-71208721D01*
X164950183Y-71382754D01*
X164882279Y-71546689D01*
X164783697Y-71694227D01*
X164658227Y-71819697D01*
X164510689Y-71918279D01*
X164346754Y-71986183D01*
X164172721Y-72020800D01*
X163995279Y-72020800D01*
X163821246Y-71986183D01*
X163657311Y-71918279D01*
X163509773Y-71819697D01*
X163384303Y-71694227D01*
X163285721Y-71546689D01*
X163217817Y-71382754D01*
X163183200Y-71208721D01*
X163183200Y-71031279D01*
X163217817Y-70857246D01*
X163285721Y-70693311D01*
X163384303Y-70545773D01*
X163509773Y-70420303D01*
X163657311Y-70321721D01*
X163821246Y-70253817D01*
X163995279Y-70219200D01*
X164172721Y-70219200D01*
X164346754Y-70253817D01*
G37*
G36*
X159266754Y-70253817D02*
G01*
X159430689Y-70321721D01*
X159578227Y-70420303D01*
X159703697Y-70545773D01*
X159802279Y-70693311D01*
X159870183Y-70857246D01*
X159904800Y-71031279D01*
X159904800Y-71208721D01*
X159870183Y-71382754D01*
X159802279Y-71546689D01*
X159703697Y-71694227D01*
X159578227Y-71819697D01*
X159430689Y-71918279D01*
X159266754Y-71986183D01*
X159092721Y-72020800D01*
X158915279Y-72020800D01*
X158741246Y-71986183D01*
X158577311Y-71918279D01*
X158429773Y-71819697D01*
X158304303Y-71694227D01*
X158205721Y-71546689D01*
X158137817Y-71382754D01*
X158103200Y-71208721D01*
X158103200Y-71031279D01*
X158137817Y-70857246D01*
X158205721Y-70693311D01*
X158304303Y-70545773D01*
X158429773Y-70420303D01*
X158577311Y-70321721D01*
X158741246Y-70253817D01*
X158915279Y-70219200D01*
X159092721Y-70219200D01*
X159266754Y-70253817D01*
G37*
G36*
X161806754Y-70253817D02*
G01*
X161970689Y-70321721D01*
X162118227Y-70420303D01*
X162243697Y-70545773D01*
X162342279Y-70693311D01*
X162410183Y-70857246D01*
X162444800Y-71031279D01*
X162444800Y-71208721D01*
X162410183Y-71382754D01*
X162342279Y-71546689D01*
X162243697Y-71694227D01*
X162118227Y-71819697D01*
X161970689Y-71918279D01*
X161806754Y-71986183D01*
X161632721Y-72020800D01*
X161455279Y-72020800D01*
X161281246Y-71986183D01*
X161117311Y-71918279D01*
X160969773Y-71819697D01*
X160844303Y-71694227D01*
X160745721Y-71546689D01*
X160677817Y-71382754D01*
X160643200Y-71208721D01*
X160643200Y-71031279D01*
X160677817Y-70857246D01*
X160745721Y-70693311D01*
X160844303Y-70545773D01*
X160969773Y-70420303D01*
X161117311Y-70321721D01*
X161281246Y-70253817D01*
X161455279Y-70219200D01*
X161632721Y-70219200D01*
X161806754Y-70253817D01*
G37*
G36*
X129802754Y-70253817D02*
G01*
X129966689Y-70321721D01*
X130114227Y-70420303D01*
X130239697Y-70545773D01*
X130338279Y-70693311D01*
X130406183Y-70857246D01*
X130440800Y-71031279D01*
X130440800Y-71208721D01*
X130406183Y-71382754D01*
X130338279Y-71546689D01*
X130239697Y-71694227D01*
X130114227Y-71819697D01*
X129966689Y-71918279D01*
X129802754Y-71986183D01*
X129628721Y-72020800D01*
X129451279Y-72020800D01*
X129277246Y-71986183D01*
X129113311Y-71918279D01*
X128965773Y-71819697D01*
X128840303Y-71694227D01*
X128741721Y-71546689D01*
X128673817Y-71382754D01*
X128639200Y-71208721D01*
X128639200Y-71031279D01*
X128673817Y-70857246D01*
X128741721Y-70693311D01*
X128840303Y-70545773D01*
X128965773Y-70420303D01*
X129113311Y-70321721D01*
X129277246Y-70253817D01*
X129451279Y-70219200D01*
X129628721Y-70219200D01*
X129802754Y-70253817D01*
G37*
G36*
X132342754Y-70253817D02*
G01*
X132506689Y-70321721D01*
X132654227Y-70420303D01*
X132779697Y-70545773D01*
X132878279Y-70693311D01*
X132946183Y-70857246D01*
X132980800Y-71031279D01*
X132980800Y-71208721D01*
X132946183Y-71382754D01*
X132878279Y-71546689D01*
X132779697Y-71694227D01*
X132654227Y-71819697D01*
X132506689Y-71918279D01*
X132342754Y-71986183D01*
X132168721Y-72020800D01*
X131991279Y-72020800D01*
X131817246Y-71986183D01*
X131653311Y-71918279D01*
X131505773Y-71819697D01*
X131380303Y-71694227D01*
X131281721Y-71546689D01*
X131213817Y-71382754D01*
X131179200Y-71208721D01*
X131179200Y-71031279D01*
X131213817Y-70857246D01*
X131281721Y-70693311D01*
X131380303Y-70545773D01*
X131505773Y-70420303D01*
X131653311Y-70321721D01*
X131817246Y-70253817D01*
X131991279Y-70219200D01*
X132168721Y-70219200D01*
X132342754Y-70253817D01*
G37*
G36*
X178062754Y-68733817D02*
G01*
X178226689Y-68801721D01*
X178374227Y-68900303D01*
X178499697Y-69025773D01*
X178598279Y-69173311D01*
X178666183Y-69337246D01*
X178700800Y-69511279D01*
X178700800Y-69688721D01*
X178666183Y-69862754D01*
X178598279Y-70026689D01*
X178499697Y-70174227D01*
X178374227Y-70299697D01*
X178226689Y-70398279D01*
X178062754Y-70466183D01*
X177888721Y-70500800D01*
X177711279Y-70500800D01*
X177537246Y-70466183D01*
X177373311Y-70398279D01*
X177225773Y-70299697D01*
X177100303Y-70174227D01*
X177001721Y-70026689D01*
X176933817Y-69862754D01*
X176899200Y-69688721D01*
X176899200Y-69511279D01*
X176933817Y-69337246D01*
X177001721Y-69173311D01*
X177100303Y-69025773D01*
X177225773Y-68900303D01*
X177373311Y-68801721D01*
X177537246Y-68733817D01*
X177711279Y-68699200D01*
X177888721Y-68699200D01*
X178062754Y-68733817D01*
G37*
G36*
X175522754Y-68733817D02*
G01*
X175686689Y-68801721D01*
X175834227Y-68900303D01*
X175959697Y-69025773D01*
X176058279Y-69173311D01*
X176126183Y-69337246D01*
X176160800Y-69511279D01*
X176160800Y-69688721D01*
X176126183Y-69862754D01*
X176058279Y-70026689D01*
X175959697Y-70174227D01*
X175834227Y-70299697D01*
X175686689Y-70398279D01*
X175522754Y-70466183D01*
X175348721Y-70500800D01*
X175171279Y-70500800D01*
X174997246Y-70466183D01*
X174833311Y-70398279D01*
X174685773Y-70299697D01*
X174560303Y-70174227D01*
X174461721Y-70026689D01*
X174393817Y-69862754D01*
X174359200Y-69688721D01*
X174359200Y-69511279D01*
X174393817Y-69337246D01*
X174461721Y-69173311D01*
X174560303Y-69025773D01*
X174685773Y-68900303D01*
X174833311Y-68801721D01*
X174997246Y-68733817D01*
X175171279Y-68699200D01*
X175348721Y-68699200D01*
X175522754Y-68733817D01*
G37*
G36*
X129802754Y-67713817D02*
G01*
X129966689Y-67781721D01*
X130114227Y-67880303D01*
X130239697Y-68005773D01*
X130338279Y-68153311D01*
X130406183Y-68317246D01*
X130440800Y-68491279D01*
X130440800Y-68668721D01*
X130406183Y-68842754D01*
X130338279Y-69006689D01*
X130239697Y-69154227D01*
X130114227Y-69279697D01*
X129966689Y-69378279D01*
X129802754Y-69446183D01*
X129628721Y-69480800D01*
X129451279Y-69480800D01*
X129277246Y-69446183D01*
X129113311Y-69378279D01*
X128965773Y-69279697D01*
X128840303Y-69154227D01*
X128741721Y-69006689D01*
X128673817Y-68842754D01*
X128639200Y-68668721D01*
X128639200Y-68491279D01*
X128673817Y-68317246D01*
X128741721Y-68153311D01*
X128840303Y-68005773D01*
X128965773Y-67880303D01*
X129113311Y-67781721D01*
X129277246Y-67713817D01*
X129451279Y-67679200D01*
X129628721Y-67679200D01*
X129802754Y-67713817D01*
G37*
G36*
X132342754Y-67713817D02*
G01*
X132506689Y-67781721D01*
X132654227Y-67880303D01*
X132779697Y-68005773D01*
X132878279Y-68153311D01*
X132946183Y-68317246D01*
X132980800Y-68491279D01*
X132980800Y-68668721D01*
X132946183Y-68842754D01*
X132878279Y-69006689D01*
X132779697Y-69154227D01*
X132654227Y-69279697D01*
X132506689Y-69378279D01*
X132342754Y-69446183D01*
X132168721Y-69480800D01*
X131991279Y-69480800D01*
X131817246Y-69446183D01*
X131653311Y-69378279D01*
X131505773Y-69279697D01*
X131380303Y-69154227D01*
X131281721Y-69006689D01*
X131213817Y-68842754D01*
X131179200Y-68668721D01*
X131179200Y-68491279D01*
X131213817Y-68317246D01*
X131281721Y-68153311D01*
X131380303Y-68005773D01*
X131505773Y-67880303D01*
X131653311Y-67781721D01*
X131817246Y-67713817D01*
X131991279Y-67679200D01*
X132168721Y-67679200D01*
X132342754Y-67713817D01*
G37*
G36*
X178062754Y-66193817D02*
G01*
X178226689Y-66261721D01*
X178374227Y-66360303D01*
X178499697Y-66485773D01*
X178598279Y-66633311D01*
X178666183Y-66797246D01*
X178700800Y-66971279D01*
X178700800Y-67148721D01*
X178666183Y-67322754D01*
X178598279Y-67486689D01*
X178499697Y-67634227D01*
X178374227Y-67759697D01*
X178226689Y-67858279D01*
X178062754Y-67926183D01*
X177888721Y-67960800D01*
X177711279Y-67960800D01*
X177537246Y-67926183D01*
X177373311Y-67858279D01*
X177225773Y-67759697D01*
X177100303Y-67634227D01*
X177001721Y-67486689D01*
X176933817Y-67322754D01*
X176899200Y-67148721D01*
X176899200Y-66971279D01*
X176933817Y-66797246D01*
X177001721Y-66633311D01*
X177100303Y-66485773D01*
X177225773Y-66360303D01*
X177373311Y-66261721D01*
X177537246Y-66193817D01*
X177711279Y-66159200D01*
X177888721Y-66159200D01*
X178062754Y-66193817D01*
G37*
G36*
X175522754Y-66193817D02*
G01*
X175686689Y-66261721D01*
X175834227Y-66360303D01*
X175959697Y-66485773D01*
X176058279Y-66633311D01*
X176126183Y-66797246D01*
X176160800Y-66971279D01*
X176160800Y-67148721D01*
X176126183Y-67322754D01*
X176058279Y-67486689D01*
X175959697Y-67634227D01*
X175834227Y-67759697D01*
X175686689Y-67858279D01*
X175522754Y-67926183D01*
X175348721Y-67960800D01*
X175171279Y-67960800D01*
X174997246Y-67926183D01*
X174833311Y-67858279D01*
X174685773Y-67759697D01*
X174560303Y-67634227D01*
X174461721Y-67486689D01*
X174393817Y-67322754D01*
X174359200Y-67148721D01*
X174359200Y-66971279D01*
X174393817Y-66797246D01*
X174461721Y-66633311D01*
X174560303Y-66485773D01*
X174685773Y-66360303D01*
X174833311Y-66261721D01*
X174997246Y-66193817D01*
X175171279Y-66159200D01*
X175348721Y-66159200D01*
X175522754Y-66193817D01*
G37*
G36*
X132342754Y-65173817D02*
G01*
X132506689Y-65241721D01*
X132654227Y-65340303D01*
X132779697Y-65465773D01*
X132878279Y-65613311D01*
X132946183Y-65777246D01*
X132980800Y-65951279D01*
X132980800Y-66128721D01*
X132946183Y-66302754D01*
X132878279Y-66466689D01*
X132779697Y-66614227D01*
X132654227Y-66739697D01*
X132506689Y-66838279D01*
X132342754Y-66906183D01*
X132168721Y-66940800D01*
X131991279Y-66940800D01*
X131817246Y-66906183D01*
X131653311Y-66838279D01*
X131505773Y-66739697D01*
X131380303Y-66614227D01*
X131281721Y-66466689D01*
X131213817Y-66302754D01*
X131179200Y-66128721D01*
X131179200Y-65951279D01*
X131213817Y-65777246D01*
X131281721Y-65613311D01*
X131380303Y-65465773D01*
X131505773Y-65340303D01*
X131653311Y-65241721D01*
X131817246Y-65173817D01*
X131991279Y-65139200D01*
X132168721Y-65139200D01*
X132342754Y-65173817D01*
G37*
G36*
X130440800Y-66940800D02*
G01*
X128639200Y-66940800D01*
X128639200Y-65139200D01*
X130440800Y-65139200D01*
X130440800Y-66940800D01*
G37*
G36*
X178062754Y-63653817D02*
G01*
X178226689Y-63721721D01*
X178374227Y-63820303D01*
X178499697Y-63945773D01*
X178598279Y-64093311D01*
X178666183Y-64257246D01*
X178700800Y-64431279D01*
X178700800Y-64608721D01*
X178666183Y-64782754D01*
X178598279Y-64946689D01*
X178499697Y-65094227D01*
X178374227Y-65219697D01*
X178226689Y-65318279D01*
X178062754Y-65386183D01*
X177888721Y-65420800D01*
X177711279Y-65420800D01*
X177537246Y-65386183D01*
X177373311Y-65318279D01*
X177225773Y-65219697D01*
X177100303Y-65094227D01*
X177001721Y-64946689D01*
X176933817Y-64782754D01*
X176899200Y-64608721D01*
X176899200Y-64431279D01*
X176933817Y-64257246D01*
X177001721Y-64093311D01*
X177100303Y-63945773D01*
X177225773Y-63820303D01*
X177373311Y-63721721D01*
X177537246Y-63653817D01*
X177711279Y-63619200D01*
X177888721Y-63619200D01*
X178062754Y-63653817D01*
G37*
G36*
X175522754Y-63653817D02*
G01*
X175686689Y-63721721D01*
X175834227Y-63820303D01*
X175959697Y-63945773D01*
X176058279Y-64093311D01*
X176126183Y-64257246D01*
X176160800Y-64431279D01*
X176160800Y-64608721D01*
X176126183Y-64782754D01*
X176058279Y-64946689D01*
X175959697Y-65094227D01*
X175834227Y-65219697D01*
X175686689Y-65318279D01*
X175522754Y-65386183D01*
X175348721Y-65420800D01*
X175171279Y-65420800D01*
X174997246Y-65386183D01*
X174833311Y-65318279D01*
X174685773Y-65219697D01*
X174560303Y-65094227D01*
X174461721Y-64946689D01*
X174393817Y-64782754D01*
X174359200Y-64608721D01*
X174359200Y-64431279D01*
X174393817Y-64257246D01*
X174461721Y-64093311D01*
X174560303Y-63945773D01*
X174685773Y-63820303D01*
X174833311Y-63721721D01*
X174997246Y-63653817D01*
X175171279Y-63619200D01*
X175348721Y-63619200D01*
X175522754Y-63653817D01*
G37*
G36*
X178062754Y-61113817D02*
G01*
X178226689Y-61181721D01*
X178374227Y-61280303D01*
X178499697Y-61405773D01*
X178598279Y-61553311D01*
X178666183Y-61717246D01*
X178700800Y-61891279D01*
X178700800Y-62068721D01*
X178666183Y-62242754D01*
X178598279Y-62406689D01*
X178499697Y-62554227D01*
X178374227Y-62679697D01*
X178226689Y-62778279D01*
X178062754Y-62846183D01*
X177888721Y-62880800D01*
X177711279Y-62880800D01*
X177537246Y-62846183D01*
X177373311Y-62778279D01*
X177225773Y-62679697D01*
X177100303Y-62554227D01*
X177001721Y-62406689D01*
X176933817Y-62242754D01*
X176899200Y-62068721D01*
X176899200Y-61891279D01*
X176933817Y-61717246D01*
X177001721Y-61553311D01*
X177100303Y-61405773D01*
X177225773Y-61280303D01*
X177373311Y-61181721D01*
X177537246Y-61113817D01*
X177711279Y-61079200D01*
X177888721Y-61079200D01*
X178062754Y-61113817D01*
G37*
G36*
X175522754Y-61113817D02*
G01*
X175686689Y-61181721D01*
X175834227Y-61280303D01*
X175959697Y-61405773D01*
X176058279Y-61553311D01*
X176126183Y-61717246D01*
X176160800Y-61891279D01*
X176160800Y-62068721D01*
X176126183Y-62242754D01*
X176058279Y-62406689D01*
X175959697Y-62554227D01*
X175834227Y-62679697D01*
X175686689Y-62778279D01*
X175522754Y-62846183D01*
X175348721Y-62880800D01*
X175171279Y-62880800D01*
X174997246Y-62846183D01*
X174833311Y-62778279D01*
X174685773Y-62679697D01*
X174560303Y-62554227D01*
X174461721Y-62406689D01*
X174393817Y-62242754D01*
X174359200Y-62068721D01*
X174359200Y-61891279D01*
X174393817Y-61717246D01*
X174461721Y-61553311D01*
X174560303Y-61405773D01*
X174685773Y-61280303D01*
X174833311Y-61181721D01*
X174997246Y-61113817D01*
X175171279Y-61079200D01*
X175348721Y-61079200D01*
X175522754Y-61113817D01*
G37*
G36*
X168156754Y-60347817D02*
G01*
X168320689Y-60415721D01*
X168468227Y-60514303D01*
X168593697Y-60639773D01*
X168692279Y-60787311D01*
X168760183Y-60951246D01*
X168794800Y-61125279D01*
X168794800Y-61302721D01*
X168760183Y-61476754D01*
X168692279Y-61640689D01*
X168593697Y-61788227D01*
X168468227Y-61913697D01*
X168320689Y-62012279D01*
X168156754Y-62080183D01*
X167982721Y-62114800D01*
X167805279Y-62114800D01*
X167631246Y-62080183D01*
X167467311Y-62012279D01*
X167319773Y-61913697D01*
X167194303Y-61788227D01*
X167095721Y-61640689D01*
X167027817Y-61476754D01*
X166993200Y-61302721D01*
X166993200Y-61125279D01*
X167027817Y-60951246D01*
X167095721Y-60787311D01*
X167194303Y-60639773D01*
X167319773Y-60514303D01*
X167467311Y-60415721D01*
X167631246Y-60347817D01*
X167805279Y-60313200D01*
X167982721Y-60313200D01*
X168156754Y-60347817D01*
G37*
G36*
X165616754Y-60347817D02*
G01*
X165780689Y-60415721D01*
X165928227Y-60514303D01*
X166053697Y-60639773D01*
X166152279Y-60787311D01*
X166220183Y-60951246D01*
X166254800Y-61125279D01*
X166254800Y-61302721D01*
X166220183Y-61476754D01*
X166152279Y-61640689D01*
X166053697Y-61788227D01*
X165928227Y-61913697D01*
X165780689Y-62012279D01*
X165616754Y-62080183D01*
X165442721Y-62114800D01*
X165265279Y-62114800D01*
X165091246Y-62080183D01*
X164927311Y-62012279D01*
X164779773Y-61913697D01*
X164654303Y-61788227D01*
X164555721Y-61640689D01*
X164487817Y-61476754D01*
X164453200Y-61302721D01*
X164453200Y-61125279D01*
X164487817Y-60951246D01*
X164555721Y-60787311D01*
X164654303Y-60639773D01*
X164779773Y-60514303D01*
X164927311Y-60415721D01*
X165091246Y-60347817D01*
X165265279Y-60313200D01*
X165442721Y-60313200D01*
X165616754Y-60347817D01*
G37*
G36*
X163076754Y-60347817D02*
G01*
X163240689Y-60415721D01*
X163388227Y-60514303D01*
X163513697Y-60639773D01*
X163612279Y-60787311D01*
X163680183Y-60951246D01*
X163714800Y-61125279D01*
X163714800Y-61302721D01*
X163680183Y-61476754D01*
X163612279Y-61640689D01*
X163513697Y-61788227D01*
X163388227Y-61913697D01*
X163240689Y-62012279D01*
X163076754Y-62080183D01*
X162902721Y-62114800D01*
X162725279Y-62114800D01*
X162551246Y-62080183D01*
X162387311Y-62012279D01*
X162239773Y-61913697D01*
X162114303Y-61788227D01*
X162015721Y-61640689D01*
X161947817Y-61476754D01*
X161913200Y-61302721D01*
X161913200Y-61125279D01*
X161947817Y-60951246D01*
X162015721Y-60787311D01*
X162114303Y-60639773D01*
X162239773Y-60514303D01*
X162387311Y-60415721D01*
X162551246Y-60347817D01*
X162725279Y-60313200D01*
X162902721Y-60313200D01*
X163076754Y-60347817D01*
G37*
G36*
X170696754Y-60347817D02*
G01*
X170860689Y-60415721D01*
X171008227Y-60514303D01*
X171133697Y-60639773D01*
X171232279Y-60787311D01*
X171300183Y-60951246D01*
X171334800Y-61125279D01*
X171334800Y-61302721D01*
X171300183Y-61476754D01*
X171232279Y-61640689D01*
X171133697Y-61788227D01*
X171008227Y-61913697D01*
X170860689Y-62012279D01*
X170696754Y-62080183D01*
X170522721Y-62114800D01*
X170345279Y-62114800D01*
X170171246Y-62080183D01*
X170007311Y-62012279D01*
X169859773Y-61913697D01*
X169734303Y-61788227D01*
X169635721Y-61640689D01*
X169567817Y-61476754D01*
X169533200Y-61302721D01*
X169533200Y-61125279D01*
X169567817Y-60951246D01*
X169635721Y-60787311D01*
X169734303Y-60639773D01*
X169859773Y-60514303D01*
X170007311Y-60415721D01*
X170171246Y-60347817D01*
X170345279Y-60313200D01*
X170522721Y-60313200D01*
X170696754Y-60347817D01*
G37*
G36*
X151014800Y-62114800D02*
G01*
X149213200Y-62114800D01*
X149213200Y-60313200D01*
X151014800Y-60313200D01*
X151014800Y-62114800D01*
G37*
G36*
X160536754Y-60347817D02*
G01*
X160700689Y-60415721D01*
X160848227Y-60514303D01*
X160973697Y-60639773D01*
X161072279Y-60787311D01*
X161140183Y-60951246D01*
X161174800Y-61125279D01*
X161174800Y-61302721D01*
X161140183Y-61476754D01*
X161072279Y-61640689D01*
X160973697Y-61788227D01*
X160848227Y-61913697D01*
X160700689Y-62012279D01*
X160536754Y-62080183D01*
X160362721Y-62114800D01*
X160185279Y-62114800D01*
X160011246Y-62080183D01*
X159847311Y-62012279D01*
X159699773Y-61913697D01*
X159574303Y-61788227D01*
X159475721Y-61640689D01*
X159407817Y-61476754D01*
X159373200Y-61302721D01*
X159373200Y-61125279D01*
X159407817Y-60951246D01*
X159475721Y-60787311D01*
X159574303Y-60639773D01*
X159699773Y-60514303D01*
X159847311Y-60415721D01*
X160011246Y-60347817D01*
X160185279Y-60313200D01*
X160362721Y-60313200D01*
X160536754Y-60347817D01*
G37*
G36*
X157996754Y-60347817D02*
G01*
X158160689Y-60415721D01*
X158308227Y-60514303D01*
X158433697Y-60639773D01*
X158532279Y-60787311D01*
X158600183Y-60951246D01*
X158634800Y-61125279D01*
X158634800Y-61302721D01*
X158600183Y-61476754D01*
X158532279Y-61640689D01*
X158433697Y-61788227D01*
X158308227Y-61913697D01*
X158160689Y-62012279D01*
X157996754Y-62080183D01*
X157822721Y-62114800D01*
X157645279Y-62114800D01*
X157471246Y-62080183D01*
X157307311Y-62012279D01*
X157159773Y-61913697D01*
X157034303Y-61788227D01*
X156935721Y-61640689D01*
X156867817Y-61476754D01*
X156833200Y-61302721D01*
X156833200Y-61125279D01*
X156867817Y-60951246D01*
X156935721Y-60787311D01*
X157034303Y-60639773D01*
X157159773Y-60514303D01*
X157307311Y-60415721D01*
X157471246Y-60347817D01*
X157645279Y-60313200D01*
X157822721Y-60313200D01*
X157996754Y-60347817D01*
G37*
G36*
X152916754Y-60347817D02*
G01*
X153080689Y-60415721D01*
X153228227Y-60514303D01*
X153353697Y-60639773D01*
X153452279Y-60787311D01*
X153520183Y-60951246D01*
X153554800Y-61125279D01*
X153554800Y-61302721D01*
X153520183Y-61476754D01*
X153452279Y-61640689D01*
X153353697Y-61788227D01*
X153228227Y-61913697D01*
X153080689Y-62012279D01*
X152916754Y-62080183D01*
X152742721Y-62114800D01*
X152565279Y-62114800D01*
X152391246Y-62080183D01*
X152227311Y-62012279D01*
X152079773Y-61913697D01*
X151954303Y-61788227D01*
X151855721Y-61640689D01*
X151787817Y-61476754D01*
X151753200Y-61302721D01*
X151753200Y-61125279D01*
X151787817Y-60951246D01*
X151855721Y-60787311D01*
X151954303Y-60639773D01*
X152079773Y-60514303D01*
X152227311Y-60415721D01*
X152391246Y-60347817D01*
X152565279Y-60313200D01*
X152742721Y-60313200D01*
X152916754Y-60347817D01*
G37*
G36*
X155456754Y-60347817D02*
G01*
X155620689Y-60415721D01*
X155768227Y-60514303D01*
X155893697Y-60639773D01*
X155992279Y-60787311D01*
X156060183Y-60951246D01*
X156094800Y-61125279D01*
X156094800Y-61302721D01*
X156060183Y-61476754D01*
X155992279Y-61640689D01*
X155893697Y-61788227D01*
X155768227Y-61913697D01*
X155620689Y-62012279D01*
X155456754Y-62080183D01*
X155282721Y-62114800D01*
X155105279Y-62114800D01*
X154931246Y-62080183D01*
X154767311Y-62012279D01*
X154619773Y-61913697D01*
X154494303Y-61788227D01*
X154395721Y-61640689D01*
X154327817Y-61476754D01*
X154293200Y-61302721D01*
X154293200Y-61125279D01*
X154327817Y-60951246D01*
X154395721Y-60787311D01*
X154494303Y-60639773D01*
X154619773Y-60514303D01*
X154767311Y-60415721D01*
X154931246Y-60347817D01*
X155105279Y-60313200D01*
X155282721Y-60313200D01*
X155456754Y-60347817D01*
G37*
G36*
X131321592Y-59711003D02*
G01*
X131521924Y-59793983D01*
X131702221Y-59914454D01*
X131855546Y-60067779D01*
X131976017Y-60248076D01*
X132058997Y-60448408D01*
X132101300Y-60661080D01*
X132101300Y-60877920D01*
X132058997Y-61090592D01*
X131976017Y-61290924D01*
X131855546Y-61471221D01*
X131702221Y-61624546D01*
X131521924Y-61745017D01*
X131321592Y-61827997D01*
X131108920Y-61870300D01*
X130892080Y-61870300D01*
X130679408Y-61827997D01*
X130479076Y-61745017D01*
X130298779Y-61624546D01*
X130145454Y-61471221D01*
X130024983Y-61290924D01*
X129942003Y-61090592D01*
X129899700Y-60877920D01*
X129899700Y-60661080D01*
X129942003Y-60448408D01*
X130024983Y-60248076D01*
X130145454Y-60067779D01*
X130298779Y-59914454D01*
X130479076Y-59793983D01*
X130679408Y-59711003D01*
X130892080Y-59668700D01*
X131108920Y-59668700D01*
X131321592Y-59711003D01*
G37*
G36*
X178062754Y-58573817D02*
G01*
X178226689Y-58641721D01*
X178374227Y-58740303D01*
X178499697Y-58865773D01*
X178598279Y-59013311D01*
X178666183Y-59177246D01*
X178700800Y-59351279D01*
X178700800Y-59528721D01*
X178666183Y-59702754D01*
X178598279Y-59866689D01*
X178499697Y-60014227D01*
X178374227Y-60139697D01*
X178226689Y-60238279D01*
X178062754Y-60306183D01*
X177888721Y-60340800D01*
X177711279Y-60340800D01*
X177537246Y-60306183D01*
X177373311Y-60238279D01*
X177225773Y-60139697D01*
X177100303Y-60014227D01*
X177001721Y-59866689D01*
X176933817Y-59702754D01*
X176899200Y-59528721D01*
X176899200Y-59351279D01*
X176933817Y-59177246D01*
X177001721Y-59013311D01*
X177100303Y-58865773D01*
X177225773Y-58740303D01*
X177373311Y-58641721D01*
X177537246Y-58573817D01*
X177711279Y-58539200D01*
X177888721Y-58539200D01*
X178062754Y-58573817D01*
G37*
G36*
X175522754Y-58573817D02*
G01*
X175686689Y-58641721D01*
X175834227Y-58740303D01*
X175959697Y-58865773D01*
X176058279Y-59013311D01*
X176126183Y-59177246D01*
X176160800Y-59351279D01*
X176160800Y-59528721D01*
X176126183Y-59702754D01*
X176058279Y-59866689D01*
X175959697Y-60014227D01*
X175834227Y-60139697D01*
X175686689Y-60238279D01*
X175522754Y-60306183D01*
X175348721Y-60340800D01*
X175171279Y-60340800D01*
X174997246Y-60306183D01*
X174833311Y-60238279D01*
X174685773Y-60139697D01*
X174560303Y-60014227D01*
X174461721Y-59866689D01*
X174393817Y-59702754D01*
X174359200Y-59528721D01*
X174359200Y-59351279D01*
X174393817Y-59177246D01*
X174461721Y-59013311D01*
X174560303Y-58865773D01*
X174685773Y-58740303D01*
X174833311Y-58641721D01*
X174997246Y-58573817D01*
X175171279Y-58539200D01*
X175348721Y-58539200D01*
X175522754Y-58573817D01*
G37*
G36*
X132101300Y-59330300D02*
G01*
X129899700Y-59330300D01*
X129899700Y-57128700D01*
X132101300Y-57128700D01*
X132101300Y-59330300D01*
G37*
G36*
X178062754Y-56033817D02*
G01*
X178226689Y-56101721D01*
X178374227Y-56200303D01*
X178499697Y-56325773D01*
X178598279Y-56473311D01*
X178666183Y-56637246D01*
X178700800Y-56811279D01*
X178700800Y-56988721D01*
X178666183Y-57162754D01*
X178598279Y-57326689D01*
X178499697Y-57474227D01*
X178374227Y-57599697D01*
X178226689Y-57698279D01*
X178062754Y-57766183D01*
X177888721Y-57800800D01*
X177711279Y-57800800D01*
X177537246Y-57766183D01*
X177373311Y-57698279D01*
X177225773Y-57599697D01*
X177100303Y-57474227D01*
X177001721Y-57326689D01*
X176933817Y-57162754D01*
X176899200Y-56988721D01*
X176899200Y-56811279D01*
X176933817Y-56637246D01*
X177001721Y-56473311D01*
X177100303Y-56325773D01*
X177225773Y-56200303D01*
X177373311Y-56101721D01*
X177537246Y-56033817D01*
X177711279Y-55999200D01*
X177888721Y-55999200D01*
X178062754Y-56033817D01*
G37*
G36*
X176160800Y-57800800D02*
G01*
X174359200Y-57800800D01*
X174359200Y-55999200D01*
X176160800Y-55999200D01*
X176160800Y-57800800D01*
G37*
G36*
X138383777Y-45555893D02*
G01*
X138497029Y-45590247D01*
X138601402Y-45646036D01*
X138692885Y-45721115D01*
X138767964Y-45812598D01*
X138823753Y-45916971D01*
X138858107Y-46030224D01*
X138866800Y-46118486D01*
X138866800Y-46577515D01*
X138858107Y-46665777D01*
X138823753Y-46779029D01*
X138767964Y-46883402D01*
X138692885Y-46974885D01*
X138601401Y-47049964D01*
X138497028Y-47105753D01*
X138383776Y-47140107D01*
X138266000Y-47151707D01*
X138148223Y-47140107D01*
X138034971Y-47105753D01*
X137930598Y-47049964D01*
X137839115Y-46974885D01*
X137764036Y-46883401D01*
X137708247Y-46779028D01*
X137673893Y-46665776D01*
X137665200Y-46577514D01*
X137665200Y-46118485D01*
X137673893Y-46030223D01*
X137708247Y-45916971D01*
X137764037Y-45812598D01*
X137839116Y-45721115D01*
X137930599Y-45646036D01*
X138034972Y-45590247D01*
X138148224Y-45555893D01*
X138266000Y-45544293D01*
X138383777Y-45555893D01*
G37*
G36*
X143223777Y-45555893D02*
G01*
X143337029Y-45590247D01*
X143441402Y-45646036D01*
X143532885Y-45721115D01*
X143607964Y-45812598D01*
X143663753Y-45916971D01*
X143698107Y-46030224D01*
X143706800Y-46118486D01*
X143706800Y-46577515D01*
X143698107Y-46665777D01*
X143663753Y-46779029D01*
X143607964Y-46883402D01*
X143532885Y-46974885D01*
X143441401Y-47049964D01*
X143337028Y-47105753D01*
X143223776Y-47140107D01*
X143106000Y-47151707D01*
X142988223Y-47140107D01*
X142874971Y-47105753D01*
X142770598Y-47049964D01*
X142679115Y-46974885D01*
X142604036Y-46883401D01*
X142548247Y-46779028D01*
X142513893Y-46665776D01*
X142505200Y-46577514D01*
X142505200Y-46118485D01*
X142513893Y-46030223D01*
X142548247Y-45916971D01*
X142604037Y-45812598D01*
X142679116Y-45721115D01*
X142770599Y-45646036D01*
X142874972Y-45590247D01*
X142988224Y-45555893D01*
X143106000Y-45544293D01*
X143223777Y-45555893D01*
G37*
G36*
X170819264Y-42163957D02*
G01*
X171059634Y-42263521D01*
X171275963Y-42408068D01*
X171459932Y-42592037D01*
X171604479Y-42808366D01*
X171704043Y-43048736D01*
X171754800Y-43303912D01*
X171754800Y-43564088D01*
X171704043Y-43819264D01*
X171604479Y-44059634D01*
X171459932Y-44275963D01*
X171275963Y-44459932D01*
X171059634Y-44604479D01*
X170819264Y-44704043D01*
X170564088Y-44754800D01*
X170303912Y-44754800D01*
X170048736Y-44704043D01*
X169808366Y-44604479D01*
X169592037Y-44459932D01*
X169408068Y-44275963D01*
X169263521Y-44059634D01*
X169163957Y-43819264D01*
X169113200Y-43564088D01*
X169113200Y-43303912D01*
X169163957Y-43048736D01*
X169263521Y-42808366D01*
X169408068Y-42592037D01*
X169592037Y-42408068D01*
X169808366Y-42263521D01*
X170048736Y-42163957D01*
X170303912Y-42113200D01*
X170564088Y-42113200D01*
X170819264Y-42163957D01*
G37*
G36*
X150499264Y-42163957D02*
G01*
X150739634Y-42263521D01*
X150955963Y-42408068D01*
X151139932Y-42592037D01*
X151284479Y-42808366D01*
X151384043Y-43048736D01*
X151434800Y-43303912D01*
X151434800Y-43564088D01*
X151384043Y-43819264D01*
X151284479Y-44059634D01*
X151139932Y-44275963D01*
X150955963Y-44459932D01*
X150739634Y-44604479D01*
X150499264Y-44704043D01*
X150244088Y-44754800D01*
X149983912Y-44754800D01*
X149728736Y-44704043D01*
X149488366Y-44604479D01*
X149272037Y-44459932D01*
X149088068Y-44275963D01*
X148943521Y-44059634D01*
X148843957Y-43819264D01*
X148793200Y-43564088D01*
X148793200Y-43303912D01*
X148843957Y-43048736D01*
X148943521Y-42808366D01*
X149088068Y-42592037D01*
X149272037Y-42408068D01*
X149488366Y-42263521D01*
X149728736Y-42163957D01*
X149983912Y-42113200D01*
X150244088Y-42113200D01*
X150499264Y-42163957D01*
G37*
G36*
X138098278Y-42457701D02*
G01*
X138170837Y-42479712D01*
X138235095Y-42499204D01*
X138361183Y-42566600D01*
X138471701Y-42657299D01*
X138562400Y-42767817D01*
X138629796Y-42893905D01*
X138649288Y-42958163D01*
X138671299Y-43030723D01*
X138681800Y-43137346D01*
X138681800Y-43558655D01*
X138671299Y-43665278D01*
X138649288Y-43737837D01*
X138629796Y-43802095D01*
X138562401Y-43928182D01*
X138562400Y-43928183D01*
X138471699Y-44038703D01*
X138361185Y-44129399D01*
X138289998Y-44167449D01*
X138235094Y-44196796D01*
X138170836Y-44216288D01*
X138098277Y-44238299D01*
X137956000Y-44252312D01*
X137813722Y-44238299D01*
X137741163Y-44216288D01*
X137676905Y-44196796D01*
X137550817Y-44129400D01*
X137550816Y-44129399D01*
X137440297Y-44038699D01*
X137349601Y-43928185D01*
X137291381Y-43819263D01*
X137282204Y-43802094D01*
X137240703Y-43665282D01*
X137240701Y-43665277D01*
X137230200Y-43558654D01*
X137230200Y-43137345D01*
X137240701Y-43030722D01*
X137262712Y-42958163D01*
X137282204Y-42893905D01*
X137349600Y-42767817D01*
X137440301Y-42657297D01*
X137550815Y-42566601D01*
X137622002Y-42528551D01*
X137676906Y-42499204D01*
X137741164Y-42479712D01*
X137813723Y-42457701D01*
X137956000Y-42443688D01*
X138098278Y-42457701D01*
G37*
G36*
X143558278Y-42457701D02*
G01*
X143630837Y-42479712D01*
X143695095Y-42499204D01*
X143821183Y-42566600D01*
X143931701Y-42657299D01*
X144022400Y-42767817D01*
X144089796Y-42893905D01*
X144109288Y-42958163D01*
X144131299Y-43030723D01*
X144141800Y-43137346D01*
X144141800Y-43558655D01*
X144131299Y-43665278D01*
X144109288Y-43737837D01*
X144089796Y-43802095D01*
X144022401Y-43928182D01*
X144022400Y-43928183D01*
X143931699Y-44038703D01*
X143821185Y-44129399D01*
X143749998Y-44167449D01*
X143695094Y-44196796D01*
X143630836Y-44216288D01*
X143558277Y-44238299D01*
X143416000Y-44252312D01*
X143273722Y-44238299D01*
X143201163Y-44216288D01*
X143136905Y-44196796D01*
X143010817Y-44129400D01*
X143010816Y-44129399D01*
X142900297Y-44038699D01*
X142809601Y-43928185D01*
X142751381Y-43819263D01*
X142742204Y-43802094D01*
X142700703Y-43665282D01*
X142700701Y-43665277D01*
X142690200Y-43558654D01*
X142690200Y-43137345D01*
X142700701Y-43030722D01*
X142722712Y-42958163D01*
X142742204Y-42893905D01*
X142809600Y-42767817D01*
X142900301Y-42657297D01*
X143010815Y-42566601D01*
X143082002Y-42528551D01*
X143136906Y-42499204D01*
X143201164Y-42479712D01*
X143273723Y-42457701D01*
X143416000Y-42443688D01*
X143558278Y-42457701D01*
G37*
M02*
