G04 #@! TF.GenerationSoftware,KiCad,Pcbnew,(5.1.5-0)*
G04 #@! TF.CreationDate,2021-06-24T11:38:46-03:00*
G04 #@! TF.ProjectId,pwjsignal,70776a73-6967-46e6-916c-2e6b69636164,rev?*
G04 #@! TF.SameCoordinates,Original*
G04 #@! TF.FileFunction,Legend,Top*
G04 #@! TF.FilePolarity,Positive*
%FSLAX46Y46*%
G04 Gerber Fmt 4.6, Leading zero omitted, Abs format (unit mm)*
G04 Created by KiCad (PCBNEW (5.1.5-0)) date 2021-06-24 11:38:46*
%MOMM*%
%LPD*%
G04 APERTURE LIST*
%ADD10C,0.190500*%
%ADD11C,0.254000*%
%ADD12C,0.120000*%
%ADD13C,0.150000*%
G04 APERTURE END LIST*
D10*
X128016000Y-63173428D02*
X128052285Y-63100857D01*
X128052285Y-62992000D01*
X128016000Y-62883142D01*
X127943428Y-62810571D01*
X127870857Y-62774285D01*
X127725714Y-62738000D01*
X127616857Y-62738000D01*
X127471714Y-62774285D01*
X127399142Y-62810571D01*
X127326571Y-62883142D01*
X127290285Y-62992000D01*
X127290285Y-63064571D01*
X127326571Y-63173428D01*
X127362857Y-63209714D01*
X127616857Y-63209714D01*
X127616857Y-63064571D01*
X127290285Y-63536285D02*
X128052285Y-63536285D01*
X127290285Y-63971714D01*
X128052285Y-63971714D01*
X127290285Y-64334571D02*
X128052285Y-64334571D01*
X128052285Y-64516000D01*
X128016000Y-64624857D01*
X127943428Y-64697428D01*
X127870857Y-64733714D01*
X127725714Y-64770000D01*
X127616857Y-64770000D01*
X127471714Y-64733714D01*
X127399142Y-64697428D01*
X127326571Y-64624857D01*
X127290285Y-64516000D01*
X127290285Y-64334571D01*
X127580571Y-53757285D02*
X127580571Y-54337857D01*
X127290285Y-54047571D02*
X127870857Y-54047571D01*
X128052285Y-55063571D02*
X128052285Y-54700714D01*
X127689428Y-54664428D01*
X127725714Y-54700714D01*
X127762000Y-54773285D01*
X127762000Y-54954714D01*
X127725714Y-55027285D01*
X127689428Y-55063571D01*
X127616857Y-55099857D01*
X127435428Y-55099857D01*
X127362857Y-55063571D01*
X127326571Y-55027285D01*
X127290285Y-54954714D01*
X127290285Y-54773285D01*
X127326571Y-54700714D01*
X127362857Y-54664428D01*
X128052285Y-55317571D02*
X127290285Y-55571571D01*
X128052285Y-55825571D01*
D11*
X162258571Y-100950757D02*
X160758571Y-100950757D01*
X160758571Y-100379328D01*
X160830000Y-100236471D01*
X160901428Y-100165042D01*
X161044285Y-100093614D01*
X161258571Y-100093614D01*
X161401428Y-100165042D01*
X161472857Y-100236471D01*
X161544285Y-100379328D01*
X161544285Y-100950757D01*
X160758571Y-99593614D02*
X162258571Y-99236471D01*
X161187142Y-98950757D01*
X162258571Y-98665042D01*
X160758571Y-98307900D01*
X160758571Y-97307900D02*
X161830000Y-97307900D01*
X162044285Y-97379328D01*
X162187142Y-97522185D01*
X162258571Y-97736471D01*
X162258571Y-97879328D01*
X162187142Y-95522185D02*
X162258571Y-95307900D01*
X162258571Y-94950757D01*
X162187142Y-94807900D01*
X162115714Y-94736471D01*
X161972857Y-94665042D01*
X161830000Y-94665042D01*
X161687142Y-94736471D01*
X161615714Y-94807900D01*
X161544285Y-94950757D01*
X161472857Y-95236471D01*
X161401428Y-95379328D01*
X161330000Y-95450757D01*
X161187142Y-95522185D01*
X161044285Y-95522185D01*
X160901428Y-95450757D01*
X160830000Y-95379328D01*
X160758571Y-95236471D01*
X160758571Y-94879328D01*
X160830000Y-94665042D01*
X161258571Y-94236471D02*
X161258571Y-93665042D01*
X160758571Y-94022185D02*
X162044285Y-94022185D01*
X162187142Y-93950757D01*
X162258571Y-93807900D01*
X162258571Y-93665042D01*
X162258571Y-93165042D02*
X161258571Y-93165042D01*
X161544285Y-93165042D02*
X161401428Y-93093614D01*
X161330000Y-93022185D01*
X161258571Y-92879328D01*
X161258571Y-92736471D01*
X162258571Y-91593614D02*
X161472857Y-91593614D01*
X161330000Y-91665042D01*
X161258571Y-91807900D01*
X161258571Y-92093614D01*
X161330000Y-92236471D01*
X162187142Y-91593614D02*
X162258571Y-91736471D01*
X162258571Y-92093614D01*
X162187142Y-92236471D01*
X162044285Y-92307900D01*
X161901428Y-92307900D01*
X161758571Y-92236471D01*
X161687142Y-92093614D01*
X161687142Y-91736471D01*
X161615714Y-91593614D01*
X162258571Y-90879328D02*
X161258571Y-90879328D01*
X160758571Y-90879328D02*
X160830000Y-90950757D01*
X160901428Y-90879328D01*
X160830000Y-90807900D01*
X160758571Y-90879328D01*
X160901428Y-90879328D01*
X161258571Y-90165042D02*
X162258571Y-90165042D01*
X161401428Y-90165042D02*
X161330000Y-90093614D01*
X161258571Y-89950757D01*
X161258571Y-89736471D01*
X161330000Y-89593614D01*
X161472857Y-89522185D01*
X162258571Y-89522185D01*
X162258571Y-86950757D02*
X162258571Y-87665042D01*
X160758571Y-87665042D01*
X162258571Y-86236471D02*
X162187142Y-86379328D01*
X162115714Y-86450757D01*
X161972857Y-86522185D01*
X161544285Y-86522185D01*
X161401428Y-86450757D01*
X161330000Y-86379328D01*
X161258571Y-86236471D01*
X161258571Y-86022185D01*
X161330000Y-85879328D01*
X161401428Y-85807900D01*
X161544285Y-85736471D01*
X161972857Y-85736471D01*
X162115714Y-85807900D01*
X162187142Y-85879328D01*
X162258571Y-86022185D01*
X162258571Y-86236471D01*
X161258571Y-84450757D02*
X162472857Y-84450757D01*
X162615714Y-84522185D01*
X162687142Y-84593614D01*
X162758571Y-84736471D01*
X162758571Y-84950757D01*
X162687142Y-85093614D01*
X162187142Y-84450757D02*
X162258571Y-84593614D01*
X162258571Y-84879328D01*
X162187142Y-85022185D01*
X162115714Y-85093614D01*
X161972857Y-85165042D01*
X161544285Y-85165042D01*
X161401428Y-85093614D01*
X161330000Y-85022185D01*
X161258571Y-84879328D01*
X161258571Y-84593614D01*
X161330000Y-84450757D01*
X161258571Y-83093614D02*
X162472857Y-83093614D01*
X162615714Y-83165042D01*
X162687142Y-83236471D01*
X162758571Y-83379328D01*
X162758571Y-83593614D01*
X162687142Y-83736471D01*
X162187142Y-83093614D02*
X162258571Y-83236471D01*
X162258571Y-83522185D01*
X162187142Y-83665042D01*
X162115714Y-83736471D01*
X161972857Y-83807900D01*
X161544285Y-83807900D01*
X161401428Y-83736471D01*
X161330000Y-83665042D01*
X161258571Y-83522185D01*
X161258571Y-83236471D01*
X161330000Y-83093614D01*
X162187142Y-81807900D02*
X162258571Y-81950757D01*
X162258571Y-82236471D01*
X162187142Y-82379328D01*
X162044285Y-82450757D01*
X161472857Y-82450757D01*
X161330000Y-82379328D01*
X161258571Y-82236471D01*
X161258571Y-81950757D01*
X161330000Y-81807900D01*
X161472857Y-81736471D01*
X161615714Y-81736471D01*
X161758571Y-82450757D01*
X162258571Y-81093614D02*
X161258571Y-81093614D01*
X161544285Y-81093614D02*
X161401428Y-81022185D01*
X161330000Y-80950757D01*
X161258571Y-80807900D01*
X161258571Y-80665042D01*
X164762571Y-100307900D02*
X163262571Y-100307900D01*
X164691142Y-100307900D02*
X164762571Y-100450757D01*
X164762571Y-100736471D01*
X164691142Y-100879328D01*
X164619714Y-100950757D01*
X164476857Y-101022185D01*
X164048285Y-101022185D01*
X163905428Y-100950757D01*
X163834000Y-100879328D01*
X163762571Y-100736471D01*
X163762571Y-100450757D01*
X163834000Y-100307900D01*
X164762571Y-98950757D02*
X163976857Y-98950757D01*
X163834000Y-99022185D01*
X163762571Y-99165042D01*
X163762571Y-99450757D01*
X163834000Y-99593614D01*
X164691142Y-98950757D02*
X164762571Y-99093614D01*
X164762571Y-99450757D01*
X164691142Y-99593614D01*
X164548285Y-99665042D01*
X164405428Y-99665042D01*
X164262571Y-99593614D01*
X164191142Y-99450757D01*
X164191142Y-99093614D01*
X164119714Y-98950757D01*
X163762571Y-98379328D02*
X164762571Y-98022185D01*
X163762571Y-97665042D01*
X164691142Y-96522185D02*
X164762571Y-96665042D01*
X164762571Y-96950757D01*
X164691142Y-97093614D01*
X164548285Y-97165042D01*
X163976857Y-97165042D01*
X163834000Y-97093614D01*
X163762571Y-96950757D01*
X163762571Y-96665042D01*
X163834000Y-96522185D01*
X163976857Y-96450757D01*
X164119714Y-96450757D01*
X164262571Y-97165042D01*
X164048285Y-94879328D02*
X163976857Y-94950757D01*
X163905428Y-95093614D01*
X163905428Y-95236471D01*
X163976857Y-95379328D01*
X164048285Y-95450757D01*
X164191142Y-95522185D01*
X164334000Y-95522185D01*
X164476857Y-95450757D01*
X164548285Y-95379328D01*
X164619714Y-95236471D01*
X164619714Y-95093614D01*
X164548285Y-94950757D01*
X164476857Y-94879328D01*
X163905428Y-94879328D02*
X164476857Y-94879328D01*
X164548285Y-94807900D01*
X164548285Y-94736471D01*
X164476857Y-94593614D01*
X164334000Y-94522185D01*
X163976857Y-94522185D01*
X163762571Y-94665042D01*
X163619714Y-94879328D01*
X163548285Y-95165042D01*
X163619714Y-95450757D01*
X163762571Y-95665042D01*
X163976857Y-95807900D01*
X164262571Y-95879328D01*
X164548285Y-95807900D01*
X164762571Y-95665042D01*
X164905428Y-95450757D01*
X164976857Y-95165042D01*
X164905428Y-94879328D01*
X164762571Y-94665042D01*
X164762571Y-93236471D02*
X163262571Y-93236471D01*
X164691142Y-93236471D02*
X164762571Y-93379328D01*
X164762571Y-93665042D01*
X164691142Y-93807900D01*
X164619714Y-93879328D01*
X164476857Y-93950757D01*
X164048285Y-93950757D01*
X163905428Y-93879328D01*
X163834000Y-93807900D01*
X163762571Y-93665042D01*
X163762571Y-93379328D01*
X163834000Y-93236471D01*
X164762571Y-91879328D02*
X163976857Y-91879328D01*
X163834000Y-91950757D01*
X163762571Y-92093614D01*
X163762571Y-92379328D01*
X163834000Y-92522185D01*
X164691142Y-91879328D02*
X164762571Y-92022185D01*
X164762571Y-92379328D01*
X164691142Y-92522185D01*
X164548285Y-92593614D01*
X164405428Y-92593614D01*
X164262571Y-92522185D01*
X164191142Y-92379328D01*
X164191142Y-92022185D01*
X164119714Y-91879328D01*
X164762571Y-90950757D02*
X164691142Y-91093614D01*
X164548285Y-91165042D01*
X163262571Y-91165042D01*
X164619714Y-90379328D02*
X164691142Y-90307900D01*
X164762571Y-90379328D01*
X164691142Y-90450757D01*
X164619714Y-90379328D01*
X164762571Y-90379328D01*
X164691142Y-89022185D02*
X164762571Y-89165042D01*
X164762571Y-89450757D01*
X164691142Y-89593614D01*
X164619714Y-89665042D01*
X164476857Y-89736471D01*
X164048285Y-89736471D01*
X163905428Y-89665042D01*
X163834000Y-89593614D01*
X163762571Y-89450757D01*
X163762571Y-89165042D01*
X163834000Y-89022185D01*
X164762571Y-87736471D02*
X163976857Y-87736471D01*
X163834000Y-87807900D01*
X163762571Y-87950757D01*
X163762571Y-88236471D01*
X163834000Y-88379328D01*
X164691142Y-87736471D02*
X164762571Y-87879328D01*
X164762571Y-88236471D01*
X164691142Y-88379328D01*
X164548285Y-88450757D01*
X164405428Y-88450757D01*
X164262571Y-88379328D01*
X164191142Y-88236471D01*
X164191142Y-87879328D01*
X164119714Y-87736471D01*
X167266571Y-100093614D02*
X166552285Y-100593614D01*
X167266571Y-100950757D02*
X165766571Y-100950757D01*
X165766571Y-100379328D01*
X165838000Y-100236471D01*
X165909428Y-100165042D01*
X166052285Y-100093614D01*
X166266571Y-100093614D01*
X166409428Y-100165042D01*
X166480857Y-100236471D01*
X166552285Y-100379328D01*
X166552285Y-100950757D01*
X167195142Y-98879328D02*
X167266571Y-99022185D01*
X167266571Y-99307900D01*
X167195142Y-99450757D01*
X167052285Y-99522185D01*
X166480857Y-99522185D01*
X166338000Y-99450757D01*
X166266571Y-99307900D01*
X166266571Y-99022185D01*
X166338000Y-98879328D01*
X166480857Y-98807900D01*
X166623714Y-98807900D01*
X166766571Y-99522185D01*
X166266571Y-98307900D02*
X167266571Y-97950757D01*
X166266571Y-97593614D01*
X166480857Y-95379328D02*
X166552285Y-95165042D01*
X166623714Y-95093614D01*
X166766571Y-95022185D01*
X166980857Y-95022185D01*
X167123714Y-95093614D01*
X167195142Y-95165042D01*
X167266571Y-95307900D01*
X167266571Y-95879328D01*
X165766571Y-95879328D01*
X165766571Y-95379328D01*
X165838000Y-95236471D01*
X165909428Y-95165042D01*
X166052285Y-95093614D01*
X166195142Y-95093614D01*
X166338000Y-95165042D01*
X166409428Y-95236471D01*
X166480857Y-95379328D01*
X166480857Y-95879328D01*
D12*
X142209367Y-110234000D02*
X141866833Y-110234000D01*
X142209367Y-111254000D02*
X141866833Y-111254000D01*
X144092700Y-104526400D02*
X140642700Y-104526400D01*
X144092700Y-104526400D02*
X146042700Y-104526400D01*
X144092700Y-109646400D02*
X142142700Y-109646400D01*
X144092700Y-109646400D02*
X146042700Y-109646400D01*
X148252800Y-114560300D02*
X148252800Y-115460300D01*
X148252800Y-114560300D02*
X148252800Y-115460300D01*
X148252800Y-114560300D02*
X148252800Y-114560300D01*
X153092800Y-118740300D02*
X153092800Y-119220300D01*
X153092800Y-116440300D02*
X153092800Y-116960300D01*
X153092800Y-114180300D02*
X153092800Y-114660300D01*
X148252800Y-117940300D02*
X148252800Y-119220300D01*
X148252800Y-114180300D02*
X148252800Y-115460300D01*
X148252800Y-119220300D02*
X153092800Y-119220300D01*
X148252800Y-114180300D02*
X153092800Y-114180300D01*
X144304867Y-102753700D02*
X143962333Y-102753700D01*
X144304867Y-103773700D02*
X143962333Y-103773700D01*
X150681100Y-108437764D02*
X150681100Y-107233636D01*
X148861100Y-108437764D02*
X148861100Y-107233636D01*
X152654000Y-69790000D02*
X170494000Y-69790000D01*
X170494000Y-72450000D02*
X170494000Y-69790000D01*
X152654000Y-72450000D02*
X152654000Y-69790000D01*
X151384000Y-72450000D02*
X150054000Y-72450000D01*
X152654000Y-72450000D02*
X170494000Y-72450000D01*
X150054000Y-72450000D02*
X150054000Y-71120000D01*
X172974000Y-72644000D02*
X160274000Y-72644000D01*
X172974000Y-40894000D02*
X172974000Y-72644000D01*
X147574000Y-40894000D02*
X172974000Y-40894000D01*
X147574000Y-72644000D02*
X147574000Y-40894000D01*
X160274000Y-72644000D02*
X147574000Y-72644000D01*
X146857000Y-126774600D02*
X147257000Y-126774600D01*
X146857000Y-126134600D02*
X146857000Y-126774600D01*
X152877000Y-119794600D02*
X152877000Y-126534600D01*
X147097000Y-119794600D02*
X147097000Y-126534600D01*
X147097000Y-126534600D02*
X152877000Y-126534600D01*
X147097000Y-119794600D02*
X152877000Y-119794600D01*
X147097000Y-120914600D02*
X152877000Y-120914600D01*
X147097000Y-126014600D02*
X152877000Y-126014600D01*
X158922000Y-126800000D02*
X159322000Y-126800000D01*
X158922000Y-126160000D02*
X158922000Y-126800000D01*
X164942000Y-119820000D02*
X164942000Y-126560000D01*
X159162000Y-119820000D02*
X159162000Y-126560000D01*
X159162000Y-126560000D02*
X164942000Y-126560000D01*
X159162000Y-119820000D02*
X164942000Y-119820000D01*
X159162000Y-120940000D02*
X164942000Y-120940000D01*
X159162000Y-126040000D02*
X164942000Y-126040000D01*
X148698133Y-81485200D02*
X149040667Y-81485200D01*
X148698133Y-80465200D02*
X149040667Y-80465200D01*
X141142933Y-86383400D02*
X141485467Y-86383400D01*
X141142933Y-87403400D02*
X141485467Y-87403400D01*
X141376400Y-82324300D02*
X139876400Y-82324300D01*
X141376400Y-82324300D02*
X142876400Y-82324300D01*
X141376400Y-85544300D02*
X139876400Y-85544300D01*
X141376400Y-85544300D02*
X144301400Y-85544300D01*
X141485467Y-88212200D02*
X141142933Y-88212200D01*
X141485467Y-89232200D02*
X141142933Y-89232200D01*
X147470400Y-83915067D02*
X147470400Y-83572533D01*
X148490400Y-83915067D02*
X148490400Y-83572533D01*
X146521900Y-87711067D02*
X146521900Y-87368533D01*
X145501900Y-87711067D02*
X145501900Y-87368533D01*
X147470400Y-87382533D02*
X147470400Y-87725067D01*
X148490400Y-87382533D02*
X148490400Y-87725067D01*
X137811000Y-83648733D02*
X137811000Y-83991267D01*
X136791000Y-83648733D02*
X136791000Y-83991267D01*
X145270067Y-81485200D02*
X144927533Y-81485200D01*
X145270067Y-80465200D02*
X144927533Y-80465200D01*
X145501900Y-83915067D02*
X145501900Y-83572533D01*
X146521900Y-83915067D02*
X146521900Y-83572533D01*
X128210000Y-125790000D02*
X133410000Y-125790000D01*
X128210000Y-90170000D02*
X128210000Y-125790000D01*
X133410000Y-87570000D02*
X133410000Y-125790000D01*
X128210000Y-90170000D02*
X130810000Y-90170000D01*
X130810000Y-90170000D02*
X130810000Y-87570000D01*
X130810000Y-87570000D02*
X133410000Y-87570000D01*
X128210000Y-88900000D02*
X128210000Y-87570000D01*
X128210000Y-87570000D02*
X129540000Y-87570000D01*
X173930000Y-125790000D02*
X179130000Y-125790000D01*
X173930000Y-85090000D02*
X173930000Y-125790000D01*
X179130000Y-82490000D02*
X179130000Y-125790000D01*
X173930000Y-85090000D02*
X176530000Y-85090000D01*
X176530000Y-85090000D02*
X176530000Y-82490000D01*
X176530000Y-82490000D02*
X179130000Y-82490000D01*
X173930000Y-83820000D02*
X173930000Y-82490000D01*
X173930000Y-82490000D02*
X175260000Y-82490000D01*
X140555767Y-55878000D02*
X140213233Y-55878000D01*
X140555767Y-56898000D02*
X140213233Y-56898000D01*
X136527000Y-59010733D02*
X136527000Y-59353267D01*
X135507000Y-59010733D02*
X135507000Y-59353267D01*
X152011533Y-93774800D02*
X152354067Y-93774800D01*
X152011533Y-94794800D02*
X152354067Y-94794800D01*
X157224000Y-124213467D02*
X157224000Y-123870933D01*
X158244000Y-124213467D02*
X158244000Y-123870933D01*
X167892000Y-82964233D02*
X167892000Y-83306767D01*
X168912000Y-82964233D02*
X168912000Y-83306767D01*
X144481733Y-98985800D02*
X144824267Y-98985800D01*
X144481733Y-97965800D02*
X144824267Y-97965800D01*
X140616400Y-97517133D02*
X140616400Y-97859667D01*
X139596400Y-97517133D02*
X139596400Y-97859667D01*
X149064767Y-97902300D02*
X148722233Y-97902300D01*
X149064767Y-98922300D02*
X148722233Y-98922300D01*
X154053000Y-97366033D02*
X154053000Y-97708567D01*
X153033000Y-97366033D02*
X153033000Y-97708567D01*
X162177252Y-115749000D02*
X161654748Y-115749000D01*
X162177252Y-117169000D02*
X161654748Y-117169000D01*
X170196252Y-117169000D02*
X169673748Y-117169000D01*
X170196252Y-115749000D02*
X169673748Y-115749000D01*
X134651000Y-126040000D02*
X140431000Y-126040000D01*
X134651000Y-120940000D02*
X140431000Y-120940000D01*
X134651000Y-119820000D02*
X140431000Y-119820000D01*
X134651000Y-126560000D02*
X140431000Y-126560000D01*
X134651000Y-119820000D02*
X134651000Y-126560000D01*
X140431000Y-119820000D02*
X140431000Y-126560000D01*
X134411000Y-126160000D02*
X134411000Y-126800000D01*
X134411000Y-126800000D02*
X134811000Y-126800000D01*
X128150500Y-56609500D02*
X128150500Y-62389500D01*
X133250500Y-56609500D02*
X133250500Y-62389500D01*
X134370500Y-56609500D02*
X134370500Y-62389500D01*
X127630500Y-56609500D02*
X127630500Y-62389500D01*
X134370500Y-56609500D02*
X127630500Y-56609500D01*
X134370500Y-62389500D02*
X127630500Y-62389500D01*
X128030500Y-56369500D02*
X127390500Y-56369500D01*
X127390500Y-56369500D02*
X127390500Y-56769500D01*
X144836000Y-44528000D02*
X144836000Y-46078000D01*
X144836000Y-44528000D02*
X144536000Y-44528000D01*
X144536000Y-41728000D02*
X144536000Y-44528000D01*
X136536000Y-44528000D02*
X136536000Y-46078000D01*
X136836000Y-44528000D02*
X136536000Y-44528000D01*
X136836000Y-41728000D02*
X136836000Y-44528000D01*
X141586000Y-47778000D02*
X141986000Y-47328000D01*
X142386000Y-47778000D02*
X141586000Y-47778000D01*
X141986000Y-47328000D02*
X142386000Y-47778000D01*
X166655000Y-126040000D02*
X172435000Y-126040000D01*
X166655000Y-120940000D02*
X172435000Y-120940000D01*
X166655000Y-119820000D02*
X172435000Y-119820000D01*
X166655000Y-126560000D02*
X172435000Y-126560000D01*
X166655000Y-119820000D02*
X166655000Y-126560000D01*
X172435000Y-119820000D02*
X172435000Y-126560000D01*
X166415000Y-126160000D02*
X166415000Y-126800000D01*
X166415000Y-126800000D02*
X166815000Y-126800000D01*
X173930000Y-81090000D02*
X179130000Y-81090000D01*
X173930000Y-58170000D02*
X173930000Y-81090000D01*
X179130000Y-55570000D02*
X179130000Y-81090000D01*
X173930000Y-58170000D02*
X176530000Y-58170000D01*
X176530000Y-58170000D02*
X176530000Y-55570000D01*
X176530000Y-55570000D02*
X179130000Y-55570000D01*
X173930000Y-56900000D02*
X173930000Y-55570000D01*
X173930000Y-55570000D02*
X175260000Y-55570000D01*
X128210000Y-85150000D02*
X133410000Y-85150000D01*
X128210000Y-67310000D02*
X128210000Y-85150000D01*
X133410000Y-64710000D02*
X133410000Y-85150000D01*
X128210000Y-67310000D02*
X130810000Y-67310000D01*
X130810000Y-67310000D02*
X130810000Y-64710000D01*
X130810000Y-64710000D02*
X133410000Y-64710000D01*
X128210000Y-66040000D02*
X128210000Y-64710000D01*
X128210000Y-64710000D02*
X129540000Y-64710000D01*
X161485500Y-113837500D02*
X162415500Y-113837500D01*
X164645500Y-113837500D02*
X163715500Y-113837500D01*
X164645500Y-113837500D02*
X164645500Y-111677500D01*
X161485500Y-113837500D02*
X161485500Y-112377500D01*
X166504500Y-113980500D02*
X166504500Y-112520500D01*
X169664500Y-113980500D02*
X169664500Y-111820500D01*
X169664500Y-113980500D02*
X168734500Y-113980500D01*
X166504500Y-113980500D02*
X167434500Y-113980500D01*
X167070500Y-82964233D02*
X167070500Y-83306767D01*
X166050500Y-82964233D02*
X166050500Y-83306767D01*
X170753500Y-83292767D02*
X170753500Y-82950233D01*
X169733500Y-83292767D02*
X169733500Y-82950233D01*
X172658500Y-83229267D02*
X172658500Y-82886733D01*
X171638500Y-83229267D02*
X171638500Y-82886733D01*
X168654000Y-75774733D02*
X168654000Y-76117267D01*
X169674000Y-75774733D02*
X169674000Y-76117267D01*
X166749000Y-76117267D02*
X166749000Y-75774733D01*
X167769000Y-76117267D02*
X167769000Y-75774733D01*
X142619000Y-56103733D02*
X142619000Y-56446267D01*
X143639000Y-56103733D02*
X143639000Y-56446267D01*
X145607500Y-56089733D02*
X145607500Y-56432267D01*
X144587500Y-56089733D02*
X144587500Y-56432267D01*
X153668000Y-124213467D02*
X153668000Y-123870933D01*
X154688000Y-124213467D02*
X154688000Y-123870933D01*
X156466000Y-124213467D02*
X156466000Y-123870933D01*
X155446000Y-124213467D02*
X155446000Y-123870933D01*
X163510500Y-109581767D02*
X163510500Y-109239233D01*
X164530500Y-109581767D02*
X164530500Y-109239233D01*
X159412400Y-115500333D02*
X159412400Y-115842867D01*
X158392400Y-115500333D02*
X158392400Y-115842867D01*
X165704733Y-116969000D02*
X166047267Y-116969000D01*
X165704733Y-115949000D02*
X166047267Y-115949000D01*
X168400000Y-109302733D02*
X168400000Y-109645267D01*
X169420000Y-109302733D02*
X169420000Y-109645267D01*
X161669000Y-109581767D02*
X161669000Y-109239233D01*
X162689000Y-109581767D02*
X162689000Y-109239233D01*
X167611501Y-109640268D02*
X167611501Y-109297734D01*
X166591501Y-109640268D02*
X166591501Y-109297734D01*
X144495733Y-100763800D02*
X144838267Y-100763800D01*
X144495733Y-99743800D02*
X144838267Y-99743800D01*
X142470600Y-97517133D02*
X142470600Y-97859667D01*
X141450600Y-97517133D02*
X141450600Y-97859667D01*
X149078767Y-99743800D02*
X148736233Y-99743800D01*
X149078767Y-100763800D02*
X148736233Y-100763800D01*
X152211500Y-97352033D02*
X152211500Y-97694567D01*
X151191500Y-97352033D02*
X151191500Y-97694567D01*
X142470600Y-93784633D02*
X142470600Y-94127167D01*
X141450600Y-93784633D02*
X141450600Y-94127167D01*
X148287200Y-91511333D02*
X148287200Y-91853867D01*
X147267200Y-91511333D02*
X147267200Y-91853867D01*
X140641800Y-94127167D02*
X140641800Y-93784633D01*
X139621800Y-94127167D02*
X139621800Y-93784633D01*
X145514600Y-91853867D02*
X145514600Y-91511333D01*
X146534600Y-91853867D02*
X146534600Y-91511333D01*
X141369400Y-114167600D02*
X146209400Y-114167600D01*
X141369400Y-119207600D02*
X146209400Y-119207600D01*
X141369400Y-114167600D02*
X141369400Y-115447600D01*
X141369400Y-117927600D02*
X141369400Y-119207600D01*
X146209400Y-114167600D02*
X146209400Y-114647600D01*
X146209400Y-116427600D02*
X146209400Y-116947600D01*
X146209400Y-118727600D02*
X146209400Y-119207600D01*
X141369400Y-114547600D02*
X141369400Y-114547600D01*
X141369400Y-114547600D02*
X141369400Y-115447600D01*
X141369400Y-114547600D02*
X141369400Y-115447600D01*
X138736500Y-60982500D02*
X140536500Y-60982500D01*
X140536500Y-57762500D02*
X138086500Y-57762500D01*
X147002500Y-96910800D02*
X148502500Y-96910800D01*
X147002500Y-96910800D02*
X145502500Y-96910800D01*
X147002500Y-93690800D02*
X148502500Y-93690800D01*
X147002500Y-93690800D02*
X144077500Y-93690800D01*
X140068500Y-54021000D02*
X144153500Y-54021000D01*
X144153500Y-54021000D02*
X144153500Y-52151000D01*
X144153500Y-52151000D02*
X140068500Y-52151000D01*
X129548000Y-54012500D02*
X137783000Y-54012500D01*
X137783000Y-54012500D02*
X137783000Y-49492500D01*
X137783000Y-49492500D02*
X129548000Y-49492500D01*
X150489064Y-113736800D02*
X149284936Y-113736800D01*
X150489064Y-111916800D02*
X149284936Y-111916800D01*
X145191564Y-113736800D02*
X143987436Y-113736800D01*
X145191564Y-111916800D02*
X143987436Y-111916800D01*
X139314600Y-107801164D02*
X139314600Y-106597036D01*
X137494600Y-107801164D02*
X137494600Y-106597036D01*
X151384000Y-62544000D02*
X151384000Y-59884000D01*
X151384000Y-59884000D02*
X171764000Y-59884000D01*
X151384000Y-62544000D02*
X171764000Y-62544000D01*
X171764000Y-62544000D02*
X171764000Y-59884000D01*
X148784000Y-62544000D02*
X148784000Y-61214000D01*
X150114000Y-62544000D02*
X148784000Y-62544000D01*
X160274000Y-63754000D02*
X147574000Y-63754000D01*
X147574000Y-63754000D02*
X147574000Y-40894000D01*
X147574000Y-40894000D02*
X172974000Y-40894000D01*
X172974000Y-40894000D02*
X172974000Y-63754000D01*
X172974000Y-63754000D02*
X160274000Y-63754000D01*
D13*
X139114233Y-111317042D02*
X139066614Y-111364661D01*
X138923757Y-111412280D01*
X138828519Y-111412280D01*
X138685661Y-111364661D01*
X138590423Y-111269423D01*
X138542804Y-111174185D01*
X138495185Y-110983709D01*
X138495185Y-110840852D01*
X138542804Y-110650376D01*
X138590423Y-110555138D01*
X138685661Y-110459900D01*
X138828519Y-110412280D01*
X138923757Y-110412280D01*
X139066614Y-110459900D01*
X139114233Y-110507519D01*
X139447566Y-110412280D02*
X140114233Y-110412280D01*
X139685661Y-111412280D01*
X139788995Y-103097080D02*
X139788995Y-103906604D01*
X139836614Y-104001842D01*
X139884233Y-104049461D01*
X139979471Y-104097080D01*
X140169947Y-104097080D01*
X140265185Y-104049461D01*
X140312804Y-104001842D01*
X140360423Y-103906604D01*
X140360423Y-103097080D01*
X140741376Y-103097080D02*
X141360423Y-103097080D01*
X141027090Y-103478033D01*
X141169947Y-103478033D01*
X141265185Y-103525652D01*
X141312804Y-103573271D01*
X141360423Y-103668509D01*
X141360423Y-103906604D01*
X141312804Y-104001842D01*
X141265185Y-104049461D01*
X141169947Y-104097080D01*
X140884233Y-104097080D01*
X140788995Y-104049461D01*
X140741376Y-104001842D01*
X155138380Y-117308238D02*
X154662190Y-117641571D01*
X155138380Y-117879666D02*
X154138380Y-117879666D01*
X154138380Y-117498714D01*
X154186000Y-117403476D01*
X154233619Y-117355857D01*
X154328857Y-117308238D01*
X154471714Y-117308238D01*
X154566952Y-117355857D01*
X154614571Y-117403476D01*
X154662190Y-117498714D01*
X154662190Y-117879666D01*
X154138380Y-117022523D02*
X155138380Y-116689190D01*
X154138380Y-116355857D01*
X154233619Y-116070142D02*
X154186000Y-116022523D01*
X154138380Y-115927285D01*
X154138380Y-115689190D01*
X154186000Y-115593952D01*
X154233619Y-115546333D01*
X154328857Y-115498714D01*
X154424095Y-115498714D01*
X154566952Y-115546333D01*
X155138380Y-116117761D01*
X155138380Y-115498714D01*
X146543733Y-103665280D02*
X146210400Y-103189090D01*
X145972304Y-103665280D02*
X145972304Y-102665280D01*
X146353257Y-102665280D01*
X146448495Y-102712900D01*
X146496114Y-102760519D01*
X146543733Y-102855757D01*
X146543733Y-102998614D01*
X146496114Y-103093852D01*
X146448495Y-103141471D01*
X146353257Y-103189090D01*
X145972304Y-103189090D01*
X147400876Y-102665280D02*
X147210400Y-102665280D01*
X147115161Y-102712900D01*
X147067542Y-102760519D01*
X146972304Y-102903376D01*
X146924685Y-103093852D01*
X146924685Y-103474804D01*
X146972304Y-103570042D01*
X147019923Y-103617661D01*
X147115161Y-103665280D01*
X147305638Y-103665280D01*
X147400876Y-103617661D01*
X147448495Y-103570042D01*
X147496114Y-103474804D01*
X147496114Y-103236709D01*
X147448495Y-103141471D01*
X147400876Y-103093852D01*
X147305638Y-103046233D01*
X147115161Y-103046233D01*
X147019923Y-103093852D01*
X146972304Y-103141471D01*
X146924685Y-103236709D01*
X152122142Y-107964266D02*
X152169761Y-108011885D01*
X152217380Y-108154742D01*
X152217380Y-108249980D01*
X152169761Y-108392838D01*
X152074523Y-108488076D01*
X151979285Y-108535695D01*
X151788809Y-108583314D01*
X151645952Y-108583314D01*
X151455476Y-108535695D01*
X151360238Y-108488076D01*
X151265000Y-108392838D01*
X151217380Y-108249980D01*
X151217380Y-108154742D01*
X151265000Y-108011885D01*
X151312619Y-107964266D01*
X152217380Y-107488076D02*
X152217380Y-107297600D01*
X152169761Y-107202361D01*
X152122142Y-107154742D01*
X151979285Y-107059504D01*
X151788809Y-107011885D01*
X151407857Y-107011885D01*
X151312619Y-107059504D01*
X151265000Y-107107123D01*
X151217380Y-107202361D01*
X151217380Y-107392838D01*
X151265000Y-107488076D01*
X151312619Y-107535695D01*
X151407857Y-107583314D01*
X151645952Y-107583314D01*
X151741190Y-107535695D01*
X151788809Y-107488076D01*
X151836428Y-107392838D01*
X151836428Y-107202361D01*
X151788809Y-107107123D01*
X151741190Y-107059504D01*
X151645952Y-107011885D01*
X146264380Y-70945333D02*
X146978666Y-70945333D01*
X147121523Y-70992952D01*
X147216761Y-71088190D01*
X147264380Y-71231047D01*
X147264380Y-71326285D01*
X146597714Y-70040571D02*
X147264380Y-70040571D01*
X146216761Y-70278666D02*
X146931047Y-70516761D01*
X146931047Y-69897714D01*
X146315061Y-126072733D02*
X146362680Y-125929876D01*
X146362680Y-125691780D01*
X146315061Y-125596542D01*
X146267442Y-125548923D01*
X146172204Y-125501304D01*
X146076966Y-125501304D01*
X145981728Y-125548923D01*
X145934109Y-125596542D01*
X145886490Y-125691780D01*
X145838871Y-125882257D01*
X145791252Y-125977495D01*
X145743633Y-126025114D01*
X145648395Y-126072733D01*
X145553157Y-126072733D01*
X145457919Y-126025114D01*
X145410300Y-125977495D01*
X145362680Y-125882257D01*
X145362680Y-125644161D01*
X145410300Y-125501304D01*
X145362680Y-125167971D02*
X146362680Y-124929876D01*
X145648395Y-124739400D01*
X146362680Y-124548923D01*
X145362680Y-124310828D01*
X146362680Y-123406066D02*
X146362680Y-123977495D01*
X146362680Y-123691780D02*
X145362680Y-123691780D01*
X145505538Y-123787019D01*
X145600776Y-123882257D01*
X145648395Y-123977495D01*
X158670666Y-118324380D02*
X158670666Y-119038666D01*
X158623047Y-119181523D01*
X158527809Y-119276761D01*
X158384952Y-119324380D01*
X158289714Y-119324380D01*
X159623047Y-118324380D02*
X159146857Y-118324380D01*
X159099238Y-118800571D01*
X159146857Y-118752952D01*
X159242095Y-118705333D01*
X159480190Y-118705333D01*
X159575428Y-118752952D01*
X159623047Y-118800571D01*
X159670666Y-118895809D01*
X159670666Y-119133904D01*
X159623047Y-119229142D01*
X159575428Y-119276761D01*
X159480190Y-119324380D01*
X159242095Y-119324380D01*
X159146857Y-119276761D01*
X159099238Y-119229142D01*
X148250352Y-79997580D02*
X147917019Y-79521390D01*
X147678923Y-79997580D02*
X147678923Y-78997580D01*
X148059876Y-78997580D01*
X148155114Y-79045200D01*
X148202733Y-79092819D01*
X148250352Y-79188057D01*
X148250352Y-79330914D01*
X148202733Y-79426152D01*
X148155114Y-79473771D01*
X148059876Y-79521390D01*
X147678923Y-79521390D01*
X148678923Y-79997580D02*
X148678923Y-78997580D01*
X148678923Y-79378533D02*
X148774161Y-79330914D01*
X148964638Y-79330914D01*
X149059876Y-79378533D01*
X149107495Y-79426152D01*
X149155114Y-79521390D01*
X149155114Y-79807104D01*
X149107495Y-79902342D01*
X149059876Y-79949961D01*
X148964638Y-79997580D01*
X148774161Y-79997580D01*
X148678923Y-79949961D01*
X150059876Y-78997580D02*
X149583685Y-78997580D01*
X149536066Y-79473771D01*
X149583685Y-79426152D01*
X149678923Y-79378533D01*
X149917019Y-79378533D01*
X150012257Y-79426152D01*
X150059876Y-79473771D01*
X150107495Y-79569009D01*
X150107495Y-79807104D01*
X150059876Y-79902342D01*
X150012257Y-79949961D01*
X149917019Y-79997580D01*
X149678923Y-79997580D01*
X149583685Y-79949961D01*
X149536066Y-79902342D01*
X137531552Y-87498180D02*
X137198219Y-87021990D01*
X136960123Y-87498180D02*
X136960123Y-86498180D01*
X137341076Y-86498180D01*
X137436314Y-86545800D01*
X137483933Y-86593419D01*
X137531552Y-86688657D01*
X137531552Y-86831514D01*
X137483933Y-86926752D01*
X137436314Y-86974371D01*
X137341076Y-87021990D01*
X136960123Y-87021990D01*
X138388695Y-87498180D02*
X138388695Y-86974371D01*
X138341076Y-86879133D01*
X138245838Y-86831514D01*
X138055361Y-86831514D01*
X137960123Y-86879133D01*
X138388695Y-87450561D02*
X138293457Y-87498180D01*
X138055361Y-87498180D01*
X137960123Y-87450561D01*
X137912504Y-87355323D01*
X137912504Y-87260085D01*
X137960123Y-87164847D01*
X138055361Y-87117228D01*
X138293457Y-87117228D01*
X138388695Y-87069609D01*
X138817266Y-86593419D02*
X138864885Y-86545800D01*
X138960123Y-86498180D01*
X139198219Y-86498180D01*
X139293457Y-86545800D01*
X139341076Y-86593419D01*
X139388695Y-86688657D01*
X139388695Y-86783895D01*
X139341076Y-86926752D01*
X138769647Y-87498180D01*
X139388695Y-87498180D01*
X139750895Y-80808580D02*
X139750895Y-81618104D01*
X139798514Y-81713342D01*
X139846133Y-81760961D01*
X139941371Y-81808580D01*
X140131847Y-81808580D01*
X140227085Y-81760961D01*
X140274704Y-81713342D01*
X140322323Y-81618104D01*
X140322323Y-80808580D01*
X140750895Y-80903819D02*
X140798514Y-80856200D01*
X140893752Y-80808580D01*
X141131847Y-80808580D01*
X141227085Y-80856200D01*
X141274704Y-80903819D01*
X141322323Y-80999057D01*
X141322323Y-81094295D01*
X141274704Y-81237152D01*
X140703276Y-81808580D01*
X141322323Y-81808580D01*
X137531552Y-89199980D02*
X137198219Y-88723790D01*
X136960123Y-89199980D02*
X136960123Y-88199980D01*
X137341076Y-88199980D01*
X137436314Y-88247600D01*
X137483933Y-88295219D01*
X137531552Y-88390457D01*
X137531552Y-88533314D01*
X137483933Y-88628552D01*
X137436314Y-88676171D01*
X137341076Y-88723790D01*
X136960123Y-88723790D01*
X138388695Y-89199980D02*
X138388695Y-88676171D01*
X138341076Y-88580933D01*
X138245838Y-88533314D01*
X138055361Y-88533314D01*
X137960123Y-88580933D01*
X138388695Y-89152361D02*
X138293457Y-89199980D01*
X138055361Y-89199980D01*
X137960123Y-89152361D01*
X137912504Y-89057123D01*
X137912504Y-88961885D01*
X137960123Y-88866647D01*
X138055361Y-88819028D01*
X138293457Y-88819028D01*
X138388695Y-88771409D01*
X139388695Y-89199980D02*
X138817266Y-89199980D01*
X139102980Y-89199980D02*
X139102980Y-88199980D01*
X139007742Y-88342838D01*
X138912504Y-88438076D01*
X138817266Y-88485695D01*
X151582380Y-84553347D02*
X151106190Y-84886680D01*
X151582380Y-85124776D02*
X150582380Y-85124776D01*
X150582380Y-84743823D01*
X150630000Y-84648585D01*
X150677619Y-84600966D01*
X150772857Y-84553347D01*
X150915714Y-84553347D01*
X151010952Y-84600966D01*
X151058571Y-84648585D01*
X151106190Y-84743823D01*
X151106190Y-85124776D01*
X151582380Y-84124776D02*
X150582380Y-84124776D01*
X150963333Y-84124776D02*
X150915714Y-84029538D01*
X150915714Y-83839061D01*
X150963333Y-83743823D01*
X151010952Y-83696204D01*
X151106190Y-83648585D01*
X151391904Y-83648585D01*
X151487142Y-83696204D01*
X151534761Y-83743823D01*
X151582380Y-83839061D01*
X151582380Y-84029538D01*
X151534761Y-84124776D01*
X150582380Y-82791442D02*
X150582380Y-82981919D01*
X150630000Y-83077157D01*
X150677619Y-83124776D01*
X150820476Y-83220014D01*
X151010952Y-83267633D01*
X151391904Y-83267633D01*
X151487142Y-83220014D01*
X151534761Y-83172395D01*
X151582380Y-83077157D01*
X151582380Y-82886680D01*
X151534761Y-82791442D01*
X151487142Y-82743823D01*
X151391904Y-82696204D01*
X151153809Y-82696204D01*
X151058571Y-82743823D01*
X151010952Y-82791442D01*
X150963333Y-82886680D01*
X150963333Y-83077157D01*
X151010952Y-83172395D01*
X151058571Y-83220014D01*
X151153809Y-83267633D01*
X150058380Y-88082380D02*
X149582190Y-88415714D01*
X150058380Y-88653809D02*
X149058380Y-88653809D01*
X149058380Y-88272857D01*
X149106000Y-88177619D01*
X149153619Y-88130000D01*
X149248857Y-88082380D01*
X149391714Y-88082380D01*
X149486952Y-88130000D01*
X149534571Y-88177619D01*
X149582190Y-88272857D01*
X149582190Y-88653809D01*
X149391714Y-87796666D02*
X149391714Y-87415714D01*
X150058380Y-87653809D02*
X149201238Y-87653809D01*
X149106000Y-87606190D01*
X149058380Y-87510952D01*
X149058380Y-87415714D01*
X149058380Y-87177619D02*
X149058380Y-86558571D01*
X149439333Y-86891904D01*
X149439333Y-86749047D01*
X149486952Y-86653809D01*
X149534571Y-86606190D01*
X149629809Y-86558571D01*
X149867904Y-86558571D01*
X149963142Y-86606190D01*
X150010761Y-86653809D01*
X150058380Y-86749047D01*
X150058380Y-87034761D01*
X150010761Y-87130000D01*
X149963142Y-87177619D01*
X151582380Y-88109347D02*
X151106190Y-88442680D01*
X151582380Y-88680776D02*
X150582380Y-88680776D01*
X150582380Y-88299823D01*
X150630000Y-88204585D01*
X150677619Y-88156966D01*
X150772857Y-88109347D01*
X150915714Y-88109347D01*
X151010952Y-88156966D01*
X151058571Y-88204585D01*
X151106190Y-88299823D01*
X151106190Y-88680776D01*
X150915714Y-87252204D02*
X151725238Y-87252204D01*
X151820476Y-87299823D01*
X151868095Y-87347442D01*
X151915714Y-87442680D01*
X151915714Y-87585538D01*
X151868095Y-87680776D01*
X151534761Y-87252204D02*
X151582380Y-87347442D01*
X151582380Y-87537919D01*
X151534761Y-87633157D01*
X151487142Y-87680776D01*
X151391904Y-87728395D01*
X151106190Y-87728395D01*
X151010952Y-87680776D01*
X150963333Y-87633157D01*
X150915714Y-87537919D01*
X150915714Y-87347442D01*
X150963333Y-87252204D01*
X150582380Y-86871252D02*
X150582380Y-86252204D01*
X150963333Y-86585538D01*
X150963333Y-86442680D01*
X151010952Y-86347442D01*
X151058571Y-86299823D01*
X151153809Y-86252204D01*
X151391904Y-86252204D01*
X151487142Y-86299823D01*
X151534761Y-86347442D01*
X151582380Y-86442680D01*
X151582380Y-86728395D01*
X151534761Y-86823633D01*
X151487142Y-86871252D01*
X136247142Y-83986666D02*
X136294761Y-84034285D01*
X136342380Y-84177142D01*
X136342380Y-84272380D01*
X136294761Y-84415238D01*
X136199523Y-84510476D01*
X136104285Y-84558095D01*
X135913809Y-84605714D01*
X135770952Y-84605714D01*
X135580476Y-84558095D01*
X135485238Y-84510476D01*
X135390000Y-84415238D01*
X135342380Y-84272380D01*
X135342380Y-84177142D01*
X135390000Y-84034285D01*
X135437619Y-83986666D01*
X135342380Y-83129523D02*
X135342380Y-83320000D01*
X135390000Y-83415238D01*
X135437619Y-83462857D01*
X135580476Y-83558095D01*
X135770952Y-83605714D01*
X136151904Y-83605714D01*
X136247142Y-83558095D01*
X136294761Y-83510476D01*
X136342380Y-83415238D01*
X136342380Y-83224761D01*
X136294761Y-83129523D01*
X136247142Y-83081904D01*
X136151904Y-83034285D01*
X135913809Y-83034285D01*
X135818571Y-83081904D01*
X135770952Y-83129523D01*
X135723333Y-83224761D01*
X135723333Y-83415238D01*
X135770952Y-83510476D01*
X135818571Y-83558095D01*
X135913809Y-83605714D01*
X144479752Y-79871842D02*
X144432133Y-79919461D01*
X144289276Y-79967080D01*
X144194038Y-79967080D01*
X144051180Y-79919461D01*
X143955942Y-79824223D01*
X143908323Y-79728985D01*
X143860704Y-79538509D01*
X143860704Y-79395652D01*
X143908323Y-79205176D01*
X143955942Y-79109938D01*
X144051180Y-79014700D01*
X144194038Y-78967080D01*
X144289276Y-78967080D01*
X144432133Y-79014700D01*
X144479752Y-79062319D01*
X144908323Y-79967080D02*
X144908323Y-78967080D01*
X144908323Y-79348033D02*
X145003561Y-79300414D01*
X145194038Y-79300414D01*
X145289276Y-79348033D01*
X145336895Y-79395652D01*
X145384514Y-79490890D01*
X145384514Y-79776604D01*
X145336895Y-79871842D01*
X145289276Y-79919461D01*
X145194038Y-79967080D01*
X145003561Y-79967080D01*
X144908323Y-79919461D01*
X146289276Y-78967080D02*
X145813085Y-78967080D01*
X145765466Y-79443271D01*
X145813085Y-79395652D01*
X145908323Y-79348033D01*
X146146419Y-79348033D01*
X146241657Y-79395652D01*
X146289276Y-79443271D01*
X146336895Y-79538509D01*
X146336895Y-79776604D01*
X146289276Y-79871842D01*
X146241657Y-79919461D01*
X146146419Y-79967080D01*
X145908323Y-79967080D01*
X145813085Y-79919461D01*
X145765466Y-79871842D01*
X149963142Y-84553347D02*
X150010761Y-84600966D01*
X150058380Y-84743823D01*
X150058380Y-84839061D01*
X150010761Y-84981919D01*
X149915523Y-85077157D01*
X149820285Y-85124776D01*
X149629809Y-85172395D01*
X149486952Y-85172395D01*
X149296476Y-85124776D01*
X149201238Y-85077157D01*
X149106000Y-84981919D01*
X149058380Y-84839061D01*
X149058380Y-84743823D01*
X149106000Y-84600966D01*
X149153619Y-84553347D01*
X150058380Y-84124776D02*
X149058380Y-84124776D01*
X149439333Y-84124776D02*
X149391714Y-84029538D01*
X149391714Y-83839061D01*
X149439333Y-83743823D01*
X149486952Y-83696204D01*
X149582190Y-83648585D01*
X149867904Y-83648585D01*
X149963142Y-83696204D01*
X150010761Y-83743823D01*
X150058380Y-83839061D01*
X150058380Y-84029538D01*
X150010761Y-84124776D01*
X149058380Y-82791442D02*
X149058380Y-82981919D01*
X149106000Y-83077157D01*
X149153619Y-83124776D01*
X149296476Y-83220014D01*
X149486952Y-83267633D01*
X149867904Y-83267633D01*
X149963142Y-83220014D01*
X150010761Y-83172395D01*
X150058380Y-83077157D01*
X150058380Y-82886680D01*
X150010761Y-82791442D01*
X149963142Y-82743823D01*
X149867904Y-82696204D01*
X149629809Y-82696204D01*
X149534571Y-82743823D01*
X149486952Y-82791442D01*
X149439333Y-82886680D01*
X149439333Y-83077157D01*
X149486952Y-83172395D01*
X149534571Y-83220014D01*
X149629809Y-83267633D01*
X130476666Y-86022380D02*
X130476666Y-86736666D01*
X130429047Y-86879523D01*
X130333809Y-86974761D01*
X130190952Y-87022380D01*
X130095714Y-87022380D01*
X131000476Y-87022380D02*
X131190952Y-87022380D01*
X131286190Y-86974761D01*
X131333809Y-86927142D01*
X131429047Y-86784285D01*
X131476666Y-86593809D01*
X131476666Y-86212857D01*
X131429047Y-86117619D01*
X131381428Y-86070000D01*
X131286190Y-86022380D01*
X131095714Y-86022380D01*
X131000476Y-86070000D01*
X130952857Y-86117619D01*
X130905238Y-86212857D01*
X130905238Y-86450952D01*
X130952857Y-86546190D01*
X131000476Y-86593809D01*
X131095714Y-86641428D01*
X131286190Y-86641428D01*
X131381428Y-86593809D01*
X131429047Y-86546190D01*
X131476666Y-86450952D01*
X171275476Y-85812380D02*
X171275476Y-86526666D01*
X171227857Y-86669523D01*
X171132619Y-86764761D01*
X170989761Y-86812380D01*
X170894523Y-86812380D01*
X172275476Y-86812380D02*
X171704047Y-86812380D01*
X171989761Y-86812380D02*
X171989761Y-85812380D01*
X171894523Y-85955238D01*
X171799285Y-86050476D01*
X171704047Y-86098095D01*
X172894523Y-85812380D02*
X172989761Y-85812380D01*
X173085000Y-85860000D01*
X173132619Y-85907619D01*
X173180238Y-86002857D01*
X173227857Y-86193333D01*
X173227857Y-86431428D01*
X173180238Y-86621904D01*
X173132619Y-86717142D01*
X173085000Y-86764761D01*
X172989761Y-86812380D01*
X172894523Y-86812380D01*
X172799285Y-86764761D01*
X172751666Y-86717142D01*
X172704047Y-86621904D01*
X172656428Y-86431428D01*
X172656428Y-86193333D01*
X172704047Y-86002857D01*
X172751666Y-85907619D01*
X172799285Y-85860000D01*
X172894523Y-85812380D01*
X140168333Y-55221142D02*
X140120714Y-55268761D01*
X139977857Y-55316380D01*
X139882619Y-55316380D01*
X139739761Y-55268761D01*
X139644523Y-55173523D01*
X139596904Y-55078285D01*
X139549285Y-54887809D01*
X139549285Y-54744952D01*
X139596904Y-54554476D01*
X139644523Y-54459238D01*
X139739761Y-54364000D01*
X139882619Y-54316380D01*
X139977857Y-54316380D01*
X140120714Y-54364000D01*
X140168333Y-54411619D01*
X140501666Y-54316380D02*
X141120714Y-54316380D01*
X140787380Y-54697333D01*
X140930238Y-54697333D01*
X141025476Y-54744952D01*
X141073095Y-54792571D01*
X141120714Y-54887809D01*
X141120714Y-55125904D01*
X141073095Y-55221142D01*
X141025476Y-55268761D01*
X140930238Y-55316380D01*
X140644523Y-55316380D01*
X140549285Y-55268761D01*
X140501666Y-55221142D01*
X136374142Y-56554666D02*
X136421761Y-56602285D01*
X136469380Y-56745142D01*
X136469380Y-56840380D01*
X136421761Y-56983238D01*
X136326523Y-57078476D01*
X136231285Y-57126095D01*
X136040809Y-57173714D01*
X135897952Y-57173714D01*
X135707476Y-57126095D01*
X135612238Y-57078476D01*
X135517000Y-56983238D01*
X135469380Y-56840380D01*
X135469380Y-56745142D01*
X135517000Y-56602285D01*
X135564619Y-56554666D01*
X135802714Y-55697523D02*
X136469380Y-55697523D01*
X135421761Y-55935619D02*
X136136047Y-56173714D01*
X136136047Y-55554666D01*
X154773333Y-94692742D02*
X154725714Y-94740361D01*
X154582857Y-94787980D01*
X154487619Y-94787980D01*
X154344761Y-94740361D01*
X154249523Y-94645123D01*
X154201904Y-94549885D01*
X154154285Y-94359409D01*
X154154285Y-94216552D01*
X154201904Y-94026076D01*
X154249523Y-93930838D01*
X154344761Y-93835600D01*
X154487619Y-93787980D01*
X154582857Y-93787980D01*
X154725714Y-93835600D01*
X154773333Y-93883219D01*
X155678095Y-93787980D02*
X155201904Y-93787980D01*
X155154285Y-94264171D01*
X155201904Y-94216552D01*
X155297142Y-94168933D01*
X155535238Y-94168933D01*
X155630476Y-94216552D01*
X155678095Y-94264171D01*
X155725714Y-94359409D01*
X155725714Y-94597504D01*
X155678095Y-94692742D01*
X155630476Y-94740361D01*
X155535238Y-94787980D01*
X155297142Y-94787980D01*
X155201904Y-94740361D01*
X155154285Y-94692742D01*
X158091142Y-120511866D02*
X158138761Y-120559485D01*
X158186380Y-120702342D01*
X158186380Y-120797580D01*
X158138761Y-120940438D01*
X158043523Y-121035676D01*
X157948285Y-121083295D01*
X157757809Y-121130914D01*
X157614952Y-121130914D01*
X157424476Y-121083295D01*
X157329238Y-121035676D01*
X157234000Y-120940438D01*
X157186380Y-120797580D01*
X157186380Y-120702342D01*
X157234000Y-120559485D01*
X157281619Y-120511866D01*
X157614952Y-119940438D02*
X157567333Y-120035676D01*
X157519714Y-120083295D01*
X157424476Y-120130914D01*
X157376857Y-120130914D01*
X157281619Y-120083295D01*
X157234000Y-120035676D01*
X157186380Y-119940438D01*
X157186380Y-119749961D01*
X157234000Y-119654723D01*
X157281619Y-119607104D01*
X157376857Y-119559485D01*
X157424476Y-119559485D01*
X157519714Y-119607104D01*
X157567333Y-119654723D01*
X157614952Y-119749961D01*
X157614952Y-119940438D01*
X157662571Y-120035676D01*
X157710190Y-120083295D01*
X157805428Y-120130914D01*
X157995904Y-120130914D01*
X158091142Y-120083295D01*
X158138761Y-120035676D01*
X158186380Y-119940438D01*
X158186380Y-119749961D01*
X158138761Y-119654723D01*
X158091142Y-119607104D01*
X157995904Y-119559485D01*
X157805428Y-119559485D01*
X157710190Y-119607104D01*
X157662571Y-119654723D01*
X157614952Y-119749961D01*
X168759142Y-80398857D02*
X168806761Y-80446476D01*
X168854380Y-80589333D01*
X168854380Y-80684571D01*
X168806761Y-80827428D01*
X168711523Y-80922666D01*
X168616285Y-80970285D01*
X168425809Y-81017904D01*
X168282952Y-81017904D01*
X168092476Y-80970285D01*
X167997238Y-80922666D01*
X167902000Y-80827428D01*
X167854380Y-80684571D01*
X167854380Y-80589333D01*
X167902000Y-80446476D01*
X167949619Y-80398857D01*
X168854380Y-79446476D02*
X168854380Y-80017904D01*
X168854380Y-79732190D02*
X167854380Y-79732190D01*
X167997238Y-79827428D01*
X168092476Y-79922666D01*
X168140095Y-80017904D01*
X167854380Y-78827428D02*
X167854380Y-78732190D01*
X167902000Y-78636952D01*
X167949619Y-78589333D01*
X168044857Y-78541714D01*
X168235333Y-78494095D01*
X168473428Y-78494095D01*
X168663904Y-78541714D01*
X168759142Y-78589333D01*
X168806761Y-78636952D01*
X168854380Y-78732190D01*
X168854380Y-78827428D01*
X168806761Y-78922666D01*
X168759142Y-78970285D01*
X168663904Y-79017904D01*
X168473428Y-79065523D01*
X168235333Y-79065523D01*
X168044857Y-79017904D01*
X167949619Y-78970285D01*
X167902000Y-78922666D01*
X167854380Y-78827428D01*
X140820852Y-100737942D02*
X140773233Y-100785561D01*
X140630376Y-100833180D01*
X140535138Y-100833180D01*
X140392280Y-100785561D01*
X140297042Y-100690323D01*
X140249423Y-100595085D01*
X140201804Y-100404609D01*
X140201804Y-100261752D01*
X140249423Y-100071276D01*
X140297042Y-99976038D01*
X140392280Y-99880800D01*
X140535138Y-99833180D01*
X140630376Y-99833180D01*
X140773233Y-99880800D01*
X140820852Y-99928419D01*
X141249423Y-100833180D02*
X141249423Y-99833180D01*
X141249423Y-100214133D02*
X141344661Y-100166514D01*
X141535138Y-100166514D01*
X141630376Y-100214133D01*
X141677995Y-100261752D01*
X141725614Y-100356990D01*
X141725614Y-100642704D01*
X141677995Y-100737942D01*
X141630376Y-100785561D01*
X141535138Y-100833180D01*
X141344661Y-100833180D01*
X141249423Y-100785561D01*
X142677995Y-100833180D02*
X142106566Y-100833180D01*
X142392280Y-100833180D02*
X142392280Y-99833180D01*
X142297042Y-99976038D01*
X142201804Y-100071276D01*
X142106566Y-100118895D01*
X137263142Y-98536047D02*
X137310761Y-98583666D01*
X137358380Y-98726523D01*
X137358380Y-98821761D01*
X137310761Y-98964619D01*
X137215523Y-99059857D01*
X137120285Y-99107476D01*
X136929809Y-99155095D01*
X136786952Y-99155095D01*
X136596476Y-99107476D01*
X136501238Y-99059857D01*
X136406000Y-98964619D01*
X136358380Y-98821761D01*
X136358380Y-98726523D01*
X136406000Y-98583666D01*
X136453619Y-98536047D01*
X137358380Y-98107476D02*
X136358380Y-98107476D01*
X136739333Y-98107476D02*
X136691714Y-98012238D01*
X136691714Y-97821761D01*
X136739333Y-97726523D01*
X136786952Y-97678904D01*
X136882190Y-97631285D01*
X137167904Y-97631285D01*
X137263142Y-97678904D01*
X137310761Y-97726523D01*
X137358380Y-97821761D01*
X137358380Y-98012238D01*
X137310761Y-98107476D01*
X136453619Y-97250333D02*
X136406000Y-97202714D01*
X136358380Y-97107476D01*
X136358380Y-96869380D01*
X136406000Y-96774142D01*
X136453619Y-96726523D01*
X136548857Y-96678904D01*
X136644095Y-96678904D01*
X136786952Y-96726523D01*
X137358380Y-97297952D01*
X137358380Y-96678904D01*
X149939452Y-102198442D02*
X149891833Y-102246061D01*
X149748976Y-102293680D01*
X149653738Y-102293680D01*
X149510880Y-102246061D01*
X149415642Y-102150823D01*
X149368023Y-102055585D01*
X149320404Y-101865109D01*
X149320404Y-101722252D01*
X149368023Y-101531776D01*
X149415642Y-101436538D01*
X149510880Y-101341300D01*
X149653738Y-101293680D01*
X149748976Y-101293680D01*
X149891833Y-101341300D01*
X149939452Y-101388919D01*
X150368023Y-102293680D02*
X150368023Y-101293680D01*
X150368023Y-101674633D02*
X150463261Y-101627014D01*
X150653738Y-101627014D01*
X150748976Y-101674633D01*
X150796595Y-101722252D01*
X150844214Y-101817490D01*
X150844214Y-102103204D01*
X150796595Y-102198442D01*
X150748976Y-102246061D01*
X150653738Y-102293680D01*
X150463261Y-102293680D01*
X150368023Y-102246061D01*
X151177547Y-101293680D02*
X151796595Y-101293680D01*
X151463261Y-101674633D01*
X151606119Y-101674633D01*
X151701357Y-101722252D01*
X151748976Y-101769871D01*
X151796595Y-101865109D01*
X151796595Y-102103204D01*
X151748976Y-102198442D01*
X151701357Y-102246061D01*
X151606119Y-102293680D01*
X151320404Y-102293680D01*
X151225166Y-102246061D01*
X151177547Y-102198442D01*
X157075142Y-98332847D02*
X157122761Y-98380466D01*
X157170380Y-98523323D01*
X157170380Y-98618561D01*
X157122761Y-98761419D01*
X157027523Y-98856657D01*
X156932285Y-98904276D01*
X156741809Y-98951895D01*
X156598952Y-98951895D01*
X156408476Y-98904276D01*
X156313238Y-98856657D01*
X156218000Y-98761419D01*
X156170380Y-98618561D01*
X156170380Y-98523323D01*
X156218000Y-98380466D01*
X156265619Y-98332847D01*
X157170380Y-97904276D02*
X156170380Y-97904276D01*
X156551333Y-97904276D02*
X156503714Y-97809038D01*
X156503714Y-97618561D01*
X156551333Y-97523323D01*
X156598952Y-97475704D01*
X156694190Y-97428085D01*
X156979904Y-97428085D01*
X157075142Y-97475704D01*
X157122761Y-97523323D01*
X157170380Y-97618561D01*
X157170380Y-97809038D01*
X157122761Y-97904276D01*
X156503714Y-96570942D02*
X157170380Y-96570942D01*
X156122761Y-96809038D02*
X156837047Y-97047133D01*
X156837047Y-96428085D01*
X161177904Y-118561380D02*
X161177904Y-117561380D01*
X161416000Y-117561380D01*
X161558857Y-117609000D01*
X161654095Y-117704238D01*
X161701714Y-117799476D01*
X161749333Y-117989952D01*
X161749333Y-118132809D01*
X161701714Y-118323285D01*
X161654095Y-118418523D01*
X161558857Y-118513761D01*
X161416000Y-118561380D01*
X161177904Y-118561380D01*
X162701714Y-118561380D02*
X162130285Y-118561380D01*
X162416000Y-118561380D02*
X162416000Y-117561380D01*
X162320761Y-117704238D01*
X162225523Y-117799476D01*
X162130285Y-117847095D01*
X169196904Y-118561380D02*
X169196904Y-117561380D01*
X169435000Y-117561380D01*
X169577857Y-117609000D01*
X169673095Y-117704238D01*
X169720714Y-117799476D01*
X169768333Y-117989952D01*
X169768333Y-118132809D01*
X169720714Y-118323285D01*
X169673095Y-118418523D01*
X169577857Y-118513761D01*
X169435000Y-118561380D01*
X169196904Y-118561380D01*
X170149285Y-117656619D02*
X170196904Y-117609000D01*
X170292142Y-117561380D01*
X170530238Y-117561380D01*
X170625476Y-117609000D01*
X170673095Y-117656619D01*
X170720714Y-117751857D01*
X170720714Y-117847095D01*
X170673095Y-117989952D01*
X170101666Y-118561380D01*
X170720714Y-118561380D01*
X137207666Y-118272380D02*
X137207666Y-118986666D01*
X137160047Y-119129523D01*
X137064809Y-119224761D01*
X136921952Y-119272380D01*
X136826714Y-119272380D01*
X138207666Y-119272380D02*
X137636238Y-119272380D01*
X137921952Y-119272380D02*
X137921952Y-118272380D01*
X137826714Y-118415238D01*
X137731476Y-118510476D01*
X137636238Y-118558095D01*
X135302666Y-61682380D02*
X135302666Y-62396666D01*
X135255047Y-62539523D01*
X135159809Y-62634761D01*
X135016952Y-62682380D01*
X134921714Y-62682380D01*
X135731238Y-61777619D02*
X135778857Y-61730000D01*
X135874095Y-61682380D01*
X136112190Y-61682380D01*
X136207428Y-61730000D01*
X136255047Y-61777619D01*
X136302666Y-61872857D01*
X136302666Y-61968095D01*
X136255047Y-62110952D01*
X135683619Y-62682380D01*
X136302666Y-62682380D01*
X135175666Y-41616380D02*
X135175666Y-42330666D01*
X135128047Y-42473523D01*
X135032809Y-42568761D01*
X134889952Y-42616380D01*
X134794714Y-42616380D01*
X135556619Y-41616380D02*
X136175666Y-41616380D01*
X135842333Y-41997333D01*
X135985190Y-41997333D01*
X136080428Y-42044952D01*
X136128047Y-42092571D01*
X136175666Y-42187809D01*
X136175666Y-42425904D01*
X136128047Y-42521142D01*
X136080428Y-42568761D01*
X135985190Y-42616380D01*
X135699476Y-42616380D01*
X135604238Y-42568761D01*
X135556619Y-42521142D01*
X171878666Y-118324380D02*
X171878666Y-119038666D01*
X171831047Y-119181523D01*
X171735809Y-119276761D01*
X171592952Y-119324380D01*
X171497714Y-119324380D01*
X172783428Y-118324380D02*
X172592952Y-118324380D01*
X172497714Y-118372000D01*
X172450095Y-118419619D01*
X172354857Y-118562476D01*
X172307238Y-118752952D01*
X172307238Y-119133904D01*
X172354857Y-119229142D01*
X172402476Y-119276761D01*
X172497714Y-119324380D01*
X172688190Y-119324380D01*
X172783428Y-119276761D01*
X172831047Y-119229142D01*
X172878666Y-119133904D01*
X172878666Y-118895809D01*
X172831047Y-118800571D01*
X172783428Y-118752952D01*
X172688190Y-118705333D01*
X172497714Y-118705333D01*
X172402476Y-118752952D01*
X172354857Y-118800571D01*
X172307238Y-118895809D01*
X176196666Y-54022380D02*
X176196666Y-54736666D01*
X176149047Y-54879523D01*
X176053809Y-54974761D01*
X175910952Y-55022380D01*
X175815714Y-55022380D01*
X176577619Y-54022380D02*
X177244285Y-54022380D01*
X176815714Y-55022380D01*
X130476666Y-63162380D02*
X130476666Y-63876666D01*
X130429047Y-64019523D01*
X130333809Y-64114761D01*
X130190952Y-64162380D01*
X130095714Y-64162380D01*
X131095714Y-63590952D02*
X131000476Y-63543333D01*
X130952857Y-63495714D01*
X130905238Y-63400476D01*
X130905238Y-63352857D01*
X130952857Y-63257619D01*
X131000476Y-63210000D01*
X131095714Y-63162380D01*
X131286190Y-63162380D01*
X131381428Y-63210000D01*
X131429047Y-63257619D01*
X131476666Y-63352857D01*
X131476666Y-63400476D01*
X131429047Y-63495714D01*
X131381428Y-63543333D01*
X131286190Y-63590952D01*
X131095714Y-63590952D01*
X131000476Y-63638571D01*
X130952857Y-63686190D01*
X130905238Y-63781428D01*
X130905238Y-63971904D01*
X130952857Y-64067142D01*
X131000476Y-64114761D01*
X131095714Y-64162380D01*
X131286190Y-64162380D01*
X131381428Y-64114761D01*
X131429047Y-64067142D01*
X131476666Y-63971904D01*
X131476666Y-63781428D01*
X131429047Y-63686190D01*
X131381428Y-63638571D01*
X131286190Y-63590952D01*
X161075619Y-113172738D02*
X161028000Y-113267976D01*
X160932761Y-113363214D01*
X160789904Y-113506071D01*
X160742285Y-113601309D01*
X160742285Y-113696547D01*
X160980380Y-113648928D02*
X160932761Y-113744166D01*
X160837523Y-113839404D01*
X160647047Y-113887023D01*
X160313714Y-113887023D01*
X160123238Y-113839404D01*
X160028000Y-113744166D01*
X159980380Y-113648928D01*
X159980380Y-113458452D01*
X160028000Y-113363214D01*
X160123238Y-113267976D01*
X160313714Y-113220357D01*
X160647047Y-113220357D01*
X160837523Y-113267976D01*
X160932761Y-113363214D01*
X160980380Y-113458452D01*
X160980380Y-113648928D01*
X160980380Y-112267976D02*
X160980380Y-112839404D01*
X160980380Y-112553690D02*
X159980380Y-112553690D01*
X160123238Y-112648928D01*
X160218476Y-112744166D01*
X160266095Y-112839404D01*
X171132119Y-113315738D02*
X171084500Y-113410976D01*
X170989261Y-113506214D01*
X170846404Y-113649071D01*
X170798785Y-113744309D01*
X170798785Y-113839547D01*
X171036880Y-113791928D02*
X170989261Y-113887166D01*
X170894023Y-113982404D01*
X170703547Y-114030023D01*
X170370214Y-114030023D01*
X170179738Y-113982404D01*
X170084500Y-113887166D01*
X170036880Y-113791928D01*
X170036880Y-113601452D01*
X170084500Y-113506214D01*
X170179738Y-113410976D01*
X170370214Y-113363357D01*
X170703547Y-113363357D01*
X170894023Y-113410976D01*
X170989261Y-113506214D01*
X171036880Y-113601452D01*
X171036880Y-113791928D01*
X170132119Y-112982404D02*
X170084500Y-112934785D01*
X170036880Y-112839547D01*
X170036880Y-112601452D01*
X170084500Y-112506214D01*
X170132119Y-112458595D01*
X170227357Y-112410976D01*
X170322595Y-112410976D01*
X170465452Y-112458595D01*
X171036880Y-113030023D01*
X171036880Y-112410976D01*
X167076380Y-80430666D02*
X166600190Y-80764000D01*
X167076380Y-81002095D02*
X166076380Y-81002095D01*
X166076380Y-80621142D01*
X166124000Y-80525904D01*
X166171619Y-80478285D01*
X166266857Y-80430666D01*
X166409714Y-80430666D01*
X166504952Y-80478285D01*
X166552571Y-80525904D01*
X166600190Y-80621142D01*
X166600190Y-81002095D01*
X166409714Y-79573523D02*
X167076380Y-79573523D01*
X166028761Y-79811619D02*
X166743047Y-80049714D01*
X166743047Y-79430666D01*
X170759380Y-80430666D02*
X170283190Y-80764000D01*
X170759380Y-81002095D02*
X169759380Y-81002095D01*
X169759380Y-80621142D01*
X169807000Y-80525904D01*
X169854619Y-80478285D01*
X169949857Y-80430666D01*
X170092714Y-80430666D01*
X170187952Y-80478285D01*
X170235571Y-80525904D01*
X170283190Y-80621142D01*
X170283190Y-81002095D01*
X169759380Y-79525904D02*
X169759380Y-80002095D01*
X170235571Y-80049714D01*
X170187952Y-80002095D01*
X170140333Y-79906857D01*
X170140333Y-79668761D01*
X170187952Y-79573523D01*
X170235571Y-79525904D01*
X170330809Y-79478285D01*
X170568904Y-79478285D01*
X170664142Y-79525904D01*
X170711761Y-79573523D01*
X170759380Y-79668761D01*
X170759380Y-79906857D01*
X170711761Y-80002095D01*
X170664142Y-80049714D01*
X172664380Y-80430666D02*
X172188190Y-80764000D01*
X172664380Y-81002095D02*
X171664380Y-81002095D01*
X171664380Y-80621142D01*
X171712000Y-80525904D01*
X171759619Y-80478285D01*
X171854857Y-80430666D01*
X171997714Y-80430666D01*
X172092952Y-80478285D01*
X172140571Y-80525904D01*
X172188190Y-80621142D01*
X172188190Y-81002095D01*
X171664380Y-80097333D02*
X171664380Y-79430666D01*
X172664380Y-79859238D01*
X171046380Y-76112666D02*
X170570190Y-76446000D01*
X171046380Y-76684095D02*
X170046380Y-76684095D01*
X170046380Y-76303142D01*
X170094000Y-76207904D01*
X170141619Y-76160285D01*
X170236857Y-76112666D01*
X170379714Y-76112666D01*
X170474952Y-76160285D01*
X170522571Y-76207904D01*
X170570190Y-76303142D01*
X170570190Y-76684095D01*
X170474952Y-75541238D02*
X170427333Y-75636476D01*
X170379714Y-75684095D01*
X170284476Y-75731714D01*
X170236857Y-75731714D01*
X170141619Y-75684095D01*
X170094000Y-75636476D01*
X170046380Y-75541238D01*
X170046380Y-75350761D01*
X170094000Y-75255523D01*
X170141619Y-75207904D01*
X170236857Y-75160285D01*
X170284476Y-75160285D01*
X170379714Y-75207904D01*
X170427333Y-75255523D01*
X170474952Y-75350761D01*
X170474952Y-75541238D01*
X170522571Y-75636476D01*
X170570190Y-75684095D01*
X170665428Y-75731714D01*
X170855904Y-75731714D01*
X170951142Y-75684095D01*
X170998761Y-75636476D01*
X171046380Y-75541238D01*
X171046380Y-75350761D01*
X170998761Y-75255523D01*
X170951142Y-75207904D01*
X170855904Y-75160285D01*
X170665428Y-75160285D01*
X170570190Y-75207904D01*
X170522571Y-75255523D01*
X170474952Y-75350761D01*
X166281380Y-76112666D02*
X165805190Y-76446000D01*
X166281380Y-76684095D02*
X165281380Y-76684095D01*
X165281380Y-76303142D01*
X165329000Y-76207904D01*
X165376619Y-76160285D01*
X165471857Y-76112666D01*
X165614714Y-76112666D01*
X165709952Y-76160285D01*
X165757571Y-76207904D01*
X165805190Y-76303142D01*
X165805190Y-76684095D01*
X166281380Y-75636476D02*
X166281380Y-75446000D01*
X166233761Y-75350761D01*
X166186142Y-75303142D01*
X166043285Y-75207904D01*
X165852809Y-75160285D01*
X165471857Y-75160285D01*
X165376619Y-75207904D01*
X165329000Y-75255523D01*
X165281380Y-75350761D01*
X165281380Y-75541238D01*
X165329000Y-75636476D01*
X165376619Y-75684095D01*
X165471857Y-75731714D01*
X165709952Y-75731714D01*
X165805190Y-75684095D01*
X165852809Y-75636476D01*
X165900428Y-75541238D01*
X165900428Y-75350761D01*
X165852809Y-75255523D01*
X165805190Y-75207904D01*
X165709952Y-75160285D01*
X143644880Y-60205857D02*
X143168690Y-60539190D01*
X143644880Y-60777285D02*
X142644880Y-60777285D01*
X142644880Y-60396333D01*
X142692500Y-60301095D01*
X142740119Y-60253476D01*
X142835357Y-60205857D01*
X142978214Y-60205857D01*
X143073452Y-60253476D01*
X143121071Y-60301095D01*
X143168690Y-60396333D01*
X143168690Y-60777285D01*
X143644880Y-59253476D02*
X143644880Y-59824904D01*
X143644880Y-59539190D02*
X142644880Y-59539190D01*
X142787738Y-59634428D01*
X142882976Y-59729666D01*
X142930595Y-59824904D01*
X142644880Y-58634428D02*
X142644880Y-58539190D01*
X142692500Y-58443952D01*
X142740119Y-58396333D01*
X142835357Y-58348714D01*
X143025833Y-58301095D01*
X143263928Y-58301095D01*
X143454404Y-58348714D01*
X143549642Y-58396333D01*
X143597261Y-58443952D01*
X143644880Y-58539190D01*
X143644880Y-58634428D01*
X143597261Y-58729666D01*
X143549642Y-58777285D01*
X143454404Y-58824904D01*
X143263928Y-58872523D01*
X143025833Y-58872523D01*
X142835357Y-58824904D01*
X142740119Y-58777285D01*
X142692500Y-58729666D01*
X142644880Y-58634428D01*
X145549880Y-60205857D02*
X145073690Y-60539190D01*
X145549880Y-60777285D02*
X144549880Y-60777285D01*
X144549880Y-60396333D01*
X144597500Y-60301095D01*
X144645119Y-60253476D01*
X144740357Y-60205857D01*
X144883214Y-60205857D01*
X144978452Y-60253476D01*
X145026071Y-60301095D01*
X145073690Y-60396333D01*
X145073690Y-60777285D01*
X145549880Y-59253476D02*
X145549880Y-59824904D01*
X145549880Y-59539190D02*
X144549880Y-59539190D01*
X144692738Y-59634428D01*
X144787976Y-59729666D01*
X144835595Y-59824904D01*
X145549880Y-58301095D02*
X145549880Y-58872523D01*
X145549880Y-58586809D02*
X144549880Y-58586809D01*
X144692738Y-58682047D01*
X144787976Y-58777285D01*
X144835595Y-58872523D01*
X154630380Y-121510057D02*
X154154190Y-121843390D01*
X154630380Y-122081485D02*
X153630380Y-122081485D01*
X153630380Y-121700533D01*
X153678000Y-121605295D01*
X153725619Y-121557676D01*
X153820857Y-121510057D01*
X153963714Y-121510057D01*
X154058952Y-121557676D01*
X154106571Y-121605295D01*
X154154190Y-121700533D01*
X154154190Y-122081485D01*
X154630380Y-120557676D02*
X154630380Y-121129104D01*
X154630380Y-120843390D02*
X153630380Y-120843390D01*
X153773238Y-120938628D01*
X153868476Y-121033866D01*
X153916095Y-121129104D01*
X153725619Y-120176723D02*
X153678000Y-120129104D01*
X153630380Y-120033866D01*
X153630380Y-119795771D01*
X153678000Y-119700533D01*
X153725619Y-119652914D01*
X153820857Y-119605295D01*
X153916095Y-119605295D01*
X154058952Y-119652914D01*
X154630380Y-120224342D01*
X154630380Y-119605295D01*
X156344880Y-121496057D02*
X155868690Y-121829390D01*
X156344880Y-122067485D02*
X155344880Y-122067485D01*
X155344880Y-121686533D01*
X155392500Y-121591295D01*
X155440119Y-121543676D01*
X155535357Y-121496057D01*
X155678214Y-121496057D01*
X155773452Y-121543676D01*
X155821071Y-121591295D01*
X155868690Y-121686533D01*
X155868690Y-122067485D01*
X156344880Y-120543676D02*
X156344880Y-121115104D01*
X156344880Y-120829390D02*
X155344880Y-120829390D01*
X155487738Y-120924628D01*
X155582976Y-121019866D01*
X155630595Y-121115104D01*
X155344880Y-120210342D02*
X155344880Y-119591295D01*
X155725833Y-119924628D01*
X155725833Y-119781771D01*
X155773452Y-119686533D01*
X155821071Y-119638914D01*
X155916309Y-119591295D01*
X156154404Y-119591295D01*
X156249642Y-119638914D01*
X156297261Y-119686533D01*
X156344880Y-119781771D01*
X156344880Y-120067485D01*
X156297261Y-120162723D01*
X156249642Y-120210342D01*
X164536380Y-106941857D02*
X164060190Y-107275190D01*
X164536380Y-107513285D02*
X163536380Y-107513285D01*
X163536380Y-107132333D01*
X163584000Y-107037095D01*
X163631619Y-106989476D01*
X163726857Y-106941857D01*
X163869714Y-106941857D01*
X163964952Y-106989476D01*
X164012571Y-107037095D01*
X164060190Y-107132333D01*
X164060190Y-107513285D01*
X164536380Y-105989476D02*
X164536380Y-106560904D01*
X164536380Y-106275190D02*
X163536380Y-106275190D01*
X163679238Y-106370428D01*
X163774476Y-106465666D01*
X163822095Y-106560904D01*
X163869714Y-105132333D02*
X164536380Y-105132333D01*
X163488761Y-105370428D02*
X164203047Y-105608523D01*
X164203047Y-104989476D01*
X157779980Y-116365257D02*
X157303790Y-116698590D01*
X157779980Y-116936685D02*
X156779980Y-116936685D01*
X156779980Y-116555733D01*
X156827600Y-116460495D01*
X156875219Y-116412876D01*
X156970457Y-116365257D01*
X157113314Y-116365257D01*
X157208552Y-116412876D01*
X157256171Y-116460495D01*
X157303790Y-116555733D01*
X157303790Y-116936685D01*
X157779980Y-115412876D02*
X157779980Y-115984304D01*
X157779980Y-115698590D02*
X156779980Y-115698590D01*
X156922838Y-115793828D01*
X157018076Y-115889066D01*
X157065695Y-115984304D01*
X156779980Y-114508114D02*
X156779980Y-114984304D01*
X157256171Y-115031923D01*
X157208552Y-114984304D01*
X157160933Y-114889066D01*
X157160933Y-114650971D01*
X157208552Y-114555733D01*
X157256171Y-114508114D01*
X157351409Y-114460495D01*
X157589504Y-114460495D01*
X157684742Y-114508114D01*
X157732361Y-114555733D01*
X157779980Y-114650971D01*
X157779980Y-114889066D01*
X157732361Y-114984304D01*
X157684742Y-115031923D01*
X165155642Y-118498880D02*
X164822309Y-118022690D01*
X164584214Y-118498880D02*
X164584214Y-117498880D01*
X164965166Y-117498880D01*
X165060404Y-117546500D01*
X165108023Y-117594119D01*
X165155642Y-117689357D01*
X165155642Y-117832214D01*
X165108023Y-117927452D01*
X165060404Y-117975071D01*
X164965166Y-118022690D01*
X164584214Y-118022690D01*
X166108023Y-118498880D02*
X165536595Y-118498880D01*
X165822309Y-118498880D02*
X165822309Y-117498880D01*
X165727071Y-117641738D01*
X165631833Y-117736976D01*
X165536595Y-117784595D01*
X166965166Y-117498880D02*
X166774690Y-117498880D01*
X166679452Y-117546500D01*
X166631833Y-117594119D01*
X166536595Y-117736976D01*
X166488976Y-117927452D01*
X166488976Y-118308404D01*
X166536595Y-118403642D01*
X166584214Y-118451261D01*
X166679452Y-118498880D01*
X166869928Y-118498880D01*
X166965166Y-118451261D01*
X167012785Y-118403642D01*
X167060404Y-118308404D01*
X167060404Y-118070309D01*
X167012785Y-117975071D01*
X166965166Y-117927452D01*
X166869928Y-117879833D01*
X166679452Y-117879833D01*
X166584214Y-117927452D01*
X166536595Y-117975071D01*
X166488976Y-118070309D01*
X169362380Y-106941857D02*
X168886190Y-107275190D01*
X169362380Y-107513285D02*
X168362380Y-107513285D01*
X168362380Y-107132333D01*
X168410000Y-107037095D01*
X168457619Y-106989476D01*
X168552857Y-106941857D01*
X168695714Y-106941857D01*
X168790952Y-106989476D01*
X168838571Y-107037095D01*
X168886190Y-107132333D01*
X168886190Y-107513285D01*
X169362380Y-105989476D02*
X169362380Y-106560904D01*
X169362380Y-106275190D02*
X168362380Y-106275190D01*
X168505238Y-106370428D01*
X168600476Y-106465666D01*
X168648095Y-106560904D01*
X168362380Y-105656142D02*
X168362380Y-104989476D01*
X169362380Y-105418047D01*
X162631380Y-106941857D02*
X162155190Y-107275190D01*
X162631380Y-107513285D02*
X161631380Y-107513285D01*
X161631380Y-107132333D01*
X161679000Y-107037095D01*
X161726619Y-106989476D01*
X161821857Y-106941857D01*
X161964714Y-106941857D01*
X162059952Y-106989476D01*
X162107571Y-107037095D01*
X162155190Y-107132333D01*
X162155190Y-107513285D01*
X162631380Y-105989476D02*
X162631380Y-106560904D01*
X162631380Y-106275190D02*
X161631380Y-106275190D01*
X161774238Y-106370428D01*
X161869476Y-106465666D01*
X161917095Y-106560904D01*
X162631380Y-105513285D02*
X162631380Y-105322809D01*
X162583761Y-105227571D01*
X162536142Y-105179952D01*
X162393285Y-105084714D01*
X162202809Y-105037095D01*
X161821857Y-105037095D01*
X161726619Y-105084714D01*
X161679000Y-105132333D01*
X161631380Y-105227571D01*
X161631380Y-105418047D01*
X161679000Y-105513285D01*
X161726619Y-105560904D01*
X161821857Y-105608523D01*
X162059952Y-105608523D01*
X162155190Y-105560904D01*
X162202809Y-105513285D01*
X162250428Y-105418047D01*
X162250428Y-105227571D01*
X162202809Y-105132333D01*
X162155190Y-105084714D01*
X162059952Y-105037095D01*
X167584380Y-106941857D02*
X167108190Y-107275190D01*
X167584380Y-107513285D02*
X166584380Y-107513285D01*
X166584380Y-107132333D01*
X166632000Y-107037095D01*
X166679619Y-106989476D01*
X166774857Y-106941857D01*
X166917714Y-106941857D01*
X167012952Y-106989476D01*
X167060571Y-107037095D01*
X167108190Y-107132333D01*
X167108190Y-107513285D01*
X166679619Y-106560904D02*
X166632000Y-106513285D01*
X166584380Y-106418047D01*
X166584380Y-106179952D01*
X166632000Y-106084714D01*
X166679619Y-106037095D01*
X166774857Y-105989476D01*
X166870095Y-105989476D01*
X167012952Y-106037095D01*
X167584380Y-106608523D01*
X167584380Y-105989476D01*
X166584380Y-105370428D02*
X166584380Y-105275190D01*
X166632000Y-105179952D01*
X166679619Y-105132333D01*
X166774857Y-105084714D01*
X166965333Y-105037095D01*
X167203428Y-105037095D01*
X167393904Y-105084714D01*
X167489142Y-105132333D01*
X167536761Y-105179952D01*
X167584380Y-105275190D01*
X167584380Y-105370428D01*
X167536761Y-105465666D01*
X167489142Y-105513285D01*
X167393904Y-105560904D01*
X167203428Y-105608523D01*
X166965333Y-105608523D01*
X166774857Y-105560904D01*
X166679619Y-105513285D01*
X166632000Y-105465666D01*
X166584380Y-105370428D01*
X140846252Y-102217480D02*
X140512919Y-101741290D01*
X140274823Y-102217480D02*
X140274823Y-101217480D01*
X140655776Y-101217480D01*
X140751014Y-101265100D01*
X140798633Y-101312719D01*
X140846252Y-101407957D01*
X140846252Y-101550814D01*
X140798633Y-101646052D01*
X140751014Y-101693671D01*
X140655776Y-101741290D01*
X140274823Y-101741290D01*
X141274823Y-102217480D02*
X141274823Y-101217480D01*
X141274823Y-101598433D02*
X141370061Y-101550814D01*
X141560538Y-101550814D01*
X141655776Y-101598433D01*
X141703395Y-101646052D01*
X141751014Y-101741290D01*
X141751014Y-102027004D01*
X141703395Y-102122242D01*
X141655776Y-102169861D01*
X141560538Y-102217480D01*
X141370061Y-102217480D01*
X141274823Y-102169861D01*
X142703395Y-102217480D02*
X142131966Y-102217480D01*
X142417680Y-102217480D02*
X142417680Y-101217480D01*
X142322442Y-101360338D01*
X142227204Y-101455576D01*
X142131966Y-101503195D01*
X138882380Y-98536047D02*
X138406190Y-98869380D01*
X138882380Y-99107476D02*
X137882380Y-99107476D01*
X137882380Y-98726523D01*
X137930000Y-98631285D01*
X137977619Y-98583666D01*
X138072857Y-98536047D01*
X138215714Y-98536047D01*
X138310952Y-98583666D01*
X138358571Y-98631285D01*
X138406190Y-98726523D01*
X138406190Y-99107476D01*
X138882380Y-98107476D02*
X137882380Y-98107476D01*
X138263333Y-98107476D02*
X138215714Y-98012238D01*
X138215714Y-97821761D01*
X138263333Y-97726523D01*
X138310952Y-97678904D01*
X138406190Y-97631285D01*
X138691904Y-97631285D01*
X138787142Y-97678904D01*
X138834761Y-97726523D01*
X138882380Y-97821761D01*
X138882380Y-98012238D01*
X138834761Y-98107476D01*
X137977619Y-97250333D02*
X137930000Y-97202714D01*
X137882380Y-97107476D01*
X137882380Y-96869380D01*
X137930000Y-96774142D01*
X137977619Y-96726523D01*
X138072857Y-96678904D01*
X138168095Y-96678904D01*
X138310952Y-96726523D01*
X138882380Y-97297952D01*
X138882380Y-96678904D01*
X149964852Y-103677980D02*
X149631519Y-103201790D01*
X149393423Y-103677980D02*
X149393423Y-102677980D01*
X149774376Y-102677980D01*
X149869614Y-102725600D01*
X149917233Y-102773219D01*
X149964852Y-102868457D01*
X149964852Y-103011314D01*
X149917233Y-103106552D01*
X149869614Y-103154171D01*
X149774376Y-103201790D01*
X149393423Y-103201790D01*
X150393423Y-103677980D02*
X150393423Y-102677980D01*
X150393423Y-103058933D02*
X150488661Y-103011314D01*
X150679138Y-103011314D01*
X150774376Y-103058933D01*
X150821995Y-103106552D01*
X150869614Y-103201790D01*
X150869614Y-103487504D01*
X150821995Y-103582742D01*
X150774376Y-103630361D01*
X150679138Y-103677980D01*
X150488661Y-103677980D01*
X150393423Y-103630361D01*
X151202947Y-102677980D02*
X151821995Y-102677980D01*
X151488661Y-103058933D01*
X151631519Y-103058933D01*
X151726757Y-103106552D01*
X151774376Y-103154171D01*
X151821995Y-103249409D01*
X151821995Y-103487504D01*
X151774376Y-103582742D01*
X151726757Y-103630361D01*
X151631519Y-103677980D01*
X151345804Y-103677980D01*
X151250566Y-103630361D01*
X151202947Y-103582742D01*
X155709880Y-98332847D02*
X155233690Y-98666180D01*
X155709880Y-98904276D02*
X154709880Y-98904276D01*
X154709880Y-98523323D01*
X154757500Y-98428085D01*
X154805119Y-98380466D01*
X154900357Y-98332847D01*
X155043214Y-98332847D01*
X155138452Y-98380466D01*
X155186071Y-98428085D01*
X155233690Y-98523323D01*
X155233690Y-98904276D01*
X155709880Y-97904276D02*
X154709880Y-97904276D01*
X155090833Y-97904276D02*
X155043214Y-97809038D01*
X155043214Y-97618561D01*
X155090833Y-97523323D01*
X155138452Y-97475704D01*
X155233690Y-97428085D01*
X155519404Y-97428085D01*
X155614642Y-97475704D01*
X155662261Y-97523323D01*
X155709880Y-97618561D01*
X155709880Y-97809038D01*
X155662261Y-97904276D01*
X155043214Y-96570942D02*
X155709880Y-96570942D01*
X154662261Y-96809038D02*
X155376547Y-97047133D01*
X155376547Y-96428085D01*
X138882380Y-94457780D02*
X138406190Y-94791114D01*
X138882380Y-95029209D02*
X137882380Y-95029209D01*
X137882380Y-94648257D01*
X137930000Y-94553019D01*
X137977619Y-94505400D01*
X138072857Y-94457780D01*
X138215714Y-94457780D01*
X138310952Y-94505400D01*
X138358571Y-94553019D01*
X138406190Y-94648257D01*
X138406190Y-95029209D01*
X138215714Y-94172066D02*
X138215714Y-93791114D01*
X138882380Y-94029209D02*
X138025238Y-94029209D01*
X137930000Y-93981590D01*
X137882380Y-93886352D01*
X137882380Y-93791114D01*
X138882380Y-92933971D02*
X138882380Y-93505400D01*
X138882380Y-93219685D02*
X137882380Y-93219685D01*
X138025238Y-93314923D01*
X138120476Y-93410161D01*
X138168095Y-93505400D01*
X151582380Y-92273380D02*
X151106190Y-92606714D01*
X151582380Y-92844809D02*
X150582380Y-92844809D01*
X150582380Y-92463857D01*
X150630000Y-92368619D01*
X150677619Y-92321000D01*
X150772857Y-92273380D01*
X150915714Y-92273380D01*
X151010952Y-92321000D01*
X151058571Y-92368619D01*
X151106190Y-92463857D01*
X151106190Y-92844809D01*
X150915714Y-91987666D02*
X150915714Y-91606714D01*
X151582380Y-91844809D02*
X150725238Y-91844809D01*
X150630000Y-91797190D01*
X150582380Y-91701952D01*
X150582380Y-91606714D01*
X150677619Y-91321000D02*
X150630000Y-91273380D01*
X150582380Y-91178142D01*
X150582380Y-90940047D01*
X150630000Y-90844809D01*
X150677619Y-90797190D01*
X150772857Y-90749571D01*
X150868095Y-90749571D01*
X151010952Y-90797190D01*
X151582380Y-91368619D01*
X151582380Y-90749571D01*
X137358380Y-94497447D02*
X136882190Y-94830780D01*
X137358380Y-95068876D02*
X136358380Y-95068876D01*
X136358380Y-94687923D01*
X136406000Y-94592685D01*
X136453619Y-94545066D01*
X136548857Y-94497447D01*
X136691714Y-94497447D01*
X136786952Y-94545066D01*
X136834571Y-94592685D01*
X136882190Y-94687923D01*
X136882190Y-95068876D01*
X136691714Y-93640304D02*
X137501238Y-93640304D01*
X137596476Y-93687923D01*
X137644095Y-93735542D01*
X137691714Y-93830780D01*
X137691714Y-93973638D01*
X137644095Y-94068876D01*
X137310761Y-93640304D02*
X137358380Y-93735542D01*
X137358380Y-93926019D01*
X137310761Y-94021257D01*
X137263142Y-94068876D01*
X137167904Y-94116495D01*
X136882190Y-94116495D01*
X136786952Y-94068876D01*
X136739333Y-94021257D01*
X136691714Y-93926019D01*
X136691714Y-93735542D01*
X136739333Y-93640304D01*
X137358380Y-92640304D02*
X137358380Y-93211733D01*
X137358380Y-92926019D02*
X136358380Y-92926019D01*
X136501238Y-93021257D01*
X136596476Y-93116495D01*
X136644095Y-93211733D01*
X150058380Y-92313047D02*
X149582190Y-92646380D01*
X150058380Y-92884476D02*
X149058380Y-92884476D01*
X149058380Y-92503523D01*
X149106000Y-92408285D01*
X149153619Y-92360666D01*
X149248857Y-92313047D01*
X149391714Y-92313047D01*
X149486952Y-92360666D01*
X149534571Y-92408285D01*
X149582190Y-92503523D01*
X149582190Y-92884476D01*
X149391714Y-91455904D02*
X150201238Y-91455904D01*
X150296476Y-91503523D01*
X150344095Y-91551142D01*
X150391714Y-91646380D01*
X150391714Y-91789238D01*
X150344095Y-91884476D01*
X150010761Y-91455904D02*
X150058380Y-91551142D01*
X150058380Y-91741619D01*
X150010761Y-91836857D01*
X149963142Y-91884476D01*
X149867904Y-91932095D01*
X149582190Y-91932095D01*
X149486952Y-91884476D01*
X149439333Y-91836857D01*
X149391714Y-91741619D01*
X149391714Y-91551142D01*
X149439333Y-91455904D01*
X149153619Y-91027333D02*
X149106000Y-90979714D01*
X149058380Y-90884476D01*
X149058380Y-90646380D01*
X149106000Y-90551142D01*
X149153619Y-90503523D01*
X149248857Y-90455904D01*
X149344095Y-90455904D01*
X149486952Y-90503523D01*
X150058380Y-91074952D01*
X150058380Y-90455904D01*
X140025380Y-116927238D02*
X139549190Y-117260571D01*
X140025380Y-117498666D02*
X139025380Y-117498666D01*
X139025380Y-117117714D01*
X139073000Y-117022476D01*
X139120619Y-116974857D01*
X139215857Y-116927238D01*
X139358714Y-116927238D01*
X139453952Y-116974857D01*
X139501571Y-117022476D01*
X139549190Y-117117714D01*
X139549190Y-117498666D01*
X139025380Y-116641523D02*
X140025380Y-116308190D01*
X139025380Y-115974857D01*
X140025380Y-115117714D02*
X140025380Y-115689142D01*
X140025380Y-115403428D02*
X139025380Y-115403428D01*
X139168238Y-115498666D01*
X139263476Y-115593904D01*
X139311095Y-115689142D01*
X138938095Y-61428380D02*
X138938095Y-62237904D01*
X138985714Y-62333142D01*
X139033333Y-62380761D01*
X139128571Y-62428380D01*
X139319047Y-62428380D01*
X139414285Y-62380761D01*
X139461904Y-62333142D01*
X139509523Y-62237904D01*
X139509523Y-61428380D01*
X140414285Y-61761714D02*
X140414285Y-62428380D01*
X140176190Y-61380761D02*
X139938095Y-62095047D01*
X140557142Y-62095047D01*
X143256095Y-92162380D02*
X143256095Y-92971904D01*
X143303714Y-93067142D01*
X143351333Y-93114761D01*
X143446571Y-93162380D01*
X143637047Y-93162380D01*
X143732285Y-93114761D01*
X143779904Y-93067142D01*
X143827523Y-92971904D01*
X143827523Y-92162380D01*
X144827523Y-93162380D02*
X144256095Y-93162380D01*
X144541809Y-93162380D02*
X144541809Y-92162380D01*
X144446571Y-92305238D01*
X144351333Y-92400476D01*
X144256095Y-92448095D01*
X144994333Y-53506642D02*
X144946714Y-53554261D01*
X144803857Y-53601880D01*
X144708619Y-53601880D01*
X144565761Y-53554261D01*
X144470523Y-53459023D01*
X144422904Y-53363785D01*
X144375285Y-53173309D01*
X144375285Y-53030452D01*
X144422904Y-52839976D01*
X144470523Y-52744738D01*
X144565761Y-52649500D01*
X144708619Y-52601880D01*
X144803857Y-52601880D01*
X144946714Y-52649500D01*
X144994333Y-52697119D01*
X145946714Y-53601880D02*
X145375285Y-53601880D01*
X145661000Y-53601880D02*
X145661000Y-52601880D01*
X145565761Y-52744738D01*
X145470523Y-52839976D01*
X145375285Y-52887595D01*
X133031333Y-55209642D02*
X132983714Y-55257261D01*
X132840857Y-55304880D01*
X132745619Y-55304880D01*
X132602761Y-55257261D01*
X132507523Y-55162023D01*
X132459904Y-55066785D01*
X132412285Y-54876309D01*
X132412285Y-54733452D01*
X132459904Y-54542976D01*
X132507523Y-54447738D01*
X132602761Y-54352500D01*
X132745619Y-54304880D01*
X132840857Y-54304880D01*
X132983714Y-54352500D01*
X133031333Y-54400119D01*
X133412285Y-54400119D02*
X133459904Y-54352500D01*
X133555142Y-54304880D01*
X133793238Y-54304880D01*
X133888476Y-54352500D01*
X133936095Y-54400119D01*
X133983714Y-54495357D01*
X133983714Y-54590595D01*
X133936095Y-54733452D01*
X133364666Y-55304880D01*
X133983714Y-55304880D01*
X148016933Y-111475780D02*
X147683600Y-110999590D01*
X147445504Y-111475780D02*
X147445504Y-110475780D01*
X147826457Y-110475780D01*
X147921695Y-110523400D01*
X147969314Y-110571019D01*
X148016933Y-110666257D01*
X148016933Y-110809114D01*
X147969314Y-110904352D01*
X147921695Y-110951971D01*
X147826457Y-110999590D01*
X147445504Y-110999590D01*
X148969314Y-111475780D02*
X148397885Y-111475780D01*
X148683600Y-111475780D02*
X148683600Y-110475780D01*
X148588361Y-110618638D01*
X148493123Y-110713876D01*
X148397885Y-110761495D01*
X145083233Y-111475780D02*
X144749900Y-110999590D01*
X144511804Y-111475780D02*
X144511804Y-110475780D01*
X144892757Y-110475780D01*
X144987995Y-110523400D01*
X145035614Y-110571019D01*
X145083233Y-110666257D01*
X145083233Y-110809114D01*
X145035614Y-110904352D01*
X144987995Y-110951971D01*
X144892757Y-110999590D01*
X144511804Y-110999590D01*
X145464185Y-110571019D02*
X145511804Y-110523400D01*
X145607042Y-110475780D01*
X145845138Y-110475780D01*
X145940376Y-110523400D01*
X145987995Y-110571019D01*
X146035614Y-110666257D01*
X146035614Y-110761495D01*
X145987995Y-110904352D01*
X145416566Y-111475780D01*
X146035614Y-111475780D01*
X137036980Y-107365766D02*
X136560790Y-107699100D01*
X137036980Y-107937195D02*
X136036980Y-107937195D01*
X136036980Y-107556242D01*
X136084600Y-107461004D01*
X136132219Y-107413385D01*
X136227457Y-107365766D01*
X136370314Y-107365766D01*
X136465552Y-107413385D01*
X136513171Y-107461004D01*
X136560790Y-107556242D01*
X136560790Y-107937195D01*
X136036980Y-107032433D02*
X136036980Y-106413385D01*
X136417933Y-106746719D01*
X136417933Y-106603861D01*
X136465552Y-106508623D01*
X136513171Y-106461004D01*
X136608409Y-106413385D01*
X136846504Y-106413385D01*
X136941742Y-106461004D01*
X136989361Y-106508623D01*
X137036980Y-106603861D01*
X137036980Y-106889576D01*
X136989361Y-106984814D01*
X136941742Y-107032433D01*
X146264380Y-62277523D02*
X146978666Y-62277523D01*
X147121523Y-62325142D01*
X147216761Y-62420380D01*
X147264380Y-62563238D01*
X147264380Y-62658476D01*
X147264380Y-61277523D02*
X147264380Y-61848952D01*
X147264380Y-61563238D02*
X146264380Y-61563238D01*
X146407238Y-61658476D01*
X146502476Y-61753714D01*
X146550095Y-61848952D01*
X147264380Y-60325142D02*
X147264380Y-60896571D01*
X147264380Y-60610857D02*
X146264380Y-60610857D01*
X146407238Y-60706095D01*
X146502476Y-60801333D01*
X146550095Y-60896571D01*
M02*
