M48
INCH,TZ
T1C0.0125
T2C0.0256
T3C0.0276
T4C0.0394
T5C0.0433
T6C0.1000
%
G90
G05
T1
X54130Y-41310
X54310Y-32400
X54920Y-36400
X54930Y-39030
X55070Y-35180
X55200Y-43400
X55220Y-41570
X55480Y-44600
X56500Y-38180
X56870Y-32510
X57210Y-32390
X57720Y-35980
X58150Y-43400
X58260Y-35130
X58830Y-41340
X60500Y-36890
X60660Y-39000
X62300Y-48200
X63495Y-43785
X65435Y-43795
X66675Y-32025
T4
X51000Y-26000
X51000Y-27000
X51000Y-28000
X51000Y-29000
X51000Y-30000
X51000Y-31000
X51000Y-32000
X51000Y-33000
X52000Y-26000
X52000Y-27000
X52000Y-28000
X52000Y-29000
X52000Y-30000
X52000Y-31000
X52000Y-32000
X52000Y-33000
X59600Y-28000
X60600Y-28000
X61600Y-28000
X62600Y-28000
X63600Y-28000
X64600Y-28000
X65600Y-28000
X66600Y-28000
X69000Y-22402
X69000Y-23402
X69000Y-24402
X69000Y-25402
X69000Y-26402
X69000Y-27402
X69000Y-28402
X69000Y-29402
X69000Y-30402
X69000Y-31402
X70000Y-22402
X70000Y-23402
X70000Y-24402
X70000Y-25402
X70000Y-26402
X70000Y-27402
X70000Y-28402
X70000Y-29402
X70000Y-30402
X70000Y-31402
X69000Y-33000
X69000Y-34000
X69000Y-35000
X69000Y-36000
X69000Y-37000
X69000Y-38000
X69000Y-39000
X69000Y-40000
X69000Y-41000
X69000Y-42000
X69000Y-43000
X69000Y-44000
X69000Y-45000
X69000Y-46000
X69000Y-47000
X69000Y-48000
X69000Y-49000
X70000Y-33000
X70000Y-34000
X70000Y-35000
X70000Y-36000
X70000Y-37000
X70000Y-38000
X70000Y-39000
X70000Y-40000
X70000Y-41000
X70000Y-42000
X70000Y-43000
X70000Y-44000
X70000Y-45000
X70000Y-46000
X70000Y-47000
X70000Y-48000
X70000Y-49000
X59100Y-24100
X60100Y-24100
X61100Y-24100
X62100Y-24100
X63100Y-24100
X64100Y-24100
X65100Y-24100
X66100Y-24100
X67100Y-24100
X51000Y-35000
X51000Y-36000
X51000Y-37000
X51000Y-38000
X51000Y-39000
X51000Y-40000
X51000Y-41000
X51000Y-42000
X51000Y-43000
X51000Y-44000
X51000Y-45000
X51000Y-46000
X51000Y-47000
X51000Y-48000
X51000Y-49000
X52000Y-35000
X52000Y-36000
X52000Y-37000
X52000Y-38000
X52000Y-39000
X52000Y-40000
X52000Y-41000
X52000Y-42000
X52000Y-43000
X52000Y-44000
X52000Y-45000
X52000Y-46000
X52000Y-47000
X52000Y-48000
X52000Y-49000
T5
X66250Y-48500
X67250Y-48500
X58550Y-48490
X59550Y-48490
X63300Y-48500
X64300Y-48500
X51575Y-22925
X51575Y-23925
X53650Y-48500
X54650Y-48500
T6
X59100Y-17100
X67100Y-17100
X59100Y-17100
X67100Y-17100
T2
G00X54435Y-18169
M15
G01X54435Y-18326
M16
G05
G00X56341Y-18169
M15
G01X56341Y-18326
M16
G05
T3
G00X54313Y-16968
M15
G01X54313Y-17165
M16
G05
G00X56463Y-16968
M15
G01X56463Y-17165
M16
G05
T0
M30
